G04 #@! TF.GenerationSoftware,KiCad,Pcbnew,(5.0.1)-4*
G04 #@! TF.CreationDate,2018-11-19T01:03:16-05:00*
G04 #@! TF.ProjectId,k64shield,6B3634736869656C642E6B696361645F,rev?*
G04 #@! TF.SameCoordinates,Original*
G04 #@! TF.FileFunction,Copper,L2,Bot,Signal*
G04 #@! TF.FilePolarity,Positive*
%FSLAX46Y46*%
G04 Gerber Fmt 4.6, Leading zero omitted, Abs format (unit mm)*
G04 Created by KiCad (PCBNEW (5.0.1)-4) date 11/19/2018 1:03:16 AM*
%MOMM*%
%LPD*%
G01*
G04 APERTURE LIST*
G04 #@! TA.AperFunction,ComponentPad*
%ADD10R,1.700000X1.700000*%
G04 #@! TD*
G04 #@! TA.AperFunction,ComponentPad*
%ADD11O,1.700000X1.700000*%
G04 #@! TD*
G04 #@! TA.AperFunction,ViaPad*
%ADD12C,0.600000*%
G04 #@! TD*
G04 #@! TA.AperFunction,Conductor*
%ADD13C,0.250000*%
G04 #@! TD*
G04 #@! TA.AperFunction,Conductor*
%ADD14C,0.254000*%
G04 #@! TD*
G04 APERTURE END LIST*
D10*
G04 #@! TO.P,J3,1*
G04 #@! TO.N,/B2*
X96774000Y-121920000D03*
D11*
G04 #@! TO.P,J3,2*
G04 #@! TO.N,/GND*
X96774000Y-119380000D03*
G04 #@! TO.P,J3,3*
G04 #@! TO.N,/B1*
X99314000Y-121920000D03*
G04 #@! TO.P,J3,4*
G04 #@! TO.N,/PTB2*
X99314000Y-119380000D03*
G04 #@! TO.P,J3,5*
G04 #@! TO.N,/RST*
X101854000Y-121920000D03*
G04 #@! TO.P,J3,6*
G04 #@! TO.N,/PTB3*
X101854000Y-119380000D03*
G04 #@! TO.P,J3,7*
G04 #@! TO.N,/GND*
X104394000Y-121920000D03*
G04 #@! TO.P,J3,8*
G04 #@! TO.N,/A2*
X104394000Y-119380000D03*
G04 #@! TO.P,J3,9*
G04 #@! TO.N,/ADC1_DP0*
X106934000Y-121920000D03*
G04 #@! TO.P,J3,10*
G04 #@! TO.N,/A1*
X106934000Y-119380000D03*
G04 #@! TO.P,J3,11*
G04 #@! TO.N,/GND*
X109474000Y-121920000D03*
G04 #@! TO.P,J3,12*
G04 #@! TO.N,/PTC10*
X109474000Y-119380000D03*
G04 #@! TO.P,J3,13*
G04 #@! TO.N,/DAC0_OUT*
X112014000Y-121920000D03*
G04 #@! TO.P,J3,14*
G04 #@! TO.N,/PTC11*
X112014000Y-119380000D03*
G04 #@! TO.P,J3,15*
G04 #@! TO.N,/ADC1_DP1*
X114554000Y-121920000D03*
G04 #@! TO.P,J3,16*
G04 #@! TO.N,/GND*
X114554000Y-119380000D03*
G04 #@! TO.P,J3,17*
G04 #@! TO.N,/PTB20*
X117094000Y-121920000D03*
G04 #@! TO.P,J3,18*
G04 #@! TO.N,/PTD3*
X117094000Y-119380000D03*
G04 #@! TO.P,J3,19*
G04 #@! TO.N,/PTB10*
X119634000Y-121920000D03*
G04 #@! TO.P,J3,20*
G04 #@! TO.N,/PTD2*
X119634000Y-119380000D03*
G04 #@! TO.P,J3,21*
G04 #@! TO.N,/GND*
X122174000Y-121920000D03*
G04 #@! TO.P,J3,22*
G04 #@! TO.N,/PTD1*
X122174000Y-119380000D03*
G04 #@! TO.P,J3,23*
G04 #@! TO.N,/PTB11*
X124714000Y-121920000D03*
G04 #@! TO.P,J3,24*
G04 #@! TO.N,/3v3*
X124714000Y-119380000D03*
G04 #@! TO.P,J3,25*
G04 #@! TO.N,/PTE25*
X127254000Y-121920000D03*
G04 #@! TO.P,J3,26*
G04 #@! TO.N,/PTD0*
X127254000Y-119380000D03*
G04 #@! TO.P,J3,27*
G04 #@! TO.N,/GND*
X129794000Y-121920000D03*
G04 #@! TO.P,J3,28*
G04 #@! TO.N,/PTC9*
X129794000Y-119380000D03*
G04 #@! TO.P,J3,29*
G04 #@! TO.N,/PTE24*
X132334000Y-121920000D03*
G04 #@! TO.P,J3,30*
G04 #@! TO.N,/PTB18*
X132334000Y-119380000D03*
G04 #@! TO.P,J3,31*
G04 #@! TO.N,/Rx3*
X134874000Y-121920000D03*
G04 #@! TO.P,J3,32*
G04 #@! TO.N,/GND*
X134874000Y-119380000D03*
G04 #@! TO.P,J3,33*
G04 #@! TO.N,/Tx3*
X137414000Y-121920000D03*
G04 #@! TO.P,J3,34*
G04 #@! TO.N,/PTB19*
X137414000Y-119380000D03*
G04 #@! TO.P,J3,35*
G04 #@! TO.N,/GND*
X139954000Y-121920000D03*
G04 #@! TO.P,J3,36*
G04 #@! TO.N,/PTA2*
X139954000Y-119380000D03*
G04 #@! TO.P,J3,37*
G04 #@! TO.N,/5V*
X142494000Y-121920000D03*
G04 #@! TO.P,J3,38*
G04 #@! TO.N,/PTA1*
X142494000Y-119380000D03*
G04 #@! TO.P,J3,39*
G04 #@! TO.N,/5V*
X145034000Y-121920000D03*
G04 #@! TO.P,J3,40*
G04 #@! TO.N,/3v3*
X145034000Y-119380000D03*
G04 #@! TD*
D10*
G04 #@! TO.P,J1,1*
G04 #@! TO.N,Net-(J1-Pad1)*
X96774000Y-76200000D03*
D11*
G04 #@! TO.P,J1,2*
G04 #@! TO.N,Net-(J1-Pad2)*
X99314000Y-76200000D03*
G04 #@! TO.P,J1,3*
G04 #@! TO.N,/3v3*
X96774000Y-78740000D03*
G04 #@! TO.P,J1,4*
G04 #@! TO.N,Net-(J1-Pad4)*
X99314000Y-78740000D03*
G04 #@! TO.P,J1,5*
G04 #@! TO.N,/RST*
X96774000Y-81280000D03*
G04 #@! TO.P,J1,6*
G04 #@! TO.N,Net-(J1-Pad6)*
X99314000Y-81280000D03*
G04 #@! TO.P,J1,7*
G04 #@! TO.N,/3v3*
X96774000Y-83820000D03*
G04 #@! TO.P,J1,8*
G04 #@! TO.N,Net-(J1-Pad8)*
X99314000Y-83820000D03*
G04 #@! TO.P,J1,9*
G04 #@! TO.N,Net-(J1-Pad9)*
X96774000Y-86360000D03*
G04 #@! TO.P,J1,10*
G04 #@! TO.N,Net-(J1-Pad10)*
X99314000Y-86360000D03*
G04 #@! TO.P,J1,11*
G04 #@! TO.N,/GND*
X96774000Y-88900000D03*
G04 #@! TO.P,J1,12*
G04 #@! TO.N,Net-(J1-Pad12)*
X99314000Y-88900000D03*
G04 #@! TO.P,J1,13*
G04 #@! TO.N,/GND*
X96774000Y-91440000D03*
G04 #@! TO.P,J1,14*
G04 #@! TO.N,Net-(J1-Pad14)*
X99314000Y-91440000D03*
G04 #@! TO.P,J1,15*
G04 #@! TO.N,/5V*
X96774000Y-93980000D03*
G04 #@! TO.P,J1,16*
G04 #@! TO.N,Net-(J1-Pad16)*
X99314000Y-93980000D03*
G04 #@! TD*
D10*
G04 #@! TO.P,J2,1*
G04 #@! TO.N,/PTB2*
X96774000Y-99060000D03*
D11*
G04 #@! TO.P,J2,2*
G04 #@! TO.N,Net-(J2-Pad2)*
X99314000Y-99060000D03*
G04 #@! TO.P,J2,3*
G04 #@! TO.N,/PTB3*
X96774000Y-101600000D03*
G04 #@! TO.P,J2,4*
G04 #@! TO.N,Net-(J2-Pad4)*
X99314000Y-101600000D03*
G04 #@! TO.P,J2,5*
G04 #@! TO.N,/PTB10*
X96774000Y-104140000D03*
G04 #@! TO.P,J2,6*
G04 #@! TO.N,/ADC1_DP1*
X99314000Y-104140000D03*
G04 #@! TO.P,J2,7*
G04 #@! TO.N,/PTB11*
X96774000Y-106680000D03*
G04 #@! TO.P,J2,8*
G04 #@! TO.N,Net-(J2-Pad8)*
X99314000Y-106680000D03*
G04 #@! TO.P,J2,9*
G04 #@! TO.N,/PTC11*
X96774000Y-109220000D03*
G04 #@! TO.P,J2,10*
G04 #@! TO.N,/PTB20*
X99314000Y-109220000D03*
G04 #@! TO.P,J2,11*
G04 #@! TO.N,/PTC10*
X96774000Y-111760000D03*
G04 #@! TO.P,J2,12*
G04 #@! TO.N,/DAC0_OUT*
X99314000Y-111760000D03*
G04 #@! TD*
D10*
G04 #@! TO.P,J4,1*
G04 #@! TO.N,Net-(J4-Pad1)*
X142494000Y-67056000D03*
D11*
G04 #@! TO.P,J4,2*
G04 #@! TO.N,/PTE24*
X145034000Y-67056000D03*
G04 #@! TO.P,J4,3*
G04 #@! TO.N,Net-(J4-Pad3)*
X142494000Y-69596000D03*
G04 #@! TO.P,J4,4*
G04 #@! TO.N,/PTE25*
X145034000Y-69596000D03*
G04 #@! TO.P,J4,5*
G04 #@! TO.N,Net-(J4-Pad5)*
X142494000Y-72136000D03*
G04 #@! TO.P,J4,6*
G04 #@! TO.N,Net-(J4-Pad6)*
X145034000Y-72136000D03*
G04 #@! TO.P,J4,7*
G04 #@! TO.N,Net-(J4-Pad7)*
X142494000Y-74676000D03*
G04 #@! TO.P,J4,8*
G04 #@! TO.N,/GND*
X145034000Y-74676000D03*
G04 #@! TO.P,J4,9*
G04 #@! TO.N,/ADC1_DP0*
X142494000Y-77216000D03*
G04 #@! TO.P,J4,10*
G04 #@! TO.N,/PTD1*
X145034000Y-77216000D03*
G04 #@! TO.P,J4,11*
G04 #@! TO.N,Net-(J4-Pad11)*
X142494000Y-79756000D03*
G04 #@! TO.P,J4,12*
G04 #@! TO.N,/PTD3*
X145034000Y-79756000D03*
G04 #@! TO.P,J4,13*
G04 #@! TO.N,Net-(J4-Pad13)*
X142494000Y-82296000D03*
G04 #@! TO.P,J4,14*
G04 #@! TO.N,/PTD2*
X145034000Y-82296000D03*
G04 #@! TO.P,J4,15*
G04 #@! TO.N,/AO*
X142494000Y-84836000D03*
G04 #@! TO.P,J4,16*
G04 #@! TO.N,/PTD0*
X145034000Y-84836000D03*
G04 #@! TO.P,J4,17*
G04 #@! TO.N,/GND*
X142494000Y-87376000D03*
G04 #@! TO.P,J4,18*
G04 #@! TO.N,/B2*
X145034000Y-87376000D03*
G04 #@! TO.P,J4,19*
G04 #@! TO.N,Net-(J4-Pad19)*
X142494000Y-89916000D03*
G04 #@! TO.P,J4,20*
G04 #@! TO.N,Net-(J4-Pad20)*
X145034000Y-89916000D03*
G04 #@! TD*
D10*
G04 #@! TO.P,J5,1*
G04 #@! TO.N,Net-(J5-Pad1)*
X142494000Y-93980000D03*
D11*
G04 #@! TO.P,J5,2*
G04 #@! TO.N,/B1*
X145034000Y-93980000D03*
G04 #@! TO.P,J5,3*
G04 #@! TO.N,Net-(J5-Pad3)*
X142494000Y-96520000D03*
G04 #@! TO.P,J5,4*
G04 #@! TO.N,/A2*
X145034000Y-96520000D03*
G04 #@! TO.P,J5,5*
G04 #@! TO.N,Net-(J5-Pad5)*
X142494000Y-99060000D03*
G04 #@! TO.P,J5,6*
G04 #@! TO.N,/PTA2*
X145034000Y-99060000D03*
G04 #@! TO.P,J5,7*
G04 #@! TO.N,/PTC9*
X142494000Y-101600000D03*
G04 #@! TO.P,J5,8*
G04 #@! TO.N,/SI*
X145034000Y-101600000D03*
G04 #@! TO.P,J5,9*
G04 #@! TO.N,/SIG*
X142494000Y-104140000D03*
G04 #@! TO.P,J5,10*
G04 #@! TO.N,/PTA1*
X145034000Y-104140000D03*
G04 #@! TO.P,J5,11*
G04 #@! TO.N,/A1*
X142494000Y-106680000D03*
G04 #@! TO.P,J5,12*
G04 #@! TO.N,/CLK*
X145034000Y-106680000D03*
G04 #@! TO.P,J5,13*
G04 #@! TO.N,/PTB19*
X142494000Y-109220000D03*
G04 #@! TO.P,J5,14*
G04 #@! TO.N,/Tx3*
X145034000Y-109220000D03*
G04 #@! TO.P,J5,15*
G04 #@! TO.N,/PTB18*
X142494000Y-111760000D03*
G04 #@! TO.P,J5,16*
G04 #@! TO.N,/Rx3*
X145034000Y-111760000D03*
G04 #@! TD*
D10*
G04 #@! TO.P,J6,1*
G04 #@! TO.N,/GND*
X118618000Y-57912000D03*
D11*
G04 #@! TO.P,J6,2*
G04 #@! TO.N,/5V*
X116078000Y-57912000D03*
G04 #@! TO.P,J6,3*
G04 #@! TO.N,/CLK*
X113538000Y-57912000D03*
G04 #@! TO.P,J6,4*
G04 #@! TO.N,/SI*
X110998000Y-57912000D03*
G04 #@! TO.P,J6,5*
G04 #@! TO.N,/AO*
X108458000Y-57912000D03*
G04 #@! TD*
D10*
G04 #@! TO.P,J7,1*
G04 #@! TO.N,/GND*
X97028000Y-57912000D03*
D11*
G04 #@! TO.P,J7,2*
G04 #@! TO.N,/5V*
X99568000Y-57912000D03*
G04 #@! TO.P,J7,3*
G04 #@! TO.N,/SIG*
X102108000Y-57912000D03*
G04 #@! TD*
D12*
G04 #@! TO.N,/5V*
X149352000Y-119126000D03*
X146558000Y-117856000D03*
G04 #@! TO.N,/GND*
X106934000Y-116078000D03*
X104902000Y-116078000D03*
X133604000Y-109474000D03*
X111760000Y-115383919D03*
X113284000Y-112776000D03*
X115062000Y-110998000D03*
X115361999Y-107233999D03*
X102870000Y-98044000D03*
X104902000Y-95758000D03*
X105664000Y-108966000D03*
X141318999Y-117442999D03*
X141986000Y-114554000D03*
G04 #@! TO.N,/5V*
X151213736Y-121412000D03*
G04 #@! TO.N,/A1*
X148336000Y-110236000D03*
G04 #@! TO.N,/AO*
X137160000Y-76454000D03*
X137922000Y-80772000D03*
G04 #@! TO.N,/CLK*
X134112000Y-103124000D03*
X131064000Y-100076000D03*
X130764001Y-83820000D03*
X128016000Y-81071999D03*
X113538000Y-70612000D03*
G04 #@! TO.N,/SIG*
X125730000Y-86868000D03*
X131064000Y-104140000D03*
X138176000Y-104140000D03*
G04 #@! TO.N,/SI*
X131064000Y-82042000D03*
X128016000Y-78994000D03*
X110998000Y-65278000D03*
G04 #@! TO.N,/3v3*
X136144000Y-120650000D03*
G04 #@! TO.N,/PTB10*
X108966000Y-106934000D03*
G04 #@! TO.N,/ADC1_DP1*
X106680000Y-104648000D03*
G04 #@! TO.N,/ADC1_DP0*
X105664000Y-117856000D03*
G04 #@! TO.N,/PTD3*
X117094000Y-105918000D03*
X117094000Y-113792000D03*
G04 #@! TO.N,/PTD2*
X119634000Y-105956998D03*
G04 #@! TO.N,/PTD1*
X122212998Y-98298000D03*
G04 #@! TO.N,/PTE25*
X127000000Y-91440000D03*
X124206000Y-94234000D03*
X123906001Y-114254001D03*
G04 #@! TO.N,/PTE24*
X132842000Y-75184000D03*
X132542001Y-83520001D03*
X131064000Y-117602000D03*
G04 #@! TO.N,/PTA2*
X149606000Y-116332000D03*
G04 #@! TD*
D13*
G04 #@! TO.N,/GND*
X102870000Y-98044000D02*
X102870000Y-98044000D01*
X102870000Y-97790000D02*
X104902000Y-95758000D01*
G04 #@! TO.N,/5V*
X146558000Y-117856000D02*
X146558000Y-117856000D01*
X148082000Y-117856000D02*
X149352000Y-119126000D01*
X149352000Y-119126000D02*
X149352000Y-119126000D01*
X146558000Y-117856000D02*
X148082000Y-117856000D01*
G04 #@! TO.N,/GND*
X109474000Y-121920000D02*
X110744000Y-120650000D01*
X106934000Y-116078000D02*
X106934000Y-116078000D01*
X103218999Y-117761001D02*
X104902000Y-116078000D01*
X103218999Y-120744999D02*
X103218999Y-117761001D01*
X114554000Y-118177919D02*
X111760000Y-115383919D01*
X114554000Y-119380000D02*
X114554000Y-118177919D01*
X111760000Y-115383919D02*
X111760000Y-115383919D01*
X111760000Y-115383919D02*
X111760000Y-114300000D01*
X111760000Y-114300000D02*
X113284000Y-112776000D01*
X113284000Y-112776000D02*
X113284000Y-112776000D01*
X115361999Y-110698001D02*
X115361999Y-107233999D01*
X115062000Y-110998000D02*
X115361999Y-110698001D01*
X115361999Y-107233999D02*
X115361999Y-107233999D01*
X102870000Y-98044000D02*
X102870000Y-97790000D01*
X104902000Y-95758000D02*
X104902000Y-95758000D01*
X103544001Y-121070001D02*
X104394000Y-121920000D01*
X103218999Y-120744999D02*
X103544001Y-121070001D01*
X98138999Y-120744999D02*
X103218999Y-120744999D01*
X96774000Y-119380000D02*
X98138999Y-120744999D01*
X143343999Y-86526001D02*
X142494000Y-87376000D01*
X143669001Y-86200999D02*
X143343999Y-86526001D01*
X143669001Y-76040999D02*
X143669001Y-86200999D01*
X145034000Y-74676000D02*
X143669001Y-76040999D01*
X110744000Y-120650000D02*
X110744000Y-118364000D01*
X108458000Y-116078000D02*
X106934000Y-116078000D01*
X110744000Y-118364000D02*
X108458000Y-116078000D01*
X107233999Y-113497407D02*
X105664000Y-111927408D01*
X106934000Y-116078000D02*
X107233999Y-115778001D01*
X107233999Y-115778001D02*
X107233999Y-113497407D01*
X105664000Y-111927408D02*
X105664000Y-108966000D01*
X105664000Y-108966000D02*
X105664000Y-108966000D01*
X141318999Y-120555001D02*
X141318999Y-117442999D01*
X139954000Y-121920000D02*
X141318999Y-120555001D01*
X141318999Y-117442999D02*
X141224000Y-117348000D01*
X141986000Y-114554000D02*
X141986000Y-114554000D01*
X134874000Y-119380000D02*
X138365795Y-115888205D01*
X141478000Y-115062000D02*
X141986000Y-114554000D01*
X140333590Y-115062000D02*
X141478000Y-115062000D01*
X139507385Y-115888205D02*
X140333590Y-115062000D01*
X138365795Y-115888205D02*
X139507385Y-115888205D01*
X133903999Y-109773999D02*
X133903999Y-110281999D01*
X133604000Y-109474000D02*
X133903999Y-109773999D01*
X138684000Y-115062000D02*
X140333590Y-115062000D01*
X133903999Y-110281999D02*
X138684000Y-115062000D01*
G04 #@! TO.N,/5V*
X99568000Y-57912000D02*
X99568000Y-60198000D01*
G04 #@! TO.N,/A1*
X147631990Y-109531990D02*
X148336000Y-110236000D01*
X147084992Y-109531990D02*
X147631990Y-109531990D01*
X145408003Y-107855001D02*
X147084992Y-109531990D01*
X142494000Y-106680000D02*
X143669001Y-107855001D01*
X143669001Y-107855001D02*
X145408003Y-107855001D01*
G04 #@! TO.N,/A2*
X105243999Y-120229999D02*
X104394000Y-119380000D01*
X105569001Y-120555001D02*
X105243999Y-120229999D01*
X150231001Y-101717001D02*
X150231001Y-119770999D01*
X145034000Y-96520000D02*
X150231001Y-101717001D01*
X150231001Y-119770999D02*
X146906999Y-123095001D01*
X146906999Y-123095001D02*
X106331001Y-123095001D01*
X106331001Y-123095001D02*
X105569001Y-122333001D01*
X105569001Y-122333001D02*
X105569001Y-120555001D01*
G04 #@! TO.N,/B2*
X96774000Y-123020000D02*
X97452000Y-123698000D01*
X96774000Y-121920000D02*
X96774000Y-123020000D01*
X146940410Y-123698000D02*
X150876000Y-119762410D01*
X97452000Y-123698000D02*
X146940410Y-123698000D01*
X150876000Y-93218000D02*
X145034000Y-87376000D01*
X150876000Y-119762410D02*
X150876000Y-93218000D01*
G04 #@! TO.N,/AO*
X108458000Y-59114081D02*
X125222000Y-75878081D01*
X108458000Y-57912000D02*
X108458000Y-59114081D01*
X125222000Y-75878081D02*
X136584081Y-75878081D01*
X136584081Y-75878081D02*
X137160000Y-76454000D01*
X137160000Y-76454000D02*
X137160000Y-76454000D01*
X138430000Y-80772000D02*
X142494000Y-84836000D01*
X137922000Y-80772000D02*
X138430000Y-80772000D01*
G04 #@! TO.N,/CLK*
X143669001Y-105315001D02*
X136303001Y-105315001D01*
X145034000Y-106680000D02*
X143669001Y-105315001D01*
X136303001Y-105315001D02*
X134112000Y-103124000D01*
X134112000Y-103124000D02*
X134112000Y-103124000D01*
X130764001Y-99776001D02*
X130764001Y-83820000D01*
X131064000Y-100076000D02*
X130764001Y-99776001D01*
X130764001Y-83820000D02*
X130764001Y-83774001D01*
X128016000Y-81071999D02*
X123997999Y-81071999D01*
X123997999Y-81071999D02*
X113538000Y-70612000D01*
X113538000Y-70612000D02*
X113538000Y-70612000D01*
G04 #@! TO.N,/SIG*
X125730000Y-86868000D02*
X125730000Y-98806000D01*
X125730000Y-98806000D02*
X131064000Y-104140000D01*
X131064000Y-104140000D02*
X131064000Y-104140000D01*
X138176000Y-104140000D02*
X142494000Y-104140000D01*
G04 #@! TO.N,/SI*
X143669001Y-100235001D02*
X141129001Y-100235001D01*
X145034000Y-101600000D02*
X143669001Y-100235001D01*
X141129001Y-100235001D02*
X134366000Y-93472000D01*
X134366000Y-93472000D02*
X134366000Y-83312000D01*
X134366000Y-83312000D02*
X133096000Y-82042000D01*
X133096000Y-82042000D02*
X131064000Y-82042000D01*
X131064000Y-82042000D02*
X131064000Y-82042000D01*
X128016000Y-78994000D02*
X124714000Y-78994000D01*
X124714000Y-78994000D02*
X110998000Y-65278000D01*
X110998000Y-65278000D02*
X110998000Y-65278000D01*
G04 #@! TO.N,/3v3*
X125984000Y-120650000D02*
X124714000Y-119380000D01*
X96774000Y-83820000D02*
X95250000Y-82296000D01*
X95250000Y-80264000D02*
X96774000Y-78740000D01*
X95250000Y-82296000D02*
X95250000Y-80264000D01*
X125984000Y-120650000D02*
X133604000Y-120650000D01*
X133604000Y-120650000D02*
X134874000Y-120650000D01*
X134874000Y-120650000D02*
X135518999Y-120650000D01*
X135518999Y-120650000D02*
X136144000Y-120650000D01*
X136144000Y-120650000D02*
X136144000Y-120650000D01*
G04 #@! TO.N,/PTB3*
X101004001Y-118530001D02*
X101854000Y-119380000D01*
X98138999Y-115664999D02*
X101004001Y-118530001D01*
X98138999Y-102964999D02*
X98138999Y-115664999D01*
X96774000Y-101600000D02*
X98138999Y-102964999D01*
G04 #@! TO.N,/PTB10*
X118784001Y-121070001D02*
X119634000Y-121920000D01*
X118458999Y-120744999D02*
X118784001Y-121070001D01*
X118458999Y-116851263D02*
X118458999Y-120744999D01*
X108966000Y-107358264D02*
X118458999Y-116851263D01*
X108966000Y-106934000D02*
X108966000Y-107358264D01*
G04 #@! TO.N,/ADC1_DP1*
X106172000Y-111798998D02*
X113378999Y-119005997D01*
X114554000Y-121920000D02*
X114554000Y-121158000D01*
X113340001Y-119044995D02*
X113378999Y-119005997D01*
X113340001Y-119944001D02*
X113340001Y-119044995D01*
X114554000Y-121158000D02*
X113340001Y-119944001D01*
X106172000Y-109383002D02*
X107696000Y-107859002D01*
X106172000Y-111798998D02*
X106172000Y-109383002D01*
X107696000Y-107859002D02*
X107696000Y-105664000D01*
X107696000Y-105664000D02*
X106680000Y-104648000D01*
X106680000Y-104648000D02*
X106680000Y-104648000D01*
G04 #@! TO.N,/ADC1_DP0*
X141291919Y-77216000D02*
X142494000Y-77216000D01*
X105664000Y-117856000D02*
X105963999Y-117556001D01*
X105963999Y-113075999D02*
X104902000Y-112014000D01*
X104902000Y-112014000D02*
X104902000Y-105246998D01*
X104902000Y-105246998D02*
X132932998Y-77216000D01*
X105963999Y-117556001D02*
X105963999Y-113075999D01*
X132932998Y-77216000D02*
X141291919Y-77216000D01*
G04 #@! TO.N,/PTD3*
X117094000Y-105918000D02*
X117094000Y-113792000D01*
X117094000Y-113792000D02*
X117094000Y-113792000D01*
G04 #@! TO.N,/PTD2*
X119634000Y-105956998D02*
X119634000Y-119380000D01*
G04 #@! TO.N,/PTD1*
X122212998Y-119341002D02*
X122174000Y-119380000D01*
X122212998Y-98298000D02*
X122212998Y-119341002D01*
G04 #@! TO.N,/PTE25*
X123906001Y-94533999D02*
X123906001Y-114254001D01*
X124206000Y-94234000D02*
X123906001Y-94533999D01*
X123906001Y-114254001D02*
X123906001Y-114254001D01*
G04 #@! TO.N,/PTE24*
X143669001Y-68420999D02*
X139605001Y-68420999D01*
X145034000Y-67056000D02*
X143669001Y-68420999D01*
X139605001Y-68420999D02*
X132842000Y-75184000D01*
X132842000Y-75184000D02*
X132842000Y-75184000D01*
X132542001Y-83520001D02*
X132542001Y-116123999D01*
X132542001Y-116123999D02*
X131064000Y-117602000D01*
X131064000Y-117602000D02*
X131064000Y-117602000D01*
G04 #@! TO.N,/Tx3*
X143669001Y-110584999D02*
X145034000Y-109220000D01*
X138778999Y-120555001D02*
X138778999Y-118015001D01*
X137414000Y-121920000D02*
X138778999Y-120555001D01*
X140716000Y-116078000D02*
X142494000Y-116078000D01*
X142494000Y-116078000D02*
X143669001Y-114902999D01*
X138778999Y-118015001D02*
X140716000Y-116078000D01*
X143669001Y-114902999D02*
X143669001Y-110584999D01*
G04 #@! TO.N,/PTB19*
X141318999Y-110395001D02*
X142494000Y-109220000D01*
X141318999Y-113378999D02*
X141318999Y-110395001D01*
X143002000Y-114046000D02*
X142748000Y-113792000D01*
X137414000Y-119380000D02*
X138263999Y-118530001D01*
X138263999Y-118530001D02*
X138263999Y-117768001D01*
X142748000Y-113792000D02*
X141732000Y-113792000D01*
X138263999Y-117768001D02*
X140462000Y-115570000D01*
X141732000Y-113792000D02*
X141318999Y-113378999D01*
X140462000Y-115570000D02*
X141986000Y-115570000D01*
X141986000Y-115570000D02*
X143002000Y-114554000D01*
X143002000Y-114554000D02*
X143002000Y-114046000D01*
G04 #@! TO.N,/PTA2*
X149306001Y-116631999D02*
X149606000Y-116332000D01*
X140924001Y-116631999D02*
X149306001Y-116631999D01*
X139954000Y-119380000D02*
X139954000Y-117602000D01*
X139954000Y-117602000D02*
X140924001Y-116631999D01*
G04 #@! TD*
D14*
G04 #@! TO.N,/5V*
G36*
X151949687Y-54866839D02*
X152233819Y-55003277D01*
X152465273Y-55217232D01*
X152623583Y-55489782D01*
X152703701Y-55835435D01*
X152706001Y-55893978D01*
X152706000Y-122628930D01*
X152651161Y-122993687D01*
X152514722Y-123277820D01*
X152300768Y-123509273D01*
X152028219Y-123667583D01*
X151682566Y-123747701D01*
X151624047Y-123750000D01*
X147963211Y-123750000D01*
X151360473Y-120352739D01*
X151423929Y-120310339D01*
X151499613Y-120197070D01*
X151591904Y-120058948D01*
X151609531Y-119970329D01*
X151636000Y-119837262D01*
X151636000Y-119837258D01*
X151650888Y-119762410D01*
X151636000Y-119687562D01*
X151636000Y-93292848D01*
X151650888Y-93218000D01*
X151636000Y-93143152D01*
X151636000Y-93143148D01*
X151591904Y-92921463D01*
X151423929Y-92670071D01*
X151360473Y-92627671D01*
X146475209Y-87742408D01*
X146548092Y-87376000D01*
X146432839Y-86796582D01*
X146104625Y-86305375D01*
X145806239Y-86106000D01*
X146104625Y-85906625D01*
X146432839Y-85415418D01*
X146548092Y-84836000D01*
X146432839Y-84256582D01*
X146104625Y-83765375D01*
X145806239Y-83566000D01*
X146104625Y-83366625D01*
X146432839Y-82875418D01*
X146548092Y-82296000D01*
X146432839Y-81716582D01*
X146104625Y-81225375D01*
X145806239Y-81026000D01*
X146104625Y-80826625D01*
X146432839Y-80335418D01*
X146548092Y-79756000D01*
X146432839Y-79176582D01*
X146104625Y-78685375D01*
X145806239Y-78486000D01*
X146104625Y-78286625D01*
X146432839Y-77795418D01*
X146548092Y-77216000D01*
X146432839Y-76636582D01*
X146104625Y-76145375D01*
X145806239Y-75946000D01*
X146104625Y-75746625D01*
X146432839Y-75255418D01*
X146548092Y-74676000D01*
X146432839Y-74096582D01*
X146104625Y-73605375D01*
X145806239Y-73406000D01*
X146104625Y-73206625D01*
X146432839Y-72715418D01*
X146548092Y-72136000D01*
X146432839Y-71556582D01*
X146231435Y-71255159D01*
X147963000Y-71255159D01*
X147963000Y-72044841D01*
X148265199Y-72774412D01*
X148823588Y-73332801D01*
X149553159Y-73635000D01*
X150342841Y-73635000D01*
X151072412Y-73332801D01*
X151630801Y-72774412D01*
X151933000Y-72044841D01*
X151933000Y-71255159D01*
X151630801Y-70525588D01*
X151072412Y-69967199D01*
X150342841Y-69665000D01*
X149553159Y-69665000D01*
X148823588Y-69967199D01*
X148265199Y-70525588D01*
X147963000Y-71255159D01*
X146231435Y-71255159D01*
X146104625Y-71065375D01*
X145806239Y-70866000D01*
X146104625Y-70666625D01*
X146432839Y-70175418D01*
X146548092Y-69596000D01*
X146432839Y-69016582D01*
X146104625Y-68525375D01*
X145806239Y-68326000D01*
X146104625Y-68126625D01*
X146432839Y-67635418D01*
X146548092Y-67056000D01*
X146432839Y-66476582D01*
X146104625Y-65985375D01*
X145613418Y-65657161D01*
X145180256Y-65571000D01*
X144887744Y-65571000D01*
X144454582Y-65657161D01*
X143963375Y-65985375D01*
X143951184Y-66003619D01*
X143942157Y-65958235D01*
X143801809Y-65748191D01*
X143591765Y-65607843D01*
X143344000Y-65558560D01*
X141644000Y-65558560D01*
X141396235Y-65607843D01*
X141186191Y-65748191D01*
X141045843Y-65958235D01*
X140996560Y-66206000D01*
X140996560Y-67660999D01*
X139679849Y-67660999D01*
X139605001Y-67646111D01*
X139530153Y-67660999D01*
X139530149Y-67660999D01*
X139356606Y-67695519D01*
X139308463Y-67705095D01*
X139121419Y-67830075D01*
X139057072Y-67873070D01*
X139014672Y-67936526D01*
X132702199Y-74249000D01*
X132656017Y-74249000D01*
X132312365Y-74391345D01*
X132049345Y-74654365D01*
X131907000Y-74998017D01*
X131907000Y-75118081D01*
X125536802Y-75118081D01*
X109452326Y-59033606D01*
X109528625Y-58982625D01*
X109728000Y-58684239D01*
X109927375Y-58982625D01*
X110418582Y-59310839D01*
X110851744Y-59397000D01*
X111144256Y-59397000D01*
X111577418Y-59310839D01*
X112068625Y-58982625D01*
X112268000Y-58684239D01*
X112467375Y-58982625D01*
X112958582Y-59310839D01*
X113391744Y-59397000D01*
X113684256Y-59397000D01*
X114117418Y-59310839D01*
X114608625Y-58982625D01*
X114821843Y-58663522D01*
X114882817Y-58793358D01*
X115311076Y-59183645D01*
X115721110Y-59353476D01*
X115951000Y-59232155D01*
X115951000Y-58039000D01*
X115931000Y-58039000D01*
X115931000Y-57785000D01*
X115951000Y-57785000D01*
X115951000Y-56591845D01*
X116205000Y-56591845D01*
X116205000Y-57785000D01*
X116225000Y-57785000D01*
X116225000Y-58039000D01*
X116205000Y-58039000D01*
X116205000Y-59232155D01*
X116434890Y-59353476D01*
X116844924Y-59183645D01*
X117149261Y-58906292D01*
X117169843Y-59009765D01*
X117310191Y-59219809D01*
X117520235Y-59360157D01*
X117768000Y-59409440D01*
X119468000Y-59409440D01*
X119715765Y-59360157D01*
X119925809Y-59219809D01*
X120066157Y-59009765D01*
X120115440Y-58762000D01*
X120115440Y-57062000D01*
X120066157Y-56814235D01*
X119925809Y-56604191D01*
X119715765Y-56463843D01*
X119468000Y-56414560D01*
X117768000Y-56414560D01*
X117520235Y-56463843D01*
X117310191Y-56604191D01*
X117169843Y-56814235D01*
X117149261Y-56917708D01*
X116844924Y-56640355D01*
X116434890Y-56470524D01*
X116205000Y-56591845D01*
X115951000Y-56591845D01*
X115721110Y-56470524D01*
X115311076Y-56640355D01*
X114882817Y-57030642D01*
X114821843Y-57160478D01*
X114608625Y-56841375D01*
X114117418Y-56513161D01*
X113684256Y-56427000D01*
X113391744Y-56427000D01*
X112958582Y-56513161D01*
X112467375Y-56841375D01*
X112268000Y-57139761D01*
X112068625Y-56841375D01*
X111577418Y-56513161D01*
X111144256Y-56427000D01*
X110851744Y-56427000D01*
X110418582Y-56513161D01*
X109927375Y-56841375D01*
X109728000Y-57139761D01*
X109528625Y-56841375D01*
X109037418Y-56513161D01*
X108604256Y-56427000D01*
X108311744Y-56427000D01*
X107878582Y-56513161D01*
X107387375Y-56841375D01*
X107059161Y-57332582D01*
X106943908Y-57912000D01*
X107059161Y-58491418D01*
X107387375Y-58982625D01*
X107698287Y-59190370D01*
X107742097Y-59410618D01*
X107910072Y-59662010D01*
X107973528Y-59704410D01*
X124631670Y-76362553D01*
X124674071Y-76426010D01*
X124925463Y-76593985D01*
X125147148Y-76638081D01*
X125147152Y-76638081D01*
X125221999Y-76652969D01*
X125296846Y-76638081D01*
X132429952Y-76638081D01*
X132385069Y-76668071D01*
X132342669Y-76731527D01*
X128670244Y-80403953D01*
X128545635Y-80279344D01*
X128201983Y-80136999D01*
X127830017Y-80136999D01*
X127486365Y-80279344D01*
X127453710Y-80311999D01*
X124312802Y-80311999D01*
X114473000Y-70472199D01*
X114473000Y-70426017D01*
X114330655Y-70082365D01*
X114067635Y-69819345D01*
X113723983Y-69677000D01*
X113352017Y-69677000D01*
X113008365Y-69819345D01*
X112745345Y-70082365D01*
X112603000Y-70426017D01*
X112603000Y-70797983D01*
X112745345Y-71141635D01*
X113008365Y-71404655D01*
X113352017Y-71547000D01*
X113398199Y-71547000D01*
X123407672Y-81556475D01*
X123450070Y-81619928D01*
X123513523Y-81662326D01*
X123513525Y-81662328D01*
X123637946Y-81745463D01*
X123701462Y-81787903D01*
X123923147Y-81831999D01*
X123923151Y-81831999D01*
X123997998Y-81846887D01*
X124072845Y-81831999D01*
X127242197Y-81831999D01*
X104417528Y-104656669D01*
X104354072Y-104699069D01*
X104311672Y-104762525D01*
X104311671Y-104762526D01*
X104186097Y-104950461D01*
X104127112Y-105246998D01*
X104142001Y-105321850D01*
X104142000Y-111939153D01*
X104127112Y-112014000D01*
X104142000Y-112088847D01*
X104142000Y-112088851D01*
X104186096Y-112310536D01*
X104354071Y-112561929D01*
X104417529Y-112604331D01*
X105204000Y-113390802D01*
X105204000Y-115191056D01*
X105087983Y-115143000D01*
X104716017Y-115143000D01*
X104372365Y-115285345D01*
X104109345Y-115548365D01*
X103967000Y-115892017D01*
X103967000Y-115938198D01*
X102734527Y-117170672D01*
X102671071Y-117213072D01*
X102628671Y-117276528D01*
X102628670Y-117276529D01*
X102503096Y-117464464D01*
X102444111Y-117761001D01*
X102459000Y-117835853D01*
X102459000Y-117998254D01*
X102433418Y-117981161D01*
X102000256Y-117895000D01*
X101707744Y-117895000D01*
X101487593Y-117938791D01*
X98898999Y-115350198D01*
X98898999Y-113191543D01*
X99167744Y-113245000D01*
X99460256Y-113245000D01*
X99893418Y-113158839D01*
X100384625Y-112830625D01*
X100712839Y-112339418D01*
X100828092Y-111760000D01*
X100712839Y-111180582D01*
X100384625Y-110689375D01*
X100086239Y-110490000D01*
X100384625Y-110290625D01*
X100712839Y-109799418D01*
X100828092Y-109220000D01*
X100712839Y-108640582D01*
X100384625Y-108149375D01*
X100086239Y-107950000D01*
X100384625Y-107750625D01*
X100712839Y-107259418D01*
X100828092Y-106680000D01*
X100712839Y-106100582D01*
X100384625Y-105609375D01*
X100086239Y-105410000D01*
X100384625Y-105210625D01*
X100712839Y-104719418D01*
X100828092Y-104140000D01*
X100712839Y-103560582D01*
X100384625Y-103069375D01*
X100086239Y-102870000D01*
X100384625Y-102670625D01*
X100712839Y-102179418D01*
X100828092Y-101600000D01*
X100712839Y-101020582D01*
X100384625Y-100529375D01*
X100086239Y-100330000D01*
X100384625Y-100130625D01*
X100712839Y-99639418D01*
X100828092Y-99060000D01*
X100712839Y-98480582D01*
X100384625Y-97989375D01*
X100188034Y-97858017D01*
X101935000Y-97858017D01*
X101935000Y-98229983D01*
X102077345Y-98573635D01*
X102340365Y-98836655D01*
X102684017Y-98979000D01*
X103055983Y-98979000D01*
X103399635Y-98836655D01*
X103662655Y-98573635D01*
X103805000Y-98229983D01*
X103805000Y-97929801D01*
X105041802Y-96693000D01*
X105087983Y-96693000D01*
X105431635Y-96550655D01*
X105694655Y-96287635D01*
X105837000Y-95943983D01*
X105837000Y-95572017D01*
X105694655Y-95228365D01*
X105431635Y-94965345D01*
X105087983Y-94823000D01*
X104716017Y-94823000D01*
X104372365Y-94965345D01*
X104109345Y-95228365D01*
X103967000Y-95572017D01*
X103967000Y-95618198D01*
X102385529Y-97199670D01*
X102322071Y-97242071D01*
X102266558Y-97325152D01*
X102077345Y-97514365D01*
X101935000Y-97858017D01*
X100188034Y-97858017D01*
X99893418Y-97661161D01*
X99460256Y-97575000D01*
X99167744Y-97575000D01*
X98734582Y-97661161D01*
X98243375Y-97989375D01*
X98231184Y-98007619D01*
X98222157Y-97962235D01*
X98081809Y-97752191D01*
X97871765Y-97611843D01*
X97624000Y-97562560D01*
X95924000Y-97562560D01*
X95676235Y-97611843D01*
X95466191Y-97752191D01*
X95325843Y-97962235D01*
X95276560Y-98210000D01*
X95276560Y-99910000D01*
X95325843Y-100157765D01*
X95466191Y-100367809D01*
X95676235Y-100508157D01*
X95721619Y-100517184D01*
X95703375Y-100529375D01*
X95375161Y-101020582D01*
X95259908Y-101600000D01*
X95375161Y-102179418D01*
X95703375Y-102670625D01*
X96001761Y-102870000D01*
X95703375Y-103069375D01*
X95375161Y-103560582D01*
X95259908Y-104140000D01*
X95375161Y-104719418D01*
X95703375Y-105210625D01*
X96001761Y-105410000D01*
X95703375Y-105609375D01*
X95375161Y-106100582D01*
X95259908Y-106680000D01*
X95375161Y-107259418D01*
X95703375Y-107750625D01*
X96001761Y-107950000D01*
X95703375Y-108149375D01*
X95375161Y-108640582D01*
X95259908Y-109220000D01*
X95375161Y-109799418D01*
X95703375Y-110290625D01*
X96001761Y-110490000D01*
X95703375Y-110689375D01*
X95375161Y-111180582D01*
X95259908Y-111760000D01*
X95375161Y-112339418D01*
X95703375Y-112830625D01*
X96194582Y-113158839D01*
X96627744Y-113245000D01*
X96920256Y-113245000D01*
X97353418Y-113158839D01*
X97379000Y-113141746D01*
X97379000Y-115590147D01*
X97364111Y-115664999D01*
X97379000Y-115739851D01*
X97396427Y-115827462D01*
X97423096Y-115961536D01*
X97544961Y-116143919D01*
X97591071Y-116212928D01*
X97654527Y-116255328D01*
X99294198Y-117895000D01*
X99167744Y-117895000D01*
X98734582Y-117981161D01*
X98243375Y-118309375D01*
X98044000Y-118607761D01*
X97844625Y-118309375D01*
X97353418Y-117981161D01*
X96920256Y-117895000D01*
X96627744Y-117895000D01*
X96194582Y-117981161D01*
X95703375Y-118309375D01*
X95375161Y-118800582D01*
X95259908Y-119380000D01*
X95375161Y-119959418D01*
X95703375Y-120450625D01*
X95721619Y-120462816D01*
X95676235Y-120471843D01*
X95466191Y-120612191D01*
X95325843Y-120822235D01*
X95276560Y-121070000D01*
X95276560Y-122770000D01*
X95325843Y-123017765D01*
X95466191Y-123227809D01*
X95676235Y-123368157D01*
X95924000Y-123417440D01*
X96125518Y-123417440D01*
X96126491Y-123418895D01*
X96226072Y-123567929D01*
X96289528Y-123610329D01*
X96429199Y-123750000D01*
X90223070Y-123750000D01*
X89858313Y-123695161D01*
X89574180Y-123558722D01*
X89342727Y-123344768D01*
X89184417Y-123072219D01*
X89104299Y-122726566D01*
X89102000Y-122668047D01*
X89102000Y-94336890D01*
X95332524Y-94336890D01*
X95502355Y-94746924D01*
X95892642Y-95175183D01*
X96417108Y-95421486D01*
X96647000Y-95300819D01*
X96647000Y-94107000D01*
X95453845Y-94107000D01*
X95332524Y-94336890D01*
X89102000Y-94336890D01*
X89102000Y-80264000D01*
X94475112Y-80264000D01*
X94490001Y-80338852D01*
X94490000Y-82221153D01*
X94475112Y-82296000D01*
X94490000Y-82370847D01*
X94490000Y-82370851D01*
X94534096Y-82592536D01*
X94702071Y-82843929D01*
X94765530Y-82886331D01*
X95332791Y-83453593D01*
X95259908Y-83820000D01*
X95375161Y-84399418D01*
X95703375Y-84890625D01*
X96001761Y-85090000D01*
X95703375Y-85289375D01*
X95375161Y-85780582D01*
X95259908Y-86360000D01*
X95375161Y-86939418D01*
X95703375Y-87430625D01*
X96001761Y-87630000D01*
X95703375Y-87829375D01*
X95375161Y-88320582D01*
X95259908Y-88900000D01*
X95375161Y-89479418D01*
X95703375Y-89970625D01*
X96001761Y-90170000D01*
X95703375Y-90369375D01*
X95375161Y-90860582D01*
X95259908Y-91440000D01*
X95375161Y-92019418D01*
X95703375Y-92510625D01*
X96022478Y-92723843D01*
X95892642Y-92784817D01*
X95502355Y-93213076D01*
X95332524Y-93623110D01*
X95453845Y-93853000D01*
X96647000Y-93853000D01*
X96647000Y-93833000D01*
X96901000Y-93833000D01*
X96901000Y-93853000D01*
X96921000Y-93853000D01*
X96921000Y-94107000D01*
X96901000Y-94107000D01*
X96901000Y-95300819D01*
X97130892Y-95421486D01*
X97655358Y-95175183D01*
X98042647Y-94750214D01*
X98243375Y-95050625D01*
X98734582Y-95378839D01*
X99167744Y-95465000D01*
X99460256Y-95465000D01*
X99893418Y-95378839D01*
X100384625Y-95050625D01*
X100712839Y-94559418D01*
X100828092Y-93980000D01*
X100712839Y-93400582D01*
X100384625Y-92909375D01*
X100086239Y-92710000D01*
X100384625Y-92510625D01*
X100712839Y-92019418D01*
X100828092Y-91440000D01*
X100712839Y-90860582D01*
X100384625Y-90369375D01*
X100086239Y-90170000D01*
X100384625Y-89970625D01*
X100712839Y-89479418D01*
X100828092Y-88900000D01*
X100712839Y-88320582D01*
X100384625Y-87829375D01*
X100086239Y-87630000D01*
X100384625Y-87430625D01*
X100712839Y-86939418D01*
X100828092Y-86360000D01*
X100712839Y-85780582D01*
X100384625Y-85289375D01*
X100086239Y-85090000D01*
X100384625Y-84890625D01*
X100712839Y-84399418D01*
X100828092Y-83820000D01*
X100712839Y-83240582D01*
X100384625Y-82749375D01*
X100086239Y-82550000D01*
X100384625Y-82350625D01*
X100712839Y-81859418D01*
X100828092Y-81280000D01*
X100712839Y-80700582D01*
X100384625Y-80209375D01*
X100086239Y-80010000D01*
X100384625Y-79810625D01*
X100712839Y-79319418D01*
X100828092Y-78740000D01*
X100712839Y-78160582D01*
X100384625Y-77669375D01*
X100086239Y-77470000D01*
X100384625Y-77270625D01*
X100712839Y-76779418D01*
X100828092Y-76200000D01*
X100712839Y-75620582D01*
X100384625Y-75129375D01*
X99893418Y-74801161D01*
X99460256Y-74715000D01*
X99167744Y-74715000D01*
X98734582Y-74801161D01*
X98243375Y-75129375D01*
X98231184Y-75147619D01*
X98222157Y-75102235D01*
X98081809Y-74892191D01*
X97871765Y-74751843D01*
X97624000Y-74702560D01*
X95924000Y-74702560D01*
X95676235Y-74751843D01*
X95466191Y-74892191D01*
X95325843Y-75102235D01*
X95276560Y-75350000D01*
X95276560Y-77050000D01*
X95325843Y-77297765D01*
X95466191Y-77507809D01*
X95676235Y-77648157D01*
X95721619Y-77657184D01*
X95703375Y-77669375D01*
X95375161Y-78160582D01*
X95259908Y-78740000D01*
X95332791Y-79106407D01*
X94765528Y-79673671D01*
X94702072Y-79716071D01*
X94659672Y-79779527D01*
X94659671Y-79779528D01*
X94534097Y-79967463D01*
X94475112Y-80264000D01*
X89102000Y-80264000D01*
X89102000Y-71255159D01*
X89963000Y-71255159D01*
X89963000Y-72044841D01*
X90265199Y-72774412D01*
X90823588Y-73332801D01*
X91553159Y-73635000D01*
X92342841Y-73635000D01*
X93072412Y-73332801D01*
X93630801Y-72774412D01*
X93933000Y-72044841D01*
X93933000Y-71255159D01*
X93630801Y-70525588D01*
X93072412Y-69967199D01*
X92342841Y-69665000D01*
X91553159Y-69665000D01*
X90823588Y-69967199D01*
X90265199Y-70525588D01*
X89963000Y-71255159D01*
X89102000Y-71255159D01*
X89102000Y-65092017D01*
X110063000Y-65092017D01*
X110063000Y-65463983D01*
X110205345Y-65807635D01*
X110468365Y-66070655D01*
X110812017Y-66213000D01*
X110858199Y-66213000D01*
X124123671Y-79478473D01*
X124166071Y-79541929D01*
X124417463Y-79709904D01*
X124639148Y-79754000D01*
X124639152Y-79754000D01*
X124713999Y-79768888D01*
X124788846Y-79754000D01*
X127453710Y-79754000D01*
X127486365Y-79786655D01*
X127830017Y-79929000D01*
X128201983Y-79929000D01*
X128545635Y-79786655D01*
X128808655Y-79523635D01*
X128951000Y-79179983D01*
X128951000Y-78808017D01*
X128808655Y-78464365D01*
X128545635Y-78201345D01*
X128201983Y-78059000D01*
X127830017Y-78059000D01*
X127486365Y-78201345D01*
X127453710Y-78234000D01*
X125028802Y-78234000D01*
X111933000Y-65138199D01*
X111933000Y-65092017D01*
X111790655Y-64748365D01*
X111527635Y-64485345D01*
X111183983Y-64343000D01*
X110812017Y-64343000D01*
X110468365Y-64485345D01*
X110205345Y-64748365D01*
X110063000Y-65092017D01*
X89102000Y-65092017D01*
X89102000Y-57062000D01*
X95530560Y-57062000D01*
X95530560Y-58762000D01*
X95579843Y-59009765D01*
X95720191Y-59219809D01*
X95930235Y-59360157D01*
X96178000Y-59409440D01*
X97878000Y-59409440D01*
X98125765Y-59360157D01*
X98335809Y-59219809D01*
X98476157Y-59009765D01*
X98496739Y-58906292D01*
X98801076Y-59183645D01*
X99211110Y-59353476D01*
X99441000Y-59232155D01*
X99441000Y-58039000D01*
X99421000Y-58039000D01*
X99421000Y-57785000D01*
X99441000Y-57785000D01*
X99441000Y-56591845D01*
X99695000Y-56591845D01*
X99695000Y-57785000D01*
X99715000Y-57785000D01*
X99715000Y-58039000D01*
X99695000Y-58039000D01*
X99695000Y-59232155D01*
X99924890Y-59353476D01*
X100334924Y-59183645D01*
X100763183Y-58793358D01*
X100824157Y-58663522D01*
X101037375Y-58982625D01*
X101528582Y-59310839D01*
X101961744Y-59397000D01*
X102254256Y-59397000D01*
X102687418Y-59310839D01*
X103178625Y-58982625D01*
X103506839Y-58491418D01*
X103622092Y-57912000D01*
X103506839Y-57332582D01*
X103178625Y-56841375D01*
X102687418Y-56513161D01*
X102254256Y-56427000D01*
X101961744Y-56427000D01*
X101528582Y-56513161D01*
X101037375Y-56841375D01*
X100824157Y-57160478D01*
X100763183Y-57030642D01*
X100334924Y-56640355D01*
X99924890Y-56470524D01*
X99695000Y-56591845D01*
X99441000Y-56591845D01*
X99211110Y-56470524D01*
X98801076Y-56640355D01*
X98496739Y-56917708D01*
X98476157Y-56814235D01*
X98335809Y-56604191D01*
X98125765Y-56463843D01*
X97878000Y-56414560D01*
X96178000Y-56414560D01*
X95930235Y-56463843D01*
X95720191Y-56604191D01*
X95579843Y-56814235D01*
X95530560Y-57062000D01*
X89102000Y-57062000D01*
X89102000Y-55933071D01*
X89156839Y-55568313D01*
X89293277Y-55284181D01*
X89507232Y-55052727D01*
X89779782Y-54894417D01*
X90125435Y-54814299D01*
X90183953Y-54812000D01*
X151584929Y-54812000D01*
X151949687Y-54866839D01*
X151949687Y-54866839D01*
G37*
X151949687Y-54866839D02*
X152233819Y-55003277D01*
X152465273Y-55217232D01*
X152623583Y-55489782D01*
X152703701Y-55835435D01*
X152706001Y-55893978D01*
X152706000Y-122628930D01*
X152651161Y-122993687D01*
X152514722Y-123277820D01*
X152300768Y-123509273D01*
X152028219Y-123667583D01*
X151682566Y-123747701D01*
X151624047Y-123750000D01*
X147963211Y-123750000D01*
X151360473Y-120352739D01*
X151423929Y-120310339D01*
X151499613Y-120197070D01*
X151591904Y-120058948D01*
X151609531Y-119970329D01*
X151636000Y-119837262D01*
X151636000Y-119837258D01*
X151650888Y-119762410D01*
X151636000Y-119687562D01*
X151636000Y-93292848D01*
X151650888Y-93218000D01*
X151636000Y-93143152D01*
X151636000Y-93143148D01*
X151591904Y-92921463D01*
X151423929Y-92670071D01*
X151360473Y-92627671D01*
X146475209Y-87742408D01*
X146548092Y-87376000D01*
X146432839Y-86796582D01*
X146104625Y-86305375D01*
X145806239Y-86106000D01*
X146104625Y-85906625D01*
X146432839Y-85415418D01*
X146548092Y-84836000D01*
X146432839Y-84256582D01*
X146104625Y-83765375D01*
X145806239Y-83566000D01*
X146104625Y-83366625D01*
X146432839Y-82875418D01*
X146548092Y-82296000D01*
X146432839Y-81716582D01*
X146104625Y-81225375D01*
X145806239Y-81026000D01*
X146104625Y-80826625D01*
X146432839Y-80335418D01*
X146548092Y-79756000D01*
X146432839Y-79176582D01*
X146104625Y-78685375D01*
X145806239Y-78486000D01*
X146104625Y-78286625D01*
X146432839Y-77795418D01*
X146548092Y-77216000D01*
X146432839Y-76636582D01*
X146104625Y-76145375D01*
X145806239Y-75946000D01*
X146104625Y-75746625D01*
X146432839Y-75255418D01*
X146548092Y-74676000D01*
X146432839Y-74096582D01*
X146104625Y-73605375D01*
X145806239Y-73406000D01*
X146104625Y-73206625D01*
X146432839Y-72715418D01*
X146548092Y-72136000D01*
X146432839Y-71556582D01*
X146231435Y-71255159D01*
X147963000Y-71255159D01*
X147963000Y-72044841D01*
X148265199Y-72774412D01*
X148823588Y-73332801D01*
X149553159Y-73635000D01*
X150342841Y-73635000D01*
X151072412Y-73332801D01*
X151630801Y-72774412D01*
X151933000Y-72044841D01*
X151933000Y-71255159D01*
X151630801Y-70525588D01*
X151072412Y-69967199D01*
X150342841Y-69665000D01*
X149553159Y-69665000D01*
X148823588Y-69967199D01*
X148265199Y-70525588D01*
X147963000Y-71255159D01*
X146231435Y-71255159D01*
X146104625Y-71065375D01*
X145806239Y-70866000D01*
X146104625Y-70666625D01*
X146432839Y-70175418D01*
X146548092Y-69596000D01*
X146432839Y-69016582D01*
X146104625Y-68525375D01*
X145806239Y-68326000D01*
X146104625Y-68126625D01*
X146432839Y-67635418D01*
X146548092Y-67056000D01*
X146432839Y-66476582D01*
X146104625Y-65985375D01*
X145613418Y-65657161D01*
X145180256Y-65571000D01*
X144887744Y-65571000D01*
X144454582Y-65657161D01*
X143963375Y-65985375D01*
X143951184Y-66003619D01*
X143942157Y-65958235D01*
X143801809Y-65748191D01*
X143591765Y-65607843D01*
X143344000Y-65558560D01*
X141644000Y-65558560D01*
X141396235Y-65607843D01*
X141186191Y-65748191D01*
X141045843Y-65958235D01*
X140996560Y-66206000D01*
X140996560Y-67660999D01*
X139679849Y-67660999D01*
X139605001Y-67646111D01*
X139530153Y-67660999D01*
X139530149Y-67660999D01*
X139356606Y-67695519D01*
X139308463Y-67705095D01*
X139121419Y-67830075D01*
X139057072Y-67873070D01*
X139014672Y-67936526D01*
X132702199Y-74249000D01*
X132656017Y-74249000D01*
X132312365Y-74391345D01*
X132049345Y-74654365D01*
X131907000Y-74998017D01*
X131907000Y-75118081D01*
X125536802Y-75118081D01*
X109452326Y-59033606D01*
X109528625Y-58982625D01*
X109728000Y-58684239D01*
X109927375Y-58982625D01*
X110418582Y-59310839D01*
X110851744Y-59397000D01*
X111144256Y-59397000D01*
X111577418Y-59310839D01*
X112068625Y-58982625D01*
X112268000Y-58684239D01*
X112467375Y-58982625D01*
X112958582Y-59310839D01*
X113391744Y-59397000D01*
X113684256Y-59397000D01*
X114117418Y-59310839D01*
X114608625Y-58982625D01*
X114821843Y-58663522D01*
X114882817Y-58793358D01*
X115311076Y-59183645D01*
X115721110Y-59353476D01*
X115951000Y-59232155D01*
X115951000Y-58039000D01*
X115931000Y-58039000D01*
X115931000Y-57785000D01*
X115951000Y-57785000D01*
X115951000Y-56591845D01*
X116205000Y-56591845D01*
X116205000Y-57785000D01*
X116225000Y-57785000D01*
X116225000Y-58039000D01*
X116205000Y-58039000D01*
X116205000Y-59232155D01*
X116434890Y-59353476D01*
X116844924Y-59183645D01*
X117149261Y-58906292D01*
X117169843Y-59009765D01*
X117310191Y-59219809D01*
X117520235Y-59360157D01*
X117768000Y-59409440D01*
X119468000Y-59409440D01*
X119715765Y-59360157D01*
X119925809Y-59219809D01*
X120066157Y-59009765D01*
X120115440Y-58762000D01*
X120115440Y-57062000D01*
X120066157Y-56814235D01*
X119925809Y-56604191D01*
X119715765Y-56463843D01*
X119468000Y-56414560D01*
X117768000Y-56414560D01*
X117520235Y-56463843D01*
X117310191Y-56604191D01*
X117169843Y-56814235D01*
X117149261Y-56917708D01*
X116844924Y-56640355D01*
X116434890Y-56470524D01*
X116205000Y-56591845D01*
X115951000Y-56591845D01*
X115721110Y-56470524D01*
X115311076Y-56640355D01*
X114882817Y-57030642D01*
X114821843Y-57160478D01*
X114608625Y-56841375D01*
X114117418Y-56513161D01*
X113684256Y-56427000D01*
X113391744Y-56427000D01*
X112958582Y-56513161D01*
X112467375Y-56841375D01*
X112268000Y-57139761D01*
X112068625Y-56841375D01*
X111577418Y-56513161D01*
X111144256Y-56427000D01*
X110851744Y-56427000D01*
X110418582Y-56513161D01*
X109927375Y-56841375D01*
X109728000Y-57139761D01*
X109528625Y-56841375D01*
X109037418Y-56513161D01*
X108604256Y-56427000D01*
X108311744Y-56427000D01*
X107878582Y-56513161D01*
X107387375Y-56841375D01*
X107059161Y-57332582D01*
X106943908Y-57912000D01*
X107059161Y-58491418D01*
X107387375Y-58982625D01*
X107698287Y-59190370D01*
X107742097Y-59410618D01*
X107910072Y-59662010D01*
X107973528Y-59704410D01*
X124631670Y-76362553D01*
X124674071Y-76426010D01*
X124925463Y-76593985D01*
X125147148Y-76638081D01*
X125147152Y-76638081D01*
X125221999Y-76652969D01*
X125296846Y-76638081D01*
X132429952Y-76638081D01*
X132385069Y-76668071D01*
X132342669Y-76731527D01*
X128670244Y-80403953D01*
X128545635Y-80279344D01*
X128201983Y-80136999D01*
X127830017Y-80136999D01*
X127486365Y-80279344D01*
X127453710Y-80311999D01*
X124312802Y-80311999D01*
X114473000Y-70472199D01*
X114473000Y-70426017D01*
X114330655Y-70082365D01*
X114067635Y-69819345D01*
X113723983Y-69677000D01*
X113352017Y-69677000D01*
X113008365Y-69819345D01*
X112745345Y-70082365D01*
X112603000Y-70426017D01*
X112603000Y-70797983D01*
X112745345Y-71141635D01*
X113008365Y-71404655D01*
X113352017Y-71547000D01*
X113398199Y-71547000D01*
X123407672Y-81556475D01*
X123450070Y-81619928D01*
X123513523Y-81662326D01*
X123513525Y-81662328D01*
X123637946Y-81745463D01*
X123701462Y-81787903D01*
X123923147Y-81831999D01*
X123923151Y-81831999D01*
X123997998Y-81846887D01*
X124072845Y-81831999D01*
X127242197Y-81831999D01*
X104417528Y-104656669D01*
X104354072Y-104699069D01*
X104311672Y-104762525D01*
X104311671Y-104762526D01*
X104186097Y-104950461D01*
X104127112Y-105246998D01*
X104142001Y-105321850D01*
X104142000Y-111939153D01*
X104127112Y-112014000D01*
X104142000Y-112088847D01*
X104142000Y-112088851D01*
X104186096Y-112310536D01*
X104354071Y-112561929D01*
X104417529Y-112604331D01*
X105204000Y-113390802D01*
X105204000Y-115191056D01*
X105087983Y-115143000D01*
X104716017Y-115143000D01*
X104372365Y-115285345D01*
X104109345Y-115548365D01*
X103967000Y-115892017D01*
X103967000Y-115938198D01*
X102734527Y-117170672D01*
X102671071Y-117213072D01*
X102628671Y-117276528D01*
X102628670Y-117276529D01*
X102503096Y-117464464D01*
X102444111Y-117761001D01*
X102459000Y-117835853D01*
X102459000Y-117998254D01*
X102433418Y-117981161D01*
X102000256Y-117895000D01*
X101707744Y-117895000D01*
X101487593Y-117938791D01*
X98898999Y-115350198D01*
X98898999Y-113191543D01*
X99167744Y-113245000D01*
X99460256Y-113245000D01*
X99893418Y-113158839D01*
X100384625Y-112830625D01*
X100712839Y-112339418D01*
X100828092Y-111760000D01*
X100712839Y-111180582D01*
X100384625Y-110689375D01*
X100086239Y-110490000D01*
X100384625Y-110290625D01*
X100712839Y-109799418D01*
X100828092Y-109220000D01*
X100712839Y-108640582D01*
X100384625Y-108149375D01*
X100086239Y-107950000D01*
X100384625Y-107750625D01*
X100712839Y-107259418D01*
X100828092Y-106680000D01*
X100712839Y-106100582D01*
X100384625Y-105609375D01*
X100086239Y-105410000D01*
X100384625Y-105210625D01*
X100712839Y-104719418D01*
X100828092Y-104140000D01*
X100712839Y-103560582D01*
X100384625Y-103069375D01*
X100086239Y-102870000D01*
X100384625Y-102670625D01*
X100712839Y-102179418D01*
X100828092Y-101600000D01*
X100712839Y-101020582D01*
X100384625Y-100529375D01*
X100086239Y-100330000D01*
X100384625Y-100130625D01*
X100712839Y-99639418D01*
X100828092Y-99060000D01*
X100712839Y-98480582D01*
X100384625Y-97989375D01*
X100188034Y-97858017D01*
X101935000Y-97858017D01*
X101935000Y-98229983D01*
X102077345Y-98573635D01*
X102340365Y-98836655D01*
X102684017Y-98979000D01*
X103055983Y-98979000D01*
X103399635Y-98836655D01*
X103662655Y-98573635D01*
X103805000Y-98229983D01*
X103805000Y-97929801D01*
X105041802Y-96693000D01*
X105087983Y-96693000D01*
X105431635Y-96550655D01*
X105694655Y-96287635D01*
X105837000Y-95943983D01*
X105837000Y-95572017D01*
X105694655Y-95228365D01*
X105431635Y-94965345D01*
X105087983Y-94823000D01*
X104716017Y-94823000D01*
X104372365Y-94965345D01*
X104109345Y-95228365D01*
X103967000Y-95572017D01*
X103967000Y-95618198D01*
X102385529Y-97199670D01*
X102322071Y-97242071D01*
X102266558Y-97325152D01*
X102077345Y-97514365D01*
X101935000Y-97858017D01*
X100188034Y-97858017D01*
X99893418Y-97661161D01*
X99460256Y-97575000D01*
X99167744Y-97575000D01*
X98734582Y-97661161D01*
X98243375Y-97989375D01*
X98231184Y-98007619D01*
X98222157Y-97962235D01*
X98081809Y-97752191D01*
X97871765Y-97611843D01*
X97624000Y-97562560D01*
X95924000Y-97562560D01*
X95676235Y-97611843D01*
X95466191Y-97752191D01*
X95325843Y-97962235D01*
X95276560Y-98210000D01*
X95276560Y-99910000D01*
X95325843Y-100157765D01*
X95466191Y-100367809D01*
X95676235Y-100508157D01*
X95721619Y-100517184D01*
X95703375Y-100529375D01*
X95375161Y-101020582D01*
X95259908Y-101600000D01*
X95375161Y-102179418D01*
X95703375Y-102670625D01*
X96001761Y-102870000D01*
X95703375Y-103069375D01*
X95375161Y-103560582D01*
X95259908Y-104140000D01*
X95375161Y-104719418D01*
X95703375Y-105210625D01*
X96001761Y-105410000D01*
X95703375Y-105609375D01*
X95375161Y-106100582D01*
X95259908Y-106680000D01*
X95375161Y-107259418D01*
X95703375Y-107750625D01*
X96001761Y-107950000D01*
X95703375Y-108149375D01*
X95375161Y-108640582D01*
X95259908Y-109220000D01*
X95375161Y-109799418D01*
X95703375Y-110290625D01*
X96001761Y-110490000D01*
X95703375Y-110689375D01*
X95375161Y-111180582D01*
X95259908Y-111760000D01*
X95375161Y-112339418D01*
X95703375Y-112830625D01*
X96194582Y-113158839D01*
X96627744Y-113245000D01*
X96920256Y-113245000D01*
X97353418Y-113158839D01*
X97379000Y-113141746D01*
X97379000Y-115590147D01*
X97364111Y-115664999D01*
X97379000Y-115739851D01*
X97396427Y-115827462D01*
X97423096Y-115961536D01*
X97544961Y-116143919D01*
X97591071Y-116212928D01*
X97654527Y-116255328D01*
X99294198Y-117895000D01*
X99167744Y-117895000D01*
X98734582Y-117981161D01*
X98243375Y-118309375D01*
X98044000Y-118607761D01*
X97844625Y-118309375D01*
X97353418Y-117981161D01*
X96920256Y-117895000D01*
X96627744Y-117895000D01*
X96194582Y-117981161D01*
X95703375Y-118309375D01*
X95375161Y-118800582D01*
X95259908Y-119380000D01*
X95375161Y-119959418D01*
X95703375Y-120450625D01*
X95721619Y-120462816D01*
X95676235Y-120471843D01*
X95466191Y-120612191D01*
X95325843Y-120822235D01*
X95276560Y-121070000D01*
X95276560Y-122770000D01*
X95325843Y-123017765D01*
X95466191Y-123227809D01*
X95676235Y-123368157D01*
X95924000Y-123417440D01*
X96125518Y-123417440D01*
X96126491Y-123418895D01*
X96226072Y-123567929D01*
X96289528Y-123610329D01*
X96429199Y-123750000D01*
X90223070Y-123750000D01*
X89858313Y-123695161D01*
X89574180Y-123558722D01*
X89342727Y-123344768D01*
X89184417Y-123072219D01*
X89104299Y-122726566D01*
X89102000Y-122668047D01*
X89102000Y-94336890D01*
X95332524Y-94336890D01*
X95502355Y-94746924D01*
X95892642Y-95175183D01*
X96417108Y-95421486D01*
X96647000Y-95300819D01*
X96647000Y-94107000D01*
X95453845Y-94107000D01*
X95332524Y-94336890D01*
X89102000Y-94336890D01*
X89102000Y-80264000D01*
X94475112Y-80264000D01*
X94490001Y-80338852D01*
X94490000Y-82221153D01*
X94475112Y-82296000D01*
X94490000Y-82370847D01*
X94490000Y-82370851D01*
X94534096Y-82592536D01*
X94702071Y-82843929D01*
X94765530Y-82886331D01*
X95332791Y-83453593D01*
X95259908Y-83820000D01*
X95375161Y-84399418D01*
X95703375Y-84890625D01*
X96001761Y-85090000D01*
X95703375Y-85289375D01*
X95375161Y-85780582D01*
X95259908Y-86360000D01*
X95375161Y-86939418D01*
X95703375Y-87430625D01*
X96001761Y-87630000D01*
X95703375Y-87829375D01*
X95375161Y-88320582D01*
X95259908Y-88900000D01*
X95375161Y-89479418D01*
X95703375Y-89970625D01*
X96001761Y-90170000D01*
X95703375Y-90369375D01*
X95375161Y-90860582D01*
X95259908Y-91440000D01*
X95375161Y-92019418D01*
X95703375Y-92510625D01*
X96022478Y-92723843D01*
X95892642Y-92784817D01*
X95502355Y-93213076D01*
X95332524Y-93623110D01*
X95453845Y-93853000D01*
X96647000Y-93853000D01*
X96647000Y-93833000D01*
X96901000Y-93833000D01*
X96901000Y-93853000D01*
X96921000Y-93853000D01*
X96921000Y-94107000D01*
X96901000Y-94107000D01*
X96901000Y-95300819D01*
X97130892Y-95421486D01*
X97655358Y-95175183D01*
X98042647Y-94750214D01*
X98243375Y-95050625D01*
X98734582Y-95378839D01*
X99167744Y-95465000D01*
X99460256Y-95465000D01*
X99893418Y-95378839D01*
X100384625Y-95050625D01*
X100712839Y-94559418D01*
X100828092Y-93980000D01*
X100712839Y-93400582D01*
X100384625Y-92909375D01*
X100086239Y-92710000D01*
X100384625Y-92510625D01*
X100712839Y-92019418D01*
X100828092Y-91440000D01*
X100712839Y-90860582D01*
X100384625Y-90369375D01*
X100086239Y-90170000D01*
X100384625Y-89970625D01*
X100712839Y-89479418D01*
X100828092Y-88900000D01*
X100712839Y-88320582D01*
X100384625Y-87829375D01*
X100086239Y-87630000D01*
X100384625Y-87430625D01*
X100712839Y-86939418D01*
X100828092Y-86360000D01*
X100712839Y-85780582D01*
X100384625Y-85289375D01*
X100086239Y-85090000D01*
X100384625Y-84890625D01*
X100712839Y-84399418D01*
X100828092Y-83820000D01*
X100712839Y-83240582D01*
X100384625Y-82749375D01*
X100086239Y-82550000D01*
X100384625Y-82350625D01*
X100712839Y-81859418D01*
X100828092Y-81280000D01*
X100712839Y-80700582D01*
X100384625Y-80209375D01*
X100086239Y-80010000D01*
X100384625Y-79810625D01*
X100712839Y-79319418D01*
X100828092Y-78740000D01*
X100712839Y-78160582D01*
X100384625Y-77669375D01*
X100086239Y-77470000D01*
X100384625Y-77270625D01*
X100712839Y-76779418D01*
X100828092Y-76200000D01*
X100712839Y-75620582D01*
X100384625Y-75129375D01*
X99893418Y-74801161D01*
X99460256Y-74715000D01*
X99167744Y-74715000D01*
X98734582Y-74801161D01*
X98243375Y-75129375D01*
X98231184Y-75147619D01*
X98222157Y-75102235D01*
X98081809Y-74892191D01*
X97871765Y-74751843D01*
X97624000Y-74702560D01*
X95924000Y-74702560D01*
X95676235Y-74751843D01*
X95466191Y-74892191D01*
X95325843Y-75102235D01*
X95276560Y-75350000D01*
X95276560Y-77050000D01*
X95325843Y-77297765D01*
X95466191Y-77507809D01*
X95676235Y-77648157D01*
X95721619Y-77657184D01*
X95703375Y-77669375D01*
X95375161Y-78160582D01*
X95259908Y-78740000D01*
X95332791Y-79106407D01*
X94765528Y-79673671D01*
X94702072Y-79716071D01*
X94659672Y-79779527D01*
X94659671Y-79779528D01*
X94534097Y-79967463D01*
X94475112Y-80264000D01*
X89102000Y-80264000D01*
X89102000Y-71255159D01*
X89963000Y-71255159D01*
X89963000Y-72044841D01*
X90265199Y-72774412D01*
X90823588Y-73332801D01*
X91553159Y-73635000D01*
X92342841Y-73635000D01*
X93072412Y-73332801D01*
X93630801Y-72774412D01*
X93933000Y-72044841D01*
X93933000Y-71255159D01*
X93630801Y-70525588D01*
X93072412Y-69967199D01*
X92342841Y-69665000D01*
X91553159Y-69665000D01*
X90823588Y-69967199D01*
X90265199Y-70525588D01*
X89963000Y-71255159D01*
X89102000Y-71255159D01*
X89102000Y-65092017D01*
X110063000Y-65092017D01*
X110063000Y-65463983D01*
X110205345Y-65807635D01*
X110468365Y-66070655D01*
X110812017Y-66213000D01*
X110858199Y-66213000D01*
X124123671Y-79478473D01*
X124166071Y-79541929D01*
X124417463Y-79709904D01*
X124639148Y-79754000D01*
X124639152Y-79754000D01*
X124713999Y-79768888D01*
X124788846Y-79754000D01*
X127453710Y-79754000D01*
X127486365Y-79786655D01*
X127830017Y-79929000D01*
X128201983Y-79929000D01*
X128545635Y-79786655D01*
X128808655Y-79523635D01*
X128951000Y-79179983D01*
X128951000Y-78808017D01*
X128808655Y-78464365D01*
X128545635Y-78201345D01*
X128201983Y-78059000D01*
X127830017Y-78059000D01*
X127486365Y-78201345D01*
X127453710Y-78234000D01*
X125028802Y-78234000D01*
X111933000Y-65138199D01*
X111933000Y-65092017D01*
X111790655Y-64748365D01*
X111527635Y-64485345D01*
X111183983Y-64343000D01*
X110812017Y-64343000D01*
X110468365Y-64485345D01*
X110205345Y-64748365D01*
X110063000Y-65092017D01*
X89102000Y-65092017D01*
X89102000Y-57062000D01*
X95530560Y-57062000D01*
X95530560Y-58762000D01*
X95579843Y-59009765D01*
X95720191Y-59219809D01*
X95930235Y-59360157D01*
X96178000Y-59409440D01*
X97878000Y-59409440D01*
X98125765Y-59360157D01*
X98335809Y-59219809D01*
X98476157Y-59009765D01*
X98496739Y-58906292D01*
X98801076Y-59183645D01*
X99211110Y-59353476D01*
X99441000Y-59232155D01*
X99441000Y-58039000D01*
X99421000Y-58039000D01*
X99421000Y-57785000D01*
X99441000Y-57785000D01*
X99441000Y-56591845D01*
X99695000Y-56591845D01*
X99695000Y-57785000D01*
X99715000Y-57785000D01*
X99715000Y-58039000D01*
X99695000Y-58039000D01*
X99695000Y-59232155D01*
X99924890Y-59353476D01*
X100334924Y-59183645D01*
X100763183Y-58793358D01*
X100824157Y-58663522D01*
X101037375Y-58982625D01*
X101528582Y-59310839D01*
X101961744Y-59397000D01*
X102254256Y-59397000D01*
X102687418Y-59310839D01*
X103178625Y-58982625D01*
X103506839Y-58491418D01*
X103622092Y-57912000D01*
X103506839Y-57332582D01*
X103178625Y-56841375D01*
X102687418Y-56513161D01*
X102254256Y-56427000D01*
X101961744Y-56427000D01*
X101528582Y-56513161D01*
X101037375Y-56841375D01*
X100824157Y-57160478D01*
X100763183Y-57030642D01*
X100334924Y-56640355D01*
X99924890Y-56470524D01*
X99695000Y-56591845D01*
X99441000Y-56591845D01*
X99211110Y-56470524D01*
X98801076Y-56640355D01*
X98496739Y-56917708D01*
X98476157Y-56814235D01*
X98335809Y-56604191D01*
X98125765Y-56463843D01*
X97878000Y-56414560D01*
X96178000Y-56414560D01*
X95930235Y-56463843D01*
X95720191Y-56604191D01*
X95579843Y-56814235D01*
X95530560Y-57062000D01*
X89102000Y-57062000D01*
X89102000Y-55933071D01*
X89156839Y-55568313D01*
X89293277Y-55284181D01*
X89507232Y-55052727D01*
X89779782Y-54894417D01*
X90125435Y-54814299D01*
X90183953Y-54812000D01*
X151584929Y-54812000D01*
X151949687Y-54866839D01*
G36*
X149471002Y-119456196D02*
X146592198Y-122335001D01*
X146448196Y-122335001D01*
X146475486Y-122276892D01*
X146354819Y-122047000D01*
X145161000Y-122047000D01*
X145161000Y-122067000D01*
X144907000Y-122067000D01*
X144907000Y-122047000D01*
X142621000Y-122047000D01*
X142621000Y-122067000D01*
X142367000Y-122067000D01*
X142367000Y-122047000D01*
X142347000Y-122047000D01*
X142347000Y-121793000D01*
X142367000Y-121793000D01*
X142367000Y-121773000D01*
X142621000Y-121773000D01*
X142621000Y-121793000D01*
X144907000Y-121793000D01*
X144907000Y-121773000D01*
X145161000Y-121773000D01*
X145161000Y-121793000D01*
X146354819Y-121793000D01*
X146475486Y-121563108D01*
X146229183Y-121038642D01*
X145804214Y-120651353D01*
X146104625Y-120450625D01*
X146432839Y-119959418D01*
X146548092Y-119380000D01*
X146432839Y-118800582D01*
X146104625Y-118309375D01*
X145613418Y-117981161D01*
X145180256Y-117895000D01*
X144887744Y-117895000D01*
X144454582Y-117981161D01*
X143963375Y-118309375D01*
X143764000Y-118607761D01*
X143564625Y-118309375D01*
X143073418Y-117981161D01*
X142640256Y-117895000D01*
X142347744Y-117895000D01*
X142125500Y-117939207D01*
X142253999Y-117628982D01*
X142253999Y-117391999D01*
X149231154Y-117391999D01*
X149306001Y-117406887D01*
X149380848Y-117391999D01*
X149380853Y-117391999D01*
X149471002Y-117374067D01*
X149471002Y-119456196D01*
X149471002Y-119456196D01*
G37*
X149471002Y-119456196D02*
X146592198Y-122335001D01*
X146448196Y-122335001D01*
X146475486Y-122276892D01*
X146354819Y-122047000D01*
X145161000Y-122047000D01*
X145161000Y-122067000D01*
X144907000Y-122067000D01*
X144907000Y-122047000D01*
X142621000Y-122047000D01*
X142621000Y-122067000D01*
X142367000Y-122067000D01*
X142367000Y-122047000D01*
X142347000Y-122047000D01*
X142347000Y-121793000D01*
X142367000Y-121793000D01*
X142367000Y-121773000D01*
X142621000Y-121773000D01*
X142621000Y-121793000D01*
X144907000Y-121793000D01*
X144907000Y-121773000D01*
X145161000Y-121773000D01*
X145161000Y-121793000D01*
X146354819Y-121793000D01*
X146475486Y-121563108D01*
X146229183Y-121038642D01*
X145804214Y-120651353D01*
X146104625Y-120450625D01*
X146432839Y-119959418D01*
X146548092Y-119380000D01*
X146432839Y-118800582D01*
X146104625Y-118309375D01*
X145613418Y-117981161D01*
X145180256Y-117895000D01*
X144887744Y-117895000D01*
X144454582Y-117981161D01*
X143963375Y-118309375D01*
X143764000Y-118607761D01*
X143564625Y-118309375D01*
X143073418Y-117981161D01*
X142640256Y-117895000D01*
X142347744Y-117895000D01*
X142125500Y-117939207D01*
X142253999Y-117628982D01*
X142253999Y-117391999D01*
X149231154Y-117391999D01*
X149306001Y-117406887D01*
X149380848Y-117391999D01*
X149380853Y-117391999D01*
X149471002Y-117374067D01*
X149471002Y-119456196D01*
G04 #@! TD*
M02*
