M48
METRIC,TZ
T1C0.400
T2C1.000
%
G90
G05
T1
X102870Y-98044
X104902Y-95758
X104902Y-116078
X105664Y-108966
X105664Y-117856
X106680Y-104648
X106934Y-116078
X108966Y-106934
X110998Y-65278
X111760Y-115384
X113284Y-112776
X113538Y-70612
X115062Y-110998
X115362Y-107234
X117094Y-105918
X117094Y-113792
X119634Y-105957
X122213Y-98298
X123906Y-114254
X124206Y-94234
X125730Y-86868
X127000Y-91440
X128016Y-78994
X128016Y-81072
X130764Y-83820
X131064Y-82042
X131064Y-100076
X131064Y-104140
X131064Y-117602
X132542Y-83520
X132842Y-75184
X133604Y-109474
X134112Y-103124
X136144Y-120650
X137160Y-76454
X137922Y-80772
X138176Y-104140
X141319Y-117443
X141986Y-114554
X146558Y-117856
X148336Y-110236
X149352Y-119126
X149606Y-116332
X151214Y-121412
T2
X142494Y-93980
X142494Y-96520
X142494Y-99060
X142494Y-101600
X142494Y-104140
X142494Y-106680
X142494Y-109220
X142494Y-111760
X145034Y-93980
X145034Y-96520
X145034Y-99060
X145034Y-101600
X145034Y-104140
X145034Y-106680
X145034Y-109220
X145034Y-111760
X96774Y-76200
X96774Y-78740
X96774Y-81280
X96774Y-83820
X96774Y-86360
X96774Y-88900
X96774Y-91440
X96774Y-93980
X99314Y-76200
X99314Y-78740
X99314Y-81280
X99314Y-83820
X99314Y-86360
X99314Y-88900
X99314Y-91440
X99314Y-93980
X97028Y-57912
X99568Y-57912
X102108Y-57912
X142494Y-67056
X142494Y-69596
X142494Y-72136
X142494Y-74676
X142494Y-77216
X142494Y-79756
X142494Y-82296
X142494Y-84836
X142494Y-87376
X142494Y-89916
X145034Y-67056
X145034Y-69596
X145034Y-72136
X145034Y-74676
X145034Y-77216
X145034Y-79756
X145034Y-82296
X145034Y-84836
X145034Y-87376
X145034Y-89916
X96774Y-119380
X96774Y-121920
X99314Y-119380
X99314Y-121920
X101854Y-119380
X101854Y-121920
X104394Y-119380
X104394Y-121920
X106934Y-119380
X106934Y-121920
X109474Y-119380
X109474Y-121920
X112014Y-119380
X112014Y-121920
X114554Y-119380
X114554Y-121920
X117094Y-119380
X117094Y-121920
X119634Y-119380
X119634Y-121920
X122174Y-119380
X122174Y-121920
X124714Y-119380
X124714Y-121920
X127254Y-119380
X127254Y-121920
X129794Y-119380
X129794Y-121920
X132334Y-119380
X132334Y-121920
X134874Y-119380
X134874Y-121920
X137414Y-119380
X137414Y-121920
X139954Y-119380
X139954Y-121920
X142494Y-119380
X142494Y-121920
X145034Y-119380
X145034Y-121920
X108458Y-57912
X110998Y-57912
X113538Y-57912
X116078Y-57912
X118618Y-57912
X96774Y-99060
X96774Y-101600
X96774Y-104140
X96774Y-106680
X96774Y-109220
X96774Y-111760
X99314Y-99060
X99314Y-101600
X99314Y-104140
X99314Y-106680
X99314Y-109220
X99314Y-111760
T0
M30
