G04 #@! TF.GenerationSoftware,KiCad,Pcbnew,(5.0.1)-4*
G04 #@! TF.CreationDate,2018-11-19T01:03:16-05:00*
G04 #@! TF.ProjectId,k64shield,6B3634736869656C642E6B696361645F,rev?*
G04 #@! TF.SameCoordinates,Original*
G04 #@! TF.FileFunction,Legend,Top*
G04 #@! TF.FilePolarity,Positive*
%FSLAX46Y46*%
G04 Gerber Fmt 4.6, Leading zero omitted, Abs format (unit mm)*
G04 Created by KiCad (PCBNEW (5.0.1)-4) date 11/19/2018 1:03:16 AM*
%MOMM*%
%LPD*%
G01*
G04 APERTURE LIST*
%ADD10C,0.300000*%
%ADD11C,0.120000*%
%ADD12C,0.150000*%
G04 APERTURE END LIST*
D10*
X121069571Y-111304857D02*
X120355285Y-111804857D01*
X121069571Y-112162000D02*
X119569571Y-112162000D01*
X119569571Y-111590571D01*
X119641000Y-111447714D01*
X119712428Y-111376285D01*
X119855285Y-111304857D01*
X120069571Y-111304857D01*
X120212428Y-111376285D01*
X120283857Y-111447714D01*
X120355285Y-111590571D01*
X120355285Y-112162000D01*
X121069571Y-110662000D02*
X119569571Y-110662000D01*
X119569571Y-110090571D01*
X119641000Y-109947714D01*
X119712428Y-109876285D01*
X119855285Y-109804857D01*
X120069571Y-109804857D01*
X120212428Y-109876285D01*
X120283857Y-109947714D01*
X120355285Y-110090571D01*
X120355285Y-110662000D01*
X121069571Y-109162000D02*
X120069571Y-109162000D01*
X119569571Y-109162000D02*
X119641000Y-109233428D01*
X119712428Y-109162000D01*
X119641000Y-109090571D01*
X119569571Y-109162000D01*
X119712428Y-109162000D01*
X121069571Y-107304857D02*
X119569571Y-107304857D01*
X120641000Y-106804857D01*
X119569571Y-106304857D01*
X121069571Y-106304857D01*
X121069571Y-105376285D02*
X120998142Y-105519142D01*
X120926714Y-105590571D01*
X120783857Y-105662000D01*
X120355285Y-105662000D01*
X120212428Y-105590571D01*
X120141000Y-105519142D01*
X120069571Y-105376285D01*
X120069571Y-105162000D01*
X120141000Y-105019142D01*
X120212428Y-104947714D01*
X120355285Y-104876285D01*
X120783857Y-104876285D01*
X120926714Y-104947714D01*
X120998142Y-105019142D01*
X121069571Y-105162000D01*
X121069571Y-105376285D01*
X120069571Y-104447714D02*
X120069571Y-103876285D01*
X119569571Y-104233428D02*
X120855285Y-104233428D01*
X120998142Y-104162000D01*
X121069571Y-104019142D01*
X121069571Y-103876285D01*
X121069571Y-103162000D02*
X120998142Y-103304857D01*
X120926714Y-103376285D01*
X120783857Y-103447714D01*
X120355285Y-103447714D01*
X120212428Y-103376285D01*
X120141000Y-103304857D01*
X120069571Y-103162000D01*
X120069571Y-102947714D01*
X120141000Y-102804857D01*
X120212428Y-102733428D01*
X120355285Y-102662000D01*
X120783857Y-102662000D01*
X120926714Y-102733428D01*
X120998142Y-102804857D01*
X121069571Y-102947714D01*
X121069571Y-103162000D01*
X121069571Y-102019142D02*
X120069571Y-102019142D01*
X120355285Y-102019142D02*
X120212428Y-101947714D01*
X120141000Y-101876285D01*
X120069571Y-101733428D01*
X120069571Y-101590571D01*
X121069571Y-99947714D02*
X119569571Y-99947714D01*
X119569571Y-99590571D01*
X119641000Y-99376285D01*
X119783857Y-99233428D01*
X119926714Y-99162000D01*
X120212428Y-99090571D01*
X120426714Y-99090571D01*
X120712428Y-99162000D01*
X120855285Y-99233428D01*
X120998142Y-99376285D01*
X121069571Y-99590571D01*
X121069571Y-99947714D01*
X121069571Y-98447714D02*
X120069571Y-98447714D01*
X120355285Y-98447714D02*
X120212428Y-98376285D01*
X120141000Y-98304857D01*
X120069571Y-98162000D01*
X120069571Y-98019142D01*
X121069571Y-97519142D02*
X120069571Y-97519142D01*
X119569571Y-97519142D02*
X119641000Y-97590571D01*
X119712428Y-97519142D01*
X119641000Y-97447714D01*
X119569571Y-97519142D01*
X119712428Y-97519142D01*
X120069571Y-96947714D02*
X121069571Y-96590571D01*
X120069571Y-96233428D01*
X120998142Y-95090571D02*
X121069571Y-95233428D01*
X121069571Y-95519142D01*
X120998142Y-95662000D01*
X120855285Y-95733428D01*
X120283857Y-95733428D01*
X120141000Y-95662000D01*
X120069571Y-95519142D01*
X120069571Y-95233428D01*
X120141000Y-95090571D01*
X120283857Y-95019142D01*
X120426714Y-95019142D01*
X120569571Y-95733428D01*
X121069571Y-94376285D02*
X120069571Y-94376285D01*
X120355285Y-94376285D02*
X120212428Y-94304857D01*
X120141000Y-94233428D01*
X120069571Y-94090571D01*
X120069571Y-93947714D01*
X120283857Y-91804857D02*
X120355285Y-91590571D01*
X120426714Y-91519142D01*
X120569571Y-91447714D01*
X120783857Y-91447714D01*
X120926714Y-91519142D01*
X120998142Y-91590571D01*
X121069571Y-91733428D01*
X121069571Y-92304857D01*
X119569571Y-92304857D01*
X119569571Y-91804857D01*
X119641000Y-91662000D01*
X119712428Y-91590571D01*
X119855285Y-91519142D01*
X119998142Y-91519142D01*
X120141000Y-91590571D01*
X120212428Y-91662000D01*
X120283857Y-91804857D01*
X120283857Y-92304857D01*
X121069571Y-90590571D02*
X120998142Y-90733428D01*
X120926714Y-90804857D01*
X120783857Y-90876285D01*
X120355285Y-90876285D01*
X120212428Y-90804857D01*
X120141000Y-90733428D01*
X120069571Y-90590571D01*
X120069571Y-90376285D01*
X120141000Y-90233428D01*
X120212428Y-90162000D01*
X120355285Y-90090571D01*
X120783857Y-90090571D01*
X120926714Y-90162000D01*
X120998142Y-90233428D01*
X121069571Y-90376285D01*
X121069571Y-90590571D01*
X121069571Y-88804857D02*
X120283857Y-88804857D01*
X120141000Y-88876285D01*
X120069571Y-89019142D01*
X120069571Y-89304857D01*
X120141000Y-89447714D01*
X120998142Y-88804857D02*
X121069571Y-88947714D01*
X121069571Y-89304857D01*
X120998142Y-89447714D01*
X120855285Y-89519142D01*
X120712428Y-89519142D01*
X120569571Y-89447714D01*
X120498142Y-89304857D01*
X120498142Y-88947714D01*
X120426714Y-88804857D01*
X121069571Y-88090571D02*
X120069571Y-88090571D01*
X120355285Y-88090571D02*
X120212428Y-88019142D01*
X120141000Y-87947714D01*
X120069571Y-87804857D01*
X120069571Y-87662000D01*
X121069571Y-86519142D02*
X119569571Y-86519142D01*
X120998142Y-86519142D02*
X121069571Y-86662000D01*
X121069571Y-86947714D01*
X120998142Y-87090571D01*
X120926714Y-87162000D01*
X120783857Y-87233428D01*
X120355285Y-87233428D01*
X120212428Y-87162000D01*
X120141000Y-87090571D01*
X120069571Y-86947714D01*
X120069571Y-86662000D01*
X120141000Y-86519142D01*
X120641000Y-84733428D02*
X120641000Y-84019142D01*
X121069571Y-84876285D02*
X119569571Y-84376285D01*
X121069571Y-83876285D01*
X121069571Y-82733428D02*
X119569571Y-82733428D01*
X120998142Y-82733428D02*
X121069571Y-82876285D01*
X121069571Y-83162000D01*
X120998142Y-83304857D01*
X120926714Y-83376285D01*
X120783857Y-83447714D01*
X120355285Y-83447714D01*
X120212428Y-83376285D01*
X120141000Y-83304857D01*
X120069571Y-83162000D01*
X120069571Y-82876285D01*
X120141000Y-82733428D01*
X121069571Y-81376285D02*
X120283857Y-81376285D01*
X120141000Y-81447714D01*
X120069571Y-81590571D01*
X120069571Y-81876285D01*
X120141000Y-82019142D01*
X120998142Y-81376285D02*
X121069571Y-81519142D01*
X121069571Y-81876285D01*
X120998142Y-82019142D01*
X120855285Y-82090571D01*
X120712428Y-82090571D01*
X120569571Y-82019142D01*
X120498142Y-81876285D01*
X120498142Y-81519142D01*
X120426714Y-81376285D01*
X120069571Y-80662000D02*
X121569571Y-80662000D01*
X120141000Y-80662000D02*
X120069571Y-80519142D01*
X120069571Y-80233428D01*
X120141000Y-80090571D01*
X120212428Y-80019142D01*
X120355285Y-79947714D01*
X120783857Y-79947714D01*
X120926714Y-80019142D01*
X120998142Y-80090571D01*
X121069571Y-80233428D01*
X121069571Y-80519142D01*
X120998142Y-80662000D01*
X120069571Y-79519142D02*
X120069571Y-78947714D01*
X119569571Y-79304857D02*
X120855285Y-79304857D01*
X120998142Y-79233428D01*
X121069571Y-79090571D01*
X121069571Y-78947714D01*
X120998142Y-77876285D02*
X121069571Y-78019142D01*
X121069571Y-78304857D01*
X120998142Y-78447714D01*
X120855285Y-78519142D01*
X120283857Y-78519142D01*
X120141000Y-78447714D01*
X120069571Y-78304857D01*
X120069571Y-78019142D01*
X120141000Y-77876285D01*
X120283857Y-77804857D01*
X120426714Y-77804857D01*
X120569571Y-78519142D01*
X121069571Y-77162000D02*
X120069571Y-77162000D01*
X120355285Y-77162000D02*
X120212428Y-77090571D01*
X120141000Y-77019142D01*
X120069571Y-76876285D01*
X120069571Y-76733428D01*
X120069571Y-75304857D02*
X120069571Y-74733428D01*
X121069571Y-75090571D02*
X119783857Y-75090571D01*
X119641000Y-75019142D01*
X119569571Y-74876285D01*
X119569571Y-74733428D01*
X121069571Y-74019142D02*
X120998142Y-74162000D01*
X120926714Y-74233428D01*
X120783857Y-74304857D01*
X120355285Y-74304857D01*
X120212428Y-74233428D01*
X120141000Y-74162000D01*
X120069571Y-74019142D01*
X120069571Y-73804857D01*
X120141000Y-73662000D01*
X120212428Y-73590571D01*
X120355285Y-73519142D01*
X120783857Y-73519142D01*
X120926714Y-73590571D01*
X120998142Y-73662000D01*
X121069571Y-73804857D01*
X121069571Y-74019142D01*
X121069571Y-72876285D02*
X120069571Y-72876285D01*
X120355285Y-72876285D02*
X120212428Y-72804857D01*
X120141000Y-72733428D01*
X120069571Y-72590571D01*
X120069571Y-72447714D01*
X121069571Y-70804857D02*
X119569571Y-70804857D01*
X121069571Y-69947714D02*
X120212428Y-70590571D01*
X119569571Y-69947714D02*
X120426714Y-70804857D01*
X119569571Y-68662000D02*
X119569571Y-68947714D01*
X119641000Y-69090571D01*
X119712428Y-69162000D01*
X119926714Y-69304857D01*
X120212428Y-69376285D01*
X120783857Y-69376285D01*
X120926714Y-69304857D01*
X120998142Y-69233428D01*
X121069571Y-69090571D01*
X121069571Y-68804857D01*
X120998142Y-68662000D01*
X120926714Y-68590571D01*
X120783857Y-68519142D01*
X120426714Y-68519142D01*
X120283857Y-68590571D01*
X120212428Y-68662000D01*
X120141000Y-68804857D01*
X120141000Y-69090571D01*
X120212428Y-69233428D01*
X120283857Y-69304857D01*
X120426714Y-69376285D01*
X120069571Y-67233428D02*
X121069571Y-67233428D01*
X119498142Y-67590571D02*
X120569571Y-67947714D01*
X120569571Y-67019142D01*
X123619571Y-111912000D02*
X122119571Y-111912000D01*
X123548142Y-111912000D02*
X123619571Y-112054857D01*
X123619571Y-112340571D01*
X123548142Y-112483428D01*
X123476714Y-112554857D01*
X123333857Y-112626285D01*
X122905285Y-112626285D01*
X122762428Y-112554857D01*
X122691000Y-112483428D01*
X122619571Y-112340571D01*
X122619571Y-112054857D01*
X122691000Y-111912000D01*
X123548142Y-110626285D02*
X123619571Y-110769142D01*
X123619571Y-111054857D01*
X123548142Y-111197714D01*
X123405285Y-111269142D01*
X122833857Y-111269142D01*
X122691000Y-111197714D01*
X122619571Y-111054857D01*
X122619571Y-110769142D01*
X122691000Y-110626285D01*
X122833857Y-110554857D01*
X122976714Y-110554857D01*
X123119571Y-111269142D01*
X123548142Y-109983428D02*
X123619571Y-109840571D01*
X123619571Y-109554857D01*
X123548142Y-109412000D01*
X123405285Y-109340571D01*
X123333857Y-109340571D01*
X123191000Y-109412000D01*
X123119571Y-109554857D01*
X123119571Y-109769142D01*
X123048142Y-109912000D01*
X122905285Y-109983428D01*
X122833857Y-109983428D01*
X122691000Y-109912000D01*
X122619571Y-109769142D01*
X122619571Y-109554857D01*
X122691000Y-109412000D01*
X123619571Y-108697714D02*
X122619571Y-108697714D01*
X122119571Y-108697714D02*
X122191000Y-108769142D01*
X122262428Y-108697714D01*
X122191000Y-108626285D01*
X122119571Y-108697714D01*
X122262428Y-108697714D01*
X122619571Y-107340571D02*
X123833857Y-107340571D01*
X123976714Y-107412000D01*
X124048142Y-107483428D01*
X124119571Y-107626285D01*
X124119571Y-107840571D01*
X124048142Y-107983428D01*
X123548142Y-107340571D02*
X123619571Y-107483428D01*
X123619571Y-107769142D01*
X123548142Y-107912000D01*
X123476714Y-107983428D01*
X123333857Y-108054857D01*
X122905285Y-108054857D01*
X122762428Y-107983428D01*
X122691000Y-107912000D01*
X122619571Y-107769142D01*
X122619571Y-107483428D01*
X122691000Y-107340571D01*
X122619571Y-106626285D02*
X123619571Y-106626285D01*
X122762428Y-106626285D02*
X122691000Y-106554857D01*
X122619571Y-106412000D01*
X122619571Y-106197714D01*
X122691000Y-106054857D01*
X122833857Y-105983428D01*
X123619571Y-105983428D01*
X123548142Y-104697714D02*
X123619571Y-104840571D01*
X123619571Y-105126285D01*
X123548142Y-105269142D01*
X123405285Y-105340571D01*
X122833857Y-105340571D01*
X122691000Y-105269142D01*
X122619571Y-105126285D01*
X122619571Y-104840571D01*
X122691000Y-104697714D01*
X122833857Y-104626285D01*
X122976714Y-104626285D01*
X123119571Y-105340571D01*
X123619571Y-103340571D02*
X122119571Y-103340571D01*
X123548142Y-103340571D02*
X123619571Y-103483428D01*
X123619571Y-103769142D01*
X123548142Y-103912000D01*
X123476714Y-103983428D01*
X123333857Y-104054857D01*
X122905285Y-104054857D01*
X122762428Y-103983428D01*
X122691000Y-103912000D01*
X122619571Y-103769142D01*
X122619571Y-103483428D01*
X122691000Y-103340571D01*
X123619571Y-101483428D02*
X122119571Y-101483428D01*
X122691000Y-101483428D02*
X122619571Y-101340571D01*
X122619571Y-101054857D01*
X122691000Y-100912000D01*
X122762428Y-100840571D01*
X122905285Y-100769142D01*
X123333857Y-100769142D01*
X123476714Y-100840571D01*
X123548142Y-100912000D01*
X123619571Y-101054857D01*
X123619571Y-101340571D01*
X123548142Y-101483428D01*
X122619571Y-100269142D02*
X123619571Y-99912000D01*
X122619571Y-99554857D02*
X123619571Y-99912000D01*
X123976714Y-100054857D01*
X124048142Y-100126285D01*
X124119571Y-100269142D01*
X123619571Y-97840571D02*
X122619571Y-97840571D01*
X122762428Y-97840571D02*
X122691000Y-97769142D01*
X122619571Y-97626285D01*
X122619571Y-97412000D01*
X122691000Y-97269142D01*
X122833857Y-97197714D01*
X123619571Y-97197714D01*
X122833857Y-97197714D02*
X122691000Y-97126285D01*
X122619571Y-96983428D01*
X122619571Y-96769142D01*
X122691000Y-96626285D01*
X122833857Y-96554857D01*
X123619571Y-96554857D01*
X123476714Y-95840571D02*
X123548142Y-95769142D01*
X123619571Y-95840571D01*
X123548142Y-95912000D01*
X123476714Y-95840571D01*
X123619571Y-95840571D01*
X123619571Y-93983428D02*
X122119571Y-93983428D01*
X122691000Y-93983428D02*
X122619571Y-93840571D01*
X122619571Y-93554857D01*
X122691000Y-93412000D01*
X122762428Y-93340571D01*
X122905285Y-93269142D01*
X123333857Y-93269142D01*
X123476714Y-93340571D01*
X123548142Y-93412000D01*
X123619571Y-93554857D01*
X123619571Y-93840571D01*
X123548142Y-93983428D01*
X123619571Y-91983428D02*
X122833857Y-91983428D01*
X122691000Y-92054857D01*
X122619571Y-92197714D01*
X122619571Y-92483428D01*
X122691000Y-92626285D01*
X123548142Y-91983428D02*
X123619571Y-92126285D01*
X123619571Y-92483428D01*
X123548142Y-92626285D01*
X123405285Y-92697714D01*
X123262428Y-92697714D01*
X123119571Y-92626285D01*
X123048142Y-92483428D01*
X123048142Y-92126285D01*
X122976714Y-91983428D01*
X122619571Y-90626285D02*
X123619571Y-90626285D01*
X122619571Y-91269142D02*
X123405285Y-91269142D01*
X123548142Y-91197714D01*
X123619571Y-91054857D01*
X123619571Y-90840571D01*
X123548142Y-90697714D01*
X123476714Y-90626285D01*
X123619571Y-89912000D02*
X122619571Y-89912000D01*
X122762428Y-89912000D02*
X122691000Y-89840571D01*
X122619571Y-89697714D01*
X122619571Y-89483428D01*
X122691000Y-89340571D01*
X122833857Y-89269142D01*
X123619571Y-89269142D01*
X122833857Y-89269142D02*
X122691000Y-89197714D01*
X122619571Y-89054857D01*
X122619571Y-88840571D01*
X122691000Y-88697714D01*
X122833857Y-88626285D01*
X123619571Y-88626285D01*
X122619571Y-87269142D02*
X123833857Y-87269142D01*
X123976714Y-87340571D01*
X124048142Y-87412000D01*
X124119571Y-87554857D01*
X124119571Y-87769142D01*
X124048142Y-87912000D01*
X123548142Y-87269142D02*
X123619571Y-87412000D01*
X123619571Y-87697714D01*
X123548142Y-87840571D01*
X123476714Y-87912000D01*
X123333857Y-87983428D01*
X122905285Y-87983428D01*
X122762428Y-87912000D01*
X122691000Y-87840571D01*
X122619571Y-87697714D01*
X122619571Y-87412000D01*
X122691000Y-87269142D01*
X123619571Y-85912000D02*
X122833857Y-85912000D01*
X122691000Y-85983428D01*
X122619571Y-86126285D01*
X122619571Y-86412000D01*
X122691000Y-86554857D01*
X123548142Y-85912000D02*
X123619571Y-86054857D01*
X123619571Y-86412000D01*
X123548142Y-86554857D01*
X123405285Y-86626285D01*
X123262428Y-86626285D01*
X123119571Y-86554857D01*
X123048142Y-86412000D01*
X123048142Y-86054857D01*
X122976714Y-85912000D01*
X123619571Y-85197714D02*
X122619571Y-85197714D01*
X122905285Y-85197714D02*
X122762428Y-85126285D01*
X122691000Y-85054857D01*
X122619571Y-84912000D01*
X122619571Y-84769142D01*
X122619571Y-84483428D02*
X122619571Y-83912000D01*
X122119571Y-84269142D02*
X123405285Y-84269142D01*
X123548142Y-84197714D01*
X123619571Y-84054857D01*
X123619571Y-83912000D01*
X123548142Y-82840571D02*
X123619571Y-82983428D01*
X123619571Y-83269142D01*
X123548142Y-83412000D01*
X123405285Y-83483428D01*
X122833857Y-83483428D01*
X122691000Y-83412000D01*
X122619571Y-83269142D01*
X122619571Y-82983428D01*
X122691000Y-82840571D01*
X122833857Y-82769142D01*
X122976714Y-82769142D01*
X123119571Y-83483428D01*
X122619571Y-82126285D02*
X123619571Y-82126285D01*
X122762428Y-82126285D02*
X122691000Y-82054857D01*
X122619571Y-81912000D01*
X122619571Y-81697714D01*
X122691000Y-81554857D01*
X122833857Y-81483428D01*
X123619571Y-81483428D01*
X123619571Y-78983428D02*
X122833857Y-78983428D01*
X122691000Y-79054857D01*
X122619571Y-79197714D01*
X122619571Y-79483428D01*
X122691000Y-79626285D01*
X123548142Y-78983428D02*
X123619571Y-79126285D01*
X123619571Y-79483428D01*
X123548142Y-79626285D01*
X123405285Y-79697714D01*
X123262428Y-79697714D01*
X123119571Y-79626285D01*
X123048142Y-79483428D01*
X123048142Y-79126285D01*
X122976714Y-78983428D01*
X122619571Y-78269142D02*
X123619571Y-78269142D01*
X122762428Y-78269142D02*
X122691000Y-78197714D01*
X122619571Y-78054857D01*
X122619571Y-77840571D01*
X122691000Y-77697714D01*
X122833857Y-77626285D01*
X123619571Y-77626285D01*
X123619571Y-76269142D02*
X122119571Y-76269142D01*
X123548142Y-76269142D02*
X123619571Y-76412000D01*
X123619571Y-76697714D01*
X123548142Y-76840571D01*
X123476714Y-76912000D01*
X123333857Y-76983428D01*
X122905285Y-76983428D01*
X122762428Y-76912000D01*
X122691000Y-76840571D01*
X122619571Y-76697714D01*
X122619571Y-76412000D01*
X122691000Y-76269142D01*
X123619571Y-74412000D02*
X122619571Y-74412000D01*
X122762428Y-74412000D02*
X122691000Y-74340571D01*
X122619571Y-74197714D01*
X122619571Y-73983428D01*
X122691000Y-73840571D01*
X122833857Y-73769142D01*
X123619571Y-73769142D01*
X122833857Y-73769142D02*
X122691000Y-73697714D01*
X122619571Y-73554857D01*
X122619571Y-73340571D01*
X122691000Y-73197714D01*
X122833857Y-73126285D01*
X123619571Y-73126285D01*
X123476714Y-72412000D02*
X123548142Y-72340571D01*
X123619571Y-72412000D01*
X123548142Y-72483428D01*
X123476714Y-72412000D01*
X123619571Y-72412000D01*
X122619571Y-70769142D02*
X122619571Y-70197714D01*
X122119571Y-70554857D02*
X123405285Y-70554857D01*
X123548142Y-70483428D01*
X123619571Y-70340571D01*
X123619571Y-70197714D01*
X123619571Y-69483428D02*
X123548142Y-69626285D01*
X123476714Y-69697714D01*
X123333857Y-69769142D01*
X122905285Y-69769142D01*
X122762428Y-69697714D01*
X122691000Y-69626285D01*
X122619571Y-69483428D01*
X122619571Y-69269142D01*
X122691000Y-69126285D01*
X122762428Y-69054857D01*
X122905285Y-68983428D01*
X123333857Y-68983428D01*
X123476714Y-69054857D01*
X123548142Y-69126285D01*
X123619571Y-69269142D01*
X123619571Y-69483428D01*
X123619571Y-68340571D02*
X122619571Y-68340571D01*
X122905285Y-68340571D02*
X122762428Y-68269142D01*
X122691000Y-68197714D01*
X122619571Y-68054857D01*
X122619571Y-67912000D01*
X123619571Y-67197714D02*
X123548142Y-67340571D01*
X123476714Y-67412000D01*
X123333857Y-67483428D01*
X122905285Y-67483428D01*
X122762428Y-67412000D01*
X122691000Y-67340571D01*
X122619571Y-67197714D01*
X122619571Y-66983428D01*
X122691000Y-66840571D01*
X122762428Y-66769142D01*
X122905285Y-66697714D01*
X123333857Y-66697714D01*
X123476714Y-66769142D01*
X123548142Y-66840571D01*
X123619571Y-66983428D01*
X123619571Y-67197714D01*
D11*
G04 #@! TO.C,J3*
X146364000Y-123250000D02*
X146364000Y-118050000D01*
X98044000Y-123250000D02*
X146364000Y-123250000D01*
X95444000Y-118050000D02*
X146364000Y-118050000D01*
X98044000Y-123250000D02*
X98044000Y-120650000D01*
X98044000Y-120650000D02*
X95444000Y-120650000D01*
X95444000Y-120650000D02*
X95444000Y-118050000D01*
X96774000Y-123250000D02*
X95444000Y-123250000D01*
X95444000Y-123250000D02*
X95444000Y-121920000D01*
G04 #@! TO.C,J1*
X95444000Y-95310000D02*
X100644000Y-95310000D01*
X95444000Y-77470000D02*
X95444000Y-95310000D01*
X100644000Y-74870000D02*
X100644000Y-95310000D01*
X95444000Y-77470000D02*
X98044000Y-77470000D01*
X98044000Y-77470000D02*
X98044000Y-74870000D01*
X98044000Y-74870000D02*
X100644000Y-74870000D01*
X95444000Y-76200000D02*
X95444000Y-74870000D01*
X95444000Y-74870000D02*
X96774000Y-74870000D01*
G04 #@! TO.C,J2*
X95444000Y-113090000D02*
X100644000Y-113090000D01*
X95444000Y-100330000D02*
X95444000Y-113090000D01*
X100644000Y-97730000D02*
X100644000Y-113090000D01*
X95444000Y-100330000D02*
X98044000Y-100330000D01*
X98044000Y-100330000D02*
X98044000Y-97730000D01*
X98044000Y-97730000D02*
X100644000Y-97730000D01*
X95444000Y-99060000D02*
X95444000Y-97730000D01*
X95444000Y-97730000D02*
X96774000Y-97730000D01*
G04 #@! TO.C,J4*
X141164000Y-91246000D02*
X146364000Y-91246000D01*
X141164000Y-68326000D02*
X141164000Y-91246000D01*
X146364000Y-65726000D02*
X146364000Y-91246000D01*
X141164000Y-68326000D02*
X143764000Y-68326000D01*
X143764000Y-68326000D02*
X143764000Y-65726000D01*
X143764000Y-65726000D02*
X146364000Y-65726000D01*
X141164000Y-67056000D02*
X141164000Y-65726000D01*
X141164000Y-65726000D02*
X142494000Y-65726000D01*
G04 #@! TO.C,J5*
X141164000Y-113090000D02*
X146364000Y-113090000D01*
X141164000Y-95250000D02*
X141164000Y-113090000D01*
X146364000Y-92650000D02*
X146364000Y-113090000D01*
X141164000Y-95250000D02*
X143764000Y-95250000D01*
X143764000Y-95250000D02*
X143764000Y-92650000D01*
X143764000Y-92650000D02*
X146364000Y-92650000D01*
X141164000Y-93980000D02*
X141164000Y-92650000D01*
X141164000Y-92650000D02*
X142494000Y-92650000D01*
G04 #@! TO.C,J6*
X107128000Y-56582000D02*
X107128000Y-59242000D01*
X117348000Y-56582000D02*
X107128000Y-56582000D01*
X117348000Y-59242000D02*
X107128000Y-59242000D01*
X117348000Y-56582000D02*
X117348000Y-59242000D01*
X118618000Y-56582000D02*
X119948000Y-56582000D01*
X119948000Y-56582000D02*
X119948000Y-57912000D01*
G04 #@! TO.C,J7*
X103438000Y-59242000D02*
X103438000Y-56582000D01*
X98298000Y-59242000D02*
X103438000Y-59242000D01*
X98298000Y-56582000D02*
X103438000Y-56582000D01*
X98298000Y-59242000D02*
X98298000Y-56582000D01*
X97028000Y-59242000D02*
X95698000Y-59242000D01*
X95698000Y-59242000D02*
X95698000Y-57912000D01*
G04 #@! TO.C,J3*
D12*
X93896380Y-120983333D02*
X94610666Y-120983333D01*
X94753523Y-121030952D01*
X94848761Y-121126190D01*
X94896380Y-121269047D01*
X94896380Y-121364285D01*
X93896380Y-120602380D02*
X93896380Y-119983333D01*
X94277333Y-120316666D01*
X94277333Y-120173809D01*
X94324952Y-120078571D01*
X94372571Y-120030952D01*
X94467809Y-119983333D01*
X94705904Y-119983333D01*
X94801142Y-120030952D01*
X94848761Y-120078571D01*
X94896380Y-120173809D01*
X94896380Y-120459523D01*
X94848761Y-120554761D01*
X94801142Y-120602380D01*
G04 #@! TO.C,REF\002A\002A*
X148614666Y-68402380D02*
X148281333Y-67926190D01*
X148043238Y-68402380D02*
X148043238Y-67402380D01*
X148424190Y-67402380D01*
X148519428Y-67450000D01*
X148567047Y-67497619D01*
X148614666Y-67592857D01*
X148614666Y-67735714D01*
X148567047Y-67830952D01*
X148519428Y-67878571D01*
X148424190Y-67926190D01*
X148043238Y-67926190D01*
X149043238Y-67878571D02*
X149376571Y-67878571D01*
X149519428Y-68402380D02*
X149043238Y-68402380D01*
X149043238Y-67402380D01*
X149519428Y-67402380D01*
X150281333Y-67878571D02*
X149948000Y-67878571D01*
X149948000Y-68402380D02*
X149948000Y-67402380D01*
X150424190Y-67402380D01*
X150948000Y-67402380D02*
X150948000Y-67640476D01*
X150709904Y-67545238D02*
X150948000Y-67640476D01*
X151186095Y-67545238D01*
X150805142Y-67830952D02*
X150948000Y-67640476D01*
X151090857Y-67830952D01*
X151709904Y-67402380D02*
X151709904Y-67640476D01*
X151471809Y-67545238D02*
X151709904Y-67640476D01*
X151948000Y-67545238D01*
X151567047Y-67830952D02*
X151709904Y-67640476D01*
X151852761Y-67830952D01*
G04 #@! TO.C,J1*
X97710666Y-73322380D02*
X97710666Y-74036666D01*
X97663047Y-74179523D01*
X97567809Y-74274761D01*
X97424952Y-74322380D01*
X97329714Y-74322380D01*
X98710666Y-74322380D02*
X98139238Y-74322380D01*
X98424952Y-74322380D02*
X98424952Y-73322380D01*
X98329714Y-73465238D01*
X98234476Y-73560476D01*
X98139238Y-73608095D01*
G04 #@! TO.C,J2*
X97710666Y-96182380D02*
X97710666Y-96896666D01*
X97663047Y-97039523D01*
X97567809Y-97134761D01*
X97424952Y-97182380D01*
X97329714Y-97182380D01*
X98139238Y-96277619D02*
X98186857Y-96230000D01*
X98282095Y-96182380D01*
X98520190Y-96182380D01*
X98615428Y-96230000D01*
X98663047Y-96277619D01*
X98710666Y-96372857D01*
X98710666Y-96468095D01*
X98663047Y-96610952D01*
X98091619Y-97182380D01*
X98710666Y-97182380D01*
G04 #@! TO.C,J4*
X143430666Y-64178380D02*
X143430666Y-64892666D01*
X143383047Y-65035523D01*
X143287809Y-65130761D01*
X143144952Y-65178380D01*
X143049714Y-65178380D01*
X144335428Y-64511714D02*
X144335428Y-65178380D01*
X144097333Y-64130761D02*
X143859238Y-64845047D01*
X144478285Y-64845047D01*
G04 #@! TO.C,J5*
X143430666Y-91102380D02*
X143430666Y-91816666D01*
X143383047Y-91959523D01*
X143287809Y-92054761D01*
X143144952Y-92102380D01*
X143049714Y-92102380D01*
X144383047Y-91102380D02*
X143906857Y-91102380D01*
X143859238Y-91578571D01*
X143906857Y-91530952D01*
X144002095Y-91483333D01*
X144240190Y-91483333D01*
X144335428Y-91530952D01*
X144383047Y-91578571D01*
X144430666Y-91673809D01*
X144430666Y-91911904D01*
X144383047Y-92007142D01*
X144335428Y-92054761D01*
X144240190Y-92102380D01*
X144002095Y-92102380D01*
X143906857Y-92054761D01*
X143859238Y-92007142D01*
G04 #@! TO.C,J6*
X120400380Y-58245333D02*
X121114666Y-58245333D01*
X121257523Y-58292952D01*
X121352761Y-58388190D01*
X121400380Y-58531047D01*
X121400380Y-58626285D01*
X120400380Y-57340571D02*
X120400380Y-57531047D01*
X120448000Y-57626285D01*
X120495619Y-57673904D01*
X120638476Y-57769142D01*
X120828952Y-57816761D01*
X121209904Y-57816761D01*
X121305142Y-57769142D01*
X121352761Y-57721523D01*
X121400380Y-57626285D01*
X121400380Y-57435809D01*
X121352761Y-57340571D01*
X121305142Y-57292952D01*
X121209904Y-57245333D01*
X120971809Y-57245333D01*
X120876571Y-57292952D01*
X120828952Y-57340571D01*
X120781333Y-57435809D01*
X120781333Y-57626285D01*
X120828952Y-57721523D01*
X120876571Y-57769142D01*
X120971809Y-57816761D01*
G04 #@! TO.C,J7*
X94150380Y-58245333D02*
X94864666Y-58245333D01*
X95007523Y-58292952D01*
X95102761Y-58388190D01*
X95150380Y-58531047D01*
X95150380Y-58626285D01*
X94150380Y-57864380D02*
X94150380Y-57197714D01*
X95150380Y-57626285D01*
G04 #@! TO.C,REF\002A\002A*
X90614666Y-68402380D02*
X90281333Y-67926190D01*
X90043238Y-68402380D02*
X90043238Y-67402380D01*
X90424190Y-67402380D01*
X90519428Y-67450000D01*
X90567047Y-67497619D01*
X90614666Y-67592857D01*
X90614666Y-67735714D01*
X90567047Y-67830952D01*
X90519428Y-67878571D01*
X90424190Y-67926190D01*
X90043238Y-67926190D01*
X91043238Y-67878571D02*
X91376571Y-67878571D01*
X91519428Y-68402380D02*
X91043238Y-68402380D01*
X91043238Y-67402380D01*
X91519428Y-67402380D01*
X92281333Y-67878571D02*
X91948000Y-67878571D01*
X91948000Y-68402380D02*
X91948000Y-67402380D01*
X92424190Y-67402380D01*
X92948000Y-67402380D02*
X92948000Y-67640476D01*
X92709904Y-67545238D02*
X92948000Y-67640476D01*
X93186095Y-67545238D01*
X92805142Y-67830952D02*
X92948000Y-67640476D01*
X93090857Y-67830952D01*
X93709904Y-67402380D02*
X93709904Y-67640476D01*
X93471809Y-67545238D02*
X93709904Y-67640476D01*
X93948000Y-67545238D01*
X93567047Y-67830952D02*
X93709904Y-67640476D01*
X93852761Y-67830952D01*
G04 #@! TD*
M02*
