G04 #@! TF.GenerationSoftware,KiCad,Pcbnew,(5.0.1)-4*
G04 #@! TF.CreationDate,2018-11-19T18:58:20-05:00*
G04 #@! TF.ProjectId,k64shield,6B3634736869656C642E6B696361645F,rev?*
G04 #@! TF.SameCoordinates,Original*
G04 #@! TF.FileFunction,Legend,Top*
G04 #@! TF.FilePolarity,Positive*
%FSLAX46Y46*%
G04 Gerber Fmt 4.6, Leading zero omitted, Abs format (unit mm)*
G04 Created by KiCad (PCBNEW (5.0.1)-4) date 11/19/2018 6:58:20 PM*
%MOMM*%
%LPD*%
G01*
G04 APERTURE LIST*
%ADD10C,0.300000*%
%ADD11C,0.120000*%
%ADD12C,0.150000*%
G04 APERTURE END LIST*
D10*
X101057714Y-56304571D02*
X101057714Y-54804571D01*
X101700571Y-56304571D02*
X101700571Y-55518857D01*
X101629142Y-55376000D01*
X101486285Y-55304571D01*
X101272000Y-55304571D01*
X101129142Y-55376000D01*
X101057714Y-55447428D01*
X102986285Y-56233142D02*
X102843428Y-56304571D01*
X102557714Y-56304571D01*
X102414857Y-56233142D01*
X102343428Y-56090285D01*
X102343428Y-55518857D01*
X102414857Y-55376000D01*
X102557714Y-55304571D01*
X102843428Y-55304571D01*
X102986285Y-55376000D01*
X103057714Y-55518857D01*
X103057714Y-55661714D01*
X102343428Y-55804571D01*
X104343428Y-56304571D02*
X104343428Y-55518857D01*
X104272000Y-55376000D01*
X104129142Y-55304571D01*
X103843428Y-55304571D01*
X103700571Y-55376000D01*
X104343428Y-56233142D02*
X104200571Y-56304571D01*
X103843428Y-56304571D01*
X103700571Y-56233142D01*
X103629142Y-56090285D01*
X103629142Y-55947428D01*
X103700571Y-55804571D01*
X103843428Y-55733142D01*
X104200571Y-55733142D01*
X104343428Y-55661714D01*
X105700571Y-56304571D02*
X105700571Y-54804571D01*
X105700571Y-56233142D02*
X105557714Y-56304571D01*
X105272000Y-56304571D01*
X105129142Y-56233142D01*
X105057714Y-56161714D01*
X104986285Y-56018857D01*
X104986285Y-55590285D01*
X105057714Y-55447428D01*
X105129142Y-55376000D01*
X105272000Y-55304571D01*
X105557714Y-55304571D01*
X105700571Y-55376000D01*
X106986285Y-56233142D02*
X106843428Y-56304571D01*
X106557714Y-56304571D01*
X106414857Y-56233142D01*
X106343428Y-56090285D01*
X106343428Y-55518857D01*
X106414857Y-55376000D01*
X106557714Y-55304571D01*
X106843428Y-55304571D01*
X106986285Y-55376000D01*
X107057714Y-55518857D01*
X107057714Y-55661714D01*
X106343428Y-55804571D01*
X107700571Y-56304571D02*
X107700571Y-55304571D01*
X107700571Y-55590285D02*
X107772000Y-55447428D01*
X107843428Y-55376000D01*
X107986285Y-55304571D01*
X108129142Y-55304571D01*
X108557714Y-56233142D02*
X108700571Y-56304571D01*
X108986285Y-56304571D01*
X109129142Y-56233142D01*
X109200571Y-56090285D01*
X109200571Y-56018857D01*
X109129142Y-55876000D01*
X108986285Y-55804571D01*
X108772000Y-55804571D01*
X108629142Y-55733142D01*
X108557714Y-55590285D01*
X108557714Y-55518857D01*
X108629142Y-55376000D01*
X108772000Y-55304571D01*
X108986285Y-55304571D01*
X109129142Y-55376000D01*
X111200571Y-56304571D02*
X111057714Y-56233142D01*
X110986285Y-56161714D01*
X110914857Y-56018857D01*
X110914857Y-55590285D01*
X110986285Y-55447428D01*
X111057714Y-55376000D01*
X111200571Y-55304571D01*
X111414857Y-55304571D01*
X111557714Y-55376000D01*
X111629142Y-55447428D01*
X111700571Y-55590285D01*
X111700571Y-56018857D01*
X111629142Y-56161714D01*
X111557714Y-56233142D01*
X111414857Y-56304571D01*
X111200571Y-56304571D01*
X112343428Y-55304571D02*
X112343428Y-56304571D01*
X112343428Y-55447428D02*
X112414857Y-55376000D01*
X112557714Y-55304571D01*
X112772000Y-55304571D01*
X112914857Y-55376000D01*
X112986285Y-55518857D01*
X112986285Y-56304571D01*
X114629142Y-55304571D02*
X115200571Y-55304571D01*
X114843428Y-54804571D02*
X114843428Y-56090285D01*
X114914857Y-56233142D01*
X115057714Y-56304571D01*
X115200571Y-56304571D01*
X115700571Y-56304571D02*
X115700571Y-54804571D01*
X116343428Y-56304571D02*
X116343428Y-55518857D01*
X116272000Y-55376000D01*
X116129142Y-55304571D01*
X115914857Y-55304571D01*
X115772000Y-55376000D01*
X115700571Y-55447428D01*
X117057714Y-56304571D02*
X117057714Y-55304571D01*
X117057714Y-54804571D02*
X116986285Y-54876000D01*
X117057714Y-54947428D01*
X117129142Y-54876000D01*
X117057714Y-54804571D01*
X117057714Y-54947428D01*
X117700571Y-56233142D02*
X117843428Y-56304571D01*
X118129142Y-56304571D01*
X118272000Y-56233142D01*
X118343428Y-56090285D01*
X118343428Y-56018857D01*
X118272000Y-55876000D01*
X118129142Y-55804571D01*
X117914857Y-55804571D01*
X117772000Y-55733142D01*
X117700571Y-55590285D01*
X117700571Y-55518857D01*
X117772000Y-55376000D01*
X117914857Y-55304571D01*
X118129142Y-55304571D01*
X118272000Y-55376000D01*
X120057714Y-56233142D02*
X120200571Y-56304571D01*
X120486285Y-56304571D01*
X120629142Y-56233142D01*
X120700571Y-56090285D01*
X120700571Y-56018857D01*
X120629142Y-55876000D01*
X120486285Y-55804571D01*
X120272000Y-55804571D01*
X120129142Y-55733142D01*
X120057714Y-55590285D01*
X120057714Y-55518857D01*
X120129142Y-55376000D01*
X120272000Y-55304571D01*
X120486285Y-55304571D01*
X120629142Y-55376000D01*
X121343428Y-56304571D02*
X121343428Y-55304571D01*
X121343428Y-54804571D02*
X121272000Y-54876000D01*
X121343428Y-54947428D01*
X121414857Y-54876000D01*
X121343428Y-54804571D01*
X121343428Y-54947428D01*
X122700571Y-56304571D02*
X122700571Y-54804571D01*
X122700571Y-56233142D02*
X122557714Y-56304571D01*
X122272000Y-56304571D01*
X122129142Y-56233142D01*
X122057714Y-56161714D01*
X121986285Y-56018857D01*
X121986285Y-55590285D01*
X122057714Y-55447428D01*
X122129142Y-55376000D01*
X122272000Y-55304571D01*
X122557714Y-55304571D01*
X122700571Y-55376000D01*
X123986285Y-56233142D02*
X123843428Y-56304571D01*
X123557714Y-56304571D01*
X123414857Y-56233142D01*
X123343428Y-56090285D01*
X123343428Y-55518857D01*
X123414857Y-55376000D01*
X123557714Y-55304571D01*
X123843428Y-55304571D01*
X123986285Y-55376000D01*
X124057714Y-55518857D01*
X124057714Y-55661714D01*
X123343428Y-55804571D01*
X111316857Y-117518571D02*
X111316857Y-116018571D01*
X111959714Y-117518571D02*
X111959714Y-116732857D01*
X111888285Y-116590000D01*
X111745428Y-116518571D01*
X111531142Y-116518571D01*
X111388285Y-116590000D01*
X111316857Y-116661428D01*
X113245428Y-117447142D02*
X113102571Y-117518571D01*
X112816857Y-117518571D01*
X112674000Y-117447142D01*
X112602571Y-117304285D01*
X112602571Y-116732857D01*
X112674000Y-116590000D01*
X112816857Y-116518571D01*
X113102571Y-116518571D01*
X113245428Y-116590000D01*
X113316857Y-116732857D01*
X113316857Y-116875714D01*
X112602571Y-117018571D01*
X114602571Y-117518571D02*
X114602571Y-116732857D01*
X114531142Y-116590000D01*
X114388285Y-116518571D01*
X114102571Y-116518571D01*
X113959714Y-116590000D01*
X114602571Y-117447142D02*
X114459714Y-117518571D01*
X114102571Y-117518571D01*
X113959714Y-117447142D01*
X113888285Y-117304285D01*
X113888285Y-117161428D01*
X113959714Y-117018571D01*
X114102571Y-116947142D01*
X114459714Y-116947142D01*
X114602571Y-116875714D01*
X115959714Y-117518571D02*
X115959714Y-116018571D01*
X115959714Y-117447142D02*
X115816857Y-117518571D01*
X115531142Y-117518571D01*
X115388285Y-117447142D01*
X115316857Y-117375714D01*
X115245428Y-117232857D01*
X115245428Y-116804285D01*
X115316857Y-116661428D01*
X115388285Y-116590000D01*
X115531142Y-116518571D01*
X115816857Y-116518571D01*
X115959714Y-116590000D01*
X117245428Y-117447142D02*
X117102571Y-117518571D01*
X116816857Y-117518571D01*
X116674000Y-117447142D01*
X116602571Y-117304285D01*
X116602571Y-116732857D01*
X116674000Y-116590000D01*
X116816857Y-116518571D01*
X117102571Y-116518571D01*
X117245428Y-116590000D01*
X117316857Y-116732857D01*
X117316857Y-116875714D01*
X116602571Y-117018571D01*
X117959714Y-117518571D02*
X117959714Y-116518571D01*
X117959714Y-116804285D02*
X118031142Y-116661428D01*
X118102571Y-116590000D01*
X118245428Y-116518571D01*
X118388285Y-116518571D01*
X120245428Y-117518571D02*
X120102571Y-117447142D01*
X120031142Y-117375714D01*
X119959714Y-117232857D01*
X119959714Y-116804285D01*
X120031142Y-116661428D01*
X120102571Y-116590000D01*
X120245428Y-116518571D01*
X120459714Y-116518571D01*
X120602571Y-116590000D01*
X120674000Y-116661428D01*
X120745428Y-116804285D01*
X120745428Y-117232857D01*
X120674000Y-117375714D01*
X120602571Y-117447142D01*
X120459714Y-117518571D01*
X120245428Y-117518571D01*
X121388285Y-116518571D02*
X121388285Y-117518571D01*
X121388285Y-116661428D02*
X121459714Y-116590000D01*
X121602571Y-116518571D01*
X121816857Y-116518571D01*
X121959714Y-116590000D01*
X122031142Y-116732857D01*
X122031142Y-117518571D01*
X123674000Y-116518571D02*
X124245428Y-116518571D01*
X123888285Y-116018571D02*
X123888285Y-117304285D01*
X123959714Y-117447142D01*
X124102571Y-117518571D01*
X124245428Y-117518571D01*
X124745428Y-117518571D02*
X124745428Y-116018571D01*
X125388285Y-117518571D02*
X125388285Y-116732857D01*
X125316857Y-116590000D01*
X125174000Y-116518571D01*
X124959714Y-116518571D01*
X124816857Y-116590000D01*
X124745428Y-116661428D01*
X126102571Y-117518571D02*
X126102571Y-116518571D01*
X126102571Y-116018571D02*
X126031142Y-116090000D01*
X126102571Y-116161428D01*
X126174000Y-116090000D01*
X126102571Y-116018571D01*
X126102571Y-116161428D01*
X126745428Y-117447142D02*
X126888285Y-117518571D01*
X127174000Y-117518571D01*
X127316857Y-117447142D01*
X127388285Y-117304285D01*
X127388285Y-117232857D01*
X127316857Y-117090000D01*
X127174000Y-117018571D01*
X126959714Y-117018571D01*
X126816857Y-116947142D01*
X126745428Y-116804285D01*
X126745428Y-116732857D01*
X126816857Y-116590000D01*
X126959714Y-116518571D01*
X127174000Y-116518571D01*
X127316857Y-116590000D01*
X129102571Y-117447142D02*
X129245428Y-117518571D01*
X129531142Y-117518571D01*
X129674000Y-117447142D01*
X129745428Y-117304285D01*
X129745428Y-117232857D01*
X129674000Y-117090000D01*
X129531142Y-117018571D01*
X129316857Y-117018571D01*
X129174000Y-116947142D01*
X129102571Y-116804285D01*
X129102571Y-116732857D01*
X129174000Y-116590000D01*
X129316857Y-116518571D01*
X129531142Y-116518571D01*
X129674000Y-116590000D01*
X130388285Y-117518571D02*
X130388285Y-116518571D01*
X130388285Y-116018571D02*
X130316857Y-116090000D01*
X130388285Y-116161428D01*
X130459714Y-116090000D01*
X130388285Y-116018571D01*
X130388285Y-116161428D01*
X131745428Y-117518571D02*
X131745428Y-116018571D01*
X131745428Y-117447142D02*
X131602571Y-117518571D01*
X131316857Y-117518571D01*
X131173999Y-117447142D01*
X131102571Y-117375714D01*
X131031142Y-117232857D01*
X131031142Y-116804285D01*
X131102571Y-116661428D01*
X131173999Y-116590000D01*
X131316857Y-116518571D01*
X131602571Y-116518571D01*
X131745428Y-116590000D01*
X133031142Y-117447142D02*
X132888285Y-117518571D01*
X132602571Y-117518571D01*
X132459714Y-117447142D01*
X132388285Y-117304285D01*
X132388285Y-116732857D01*
X132459714Y-116590000D01*
X132602571Y-116518571D01*
X132888285Y-116518571D01*
X133031142Y-116590000D01*
X133102571Y-116732857D01*
X133102571Y-116875714D01*
X132388285Y-117018571D01*
X135763142Y-57162000D02*
X135620285Y-57090571D01*
X135406000Y-57090571D01*
X135191714Y-57162000D01*
X135048857Y-57304857D01*
X134977428Y-57447714D01*
X134906000Y-57733428D01*
X134906000Y-57947714D01*
X134977428Y-58233428D01*
X135048857Y-58376285D01*
X135191714Y-58519142D01*
X135406000Y-58590571D01*
X135548857Y-58590571D01*
X135763142Y-58519142D01*
X135834571Y-58447714D01*
X135834571Y-57947714D01*
X135548857Y-57947714D01*
X136477428Y-58590571D02*
X136477428Y-57090571D01*
X137334571Y-58590571D01*
X137334571Y-57090571D01*
X138048857Y-58590571D02*
X138048857Y-57090571D01*
X138406000Y-57090571D01*
X138620285Y-57162000D01*
X138763142Y-57304857D01*
X138834571Y-57447714D01*
X138906000Y-57733428D01*
X138906000Y-57947714D01*
X138834571Y-58233428D01*
X138763142Y-58376285D01*
X138620285Y-58519142D01*
X138406000Y-58590571D01*
X138048857Y-58590571D01*
X135858285Y-59884571D02*
X135144000Y-59884571D01*
X135072571Y-60598857D01*
X135144000Y-60527428D01*
X135286857Y-60456000D01*
X135644000Y-60456000D01*
X135786857Y-60527428D01*
X135858285Y-60598857D01*
X135929714Y-60741714D01*
X135929714Y-61098857D01*
X135858285Y-61241714D01*
X135786857Y-61313142D01*
X135644000Y-61384571D01*
X135286857Y-61384571D01*
X135144000Y-61313142D01*
X135072571Y-61241714D01*
X136358285Y-59884571D02*
X136858285Y-61384571D01*
X137358285Y-59884571D01*
X118376000Y-63118857D02*
X118304571Y-63261714D01*
X118304571Y-63476000D01*
X118376000Y-63690285D01*
X118518857Y-63833142D01*
X118661714Y-63904571D01*
X118947428Y-63976000D01*
X119161714Y-63976000D01*
X119447428Y-63904571D01*
X119590285Y-63833142D01*
X119733142Y-63690285D01*
X119804571Y-63476000D01*
X119804571Y-63333142D01*
X119733142Y-63118857D01*
X119661714Y-63047428D01*
X119161714Y-63047428D01*
X119161714Y-63333142D01*
X119804571Y-62404571D02*
X118304571Y-62404571D01*
X119804571Y-61547428D01*
X118304571Y-61547428D01*
X119804571Y-60833142D02*
X118304571Y-60833142D01*
X118304571Y-60476000D01*
X118376000Y-60261714D01*
X118518857Y-60118857D01*
X118661714Y-60047428D01*
X118947428Y-59976000D01*
X119161714Y-59976000D01*
X119447428Y-60047428D01*
X119590285Y-60118857D01*
X119733142Y-60261714D01*
X119804571Y-60476000D01*
X119804571Y-60833142D01*
X115510571Y-62007714D02*
X115510571Y-62722000D01*
X116224857Y-62793428D01*
X116153428Y-62722000D01*
X116082000Y-62579142D01*
X116082000Y-62222000D01*
X116153428Y-62079142D01*
X116224857Y-62007714D01*
X116367714Y-61936285D01*
X116724857Y-61936285D01*
X116867714Y-62007714D01*
X116939142Y-62079142D01*
X117010571Y-62222000D01*
X117010571Y-62579142D01*
X116939142Y-62722000D01*
X116867714Y-62793428D01*
X115510571Y-61507714D02*
X117010571Y-61007714D01*
X115510571Y-60507714D01*
X114073714Y-62614857D02*
X114145142Y-62686285D01*
X114216571Y-62900571D01*
X114216571Y-63043428D01*
X114145142Y-63257714D01*
X114002285Y-63400571D01*
X113859428Y-63472000D01*
X113573714Y-63543428D01*
X113359428Y-63543428D01*
X113073714Y-63472000D01*
X112930857Y-63400571D01*
X112788000Y-63257714D01*
X112716571Y-63043428D01*
X112716571Y-62900571D01*
X112788000Y-62686285D01*
X112859428Y-62614857D01*
X114216571Y-61257714D02*
X114216571Y-61972000D01*
X112716571Y-61972000D01*
X114216571Y-60757714D02*
X112716571Y-60757714D01*
X114216571Y-59900571D02*
X113359428Y-60543428D01*
X112716571Y-59900571D02*
X113573714Y-60757714D01*
X111859142Y-62507714D02*
X111930571Y-62293428D01*
X111930571Y-61936285D01*
X111859142Y-61793428D01*
X111787714Y-61722000D01*
X111644857Y-61650571D01*
X111502000Y-61650571D01*
X111359142Y-61722000D01*
X111287714Y-61793428D01*
X111216285Y-61936285D01*
X111144857Y-62222000D01*
X111073428Y-62364857D01*
X111002000Y-62436285D01*
X110859142Y-62507714D01*
X110716285Y-62507714D01*
X110573428Y-62436285D01*
X110502000Y-62364857D01*
X110430571Y-62222000D01*
X110430571Y-61864857D01*
X110502000Y-61650571D01*
X111930571Y-61007714D02*
X110430571Y-61007714D01*
X108962000Y-62610857D02*
X108962000Y-61896571D01*
X109390571Y-62753714D02*
X107890571Y-62253714D01*
X109390571Y-61753714D01*
X107890571Y-60968000D02*
X107890571Y-60682285D01*
X107962000Y-60539428D01*
X108104857Y-60396571D01*
X108390571Y-60325142D01*
X108890571Y-60325142D01*
X109176285Y-60396571D01*
X109319142Y-60539428D01*
X109390571Y-60682285D01*
X109390571Y-60968000D01*
X109319142Y-61110857D01*
X109176285Y-61253714D01*
X108890571Y-61325142D01*
X108390571Y-61325142D01*
X108104857Y-61253714D01*
X107962000Y-61110857D01*
X107890571Y-60968000D01*
X102715142Y-63511714D02*
X102786571Y-63297428D01*
X102786571Y-62940285D01*
X102715142Y-62797428D01*
X102643714Y-62726000D01*
X102500857Y-62654571D01*
X102358000Y-62654571D01*
X102215142Y-62726000D01*
X102143714Y-62797428D01*
X102072285Y-62940285D01*
X102000857Y-63226000D01*
X101929428Y-63368857D01*
X101858000Y-63440285D01*
X101715142Y-63511714D01*
X101572285Y-63511714D01*
X101429428Y-63440285D01*
X101358000Y-63368857D01*
X101286571Y-63226000D01*
X101286571Y-62868857D01*
X101358000Y-62654571D01*
X102786571Y-62011714D02*
X101286571Y-62011714D01*
X101358000Y-60511714D02*
X101286571Y-60654571D01*
X101286571Y-60868857D01*
X101358000Y-61083142D01*
X101500857Y-61226000D01*
X101643714Y-61297428D01*
X101929428Y-61368857D01*
X102143714Y-61368857D01*
X102429428Y-61297428D01*
X102572285Y-61226000D01*
X102715142Y-61083142D01*
X102786571Y-60868857D01*
X102786571Y-60726000D01*
X102715142Y-60511714D01*
X102643714Y-60440285D01*
X102143714Y-60440285D01*
X102143714Y-60726000D01*
X98746571Y-62007714D02*
X98746571Y-62722000D01*
X99460857Y-62793428D01*
X99389428Y-62722000D01*
X99318000Y-62579142D01*
X99318000Y-62222000D01*
X99389428Y-62079142D01*
X99460857Y-62007714D01*
X99603714Y-61936285D01*
X99960857Y-61936285D01*
X100103714Y-62007714D01*
X100175142Y-62079142D01*
X100246571Y-62222000D01*
X100246571Y-62579142D01*
X100175142Y-62722000D01*
X100103714Y-62793428D01*
X98746571Y-61507714D02*
X100246571Y-61007714D01*
X98746571Y-60507714D01*
X96278000Y-63118857D02*
X96206571Y-63261714D01*
X96206571Y-63476000D01*
X96278000Y-63690285D01*
X96420857Y-63833142D01*
X96563714Y-63904571D01*
X96849428Y-63976000D01*
X97063714Y-63976000D01*
X97349428Y-63904571D01*
X97492285Y-63833142D01*
X97635142Y-63690285D01*
X97706571Y-63476000D01*
X97706571Y-63333142D01*
X97635142Y-63118857D01*
X97563714Y-63047428D01*
X97063714Y-63047428D01*
X97063714Y-63333142D01*
X97706571Y-62404571D02*
X96206571Y-62404571D01*
X97706571Y-61547428D01*
X96206571Y-61547428D01*
X97706571Y-60833142D02*
X96206571Y-60833142D01*
X96206571Y-60476000D01*
X96278000Y-60261714D01*
X96420857Y-60118857D01*
X96563714Y-60047428D01*
X96849428Y-59976000D01*
X97063714Y-59976000D01*
X97349428Y-60047428D01*
X97492285Y-60118857D01*
X97635142Y-60261714D01*
X97706571Y-60476000D01*
X97706571Y-60833142D01*
X121069571Y-111304857D02*
X120355285Y-111804857D01*
X121069571Y-112162000D02*
X119569571Y-112162000D01*
X119569571Y-111590571D01*
X119641000Y-111447714D01*
X119712428Y-111376285D01*
X119855285Y-111304857D01*
X120069571Y-111304857D01*
X120212428Y-111376285D01*
X120283857Y-111447714D01*
X120355285Y-111590571D01*
X120355285Y-112162000D01*
X121069571Y-110662000D02*
X119569571Y-110662000D01*
X119569571Y-110090571D01*
X119641000Y-109947714D01*
X119712428Y-109876285D01*
X119855285Y-109804857D01*
X120069571Y-109804857D01*
X120212428Y-109876285D01*
X120283857Y-109947714D01*
X120355285Y-110090571D01*
X120355285Y-110662000D01*
X121069571Y-109162000D02*
X120069571Y-109162000D01*
X119569571Y-109162000D02*
X119641000Y-109233428D01*
X119712428Y-109162000D01*
X119641000Y-109090571D01*
X119569571Y-109162000D01*
X119712428Y-109162000D01*
X121069571Y-107304857D02*
X119569571Y-107304857D01*
X120641000Y-106804857D01*
X119569571Y-106304857D01*
X121069571Y-106304857D01*
X121069571Y-105376285D02*
X120998142Y-105519142D01*
X120926714Y-105590571D01*
X120783857Y-105662000D01*
X120355285Y-105662000D01*
X120212428Y-105590571D01*
X120141000Y-105519142D01*
X120069571Y-105376285D01*
X120069571Y-105162000D01*
X120141000Y-105019142D01*
X120212428Y-104947714D01*
X120355285Y-104876285D01*
X120783857Y-104876285D01*
X120926714Y-104947714D01*
X120998142Y-105019142D01*
X121069571Y-105162000D01*
X121069571Y-105376285D01*
X120069571Y-104447714D02*
X120069571Y-103876285D01*
X119569571Y-104233428D02*
X120855285Y-104233428D01*
X120998142Y-104162000D01*
X121069571Y-104019142D01*
X121069571Y-103876285D01*
X121069571Y-103162000D02*
X120998142Y-103304857D01*
X120926714Y-103376285D01*
X120783857Y-103447714D01*
X120355285Y-103447714D01*
X120212428Y-103376285D01*
X120141000Y-103304857D01*
X120069571Y-103162000D01*
X120069571Y-102947714D01*
X120141000Y-102804857D01*
X120212428Y-102733428D01*
X120355285Y-102662000D01*
X120783857Y-102662000D01*
X120926714Y-102733428D01*
X120998142Y-102804857D01*
X121069571Y-102947714D01*
X121069571Y-103162000D01*
X121069571Y-102019142D02*
X120069571Y-102019142D01*
X120355285Y-102019142D02*
X120212428Y-101947714D01*
X120141000Y-101876285D01*
X120069571Y-101733428D01*
X120069571Y-101590571D01*
X121069571Y-99947714D02*
X119569571Y-99947714D01*
X119569571Y-99590571D01*
X119641000Y-99376285D01*
X119783857Y-99233428D01*
X119926714Y-99162000D01*
X120212428Y-99090571D01*
X120426714Y-99090571D01*
X120712428Y-99162000D01*
X120855285Y-99233428D01*
X120998142Y-99376285D01*
X121069571Y-99590571D01*
X121069571Y-99947714D01*
X121069571Y-98447714D02*
X120069571Y-98447714D01*
X120355285Y-98447714D02*
X120212428Y-98376285D01*
X120141000Y-98304857D01*
X120069571Y-98162000D01*
X120069571Y-98019142D01*
X121069571Y-97519142D02*
X120069571Y-97519142D01*
X119569571Y-97519142D02*
X119641000Y-97590571D01*
X119712428Y-97519142D01*
X119641000Y-97447714D01*
X119569571Y-97519142D01*
X119712428Y-97519142D01*
X120069571Y-96947714D02*
X121069571Y-96590571D01*
X120069571Y-96233428D01*
X120998142Y-95090571D02*
X121069571Y-95233428D01*
X121069571Y-95519142D01*
X120998142Y-95662000D01*
X120855285Y-95733428D01*
X120283857Y-95733428D01*
X120141000Y-95662000D01*
X120069571Y-95519142D01*
X120069571Y-95233428D01*
X120141000Y-95090571D01*
X120283857Y-95019142D01*
X120426714Y-95019142D01*
X120569571Y-95733428D01*
X121069571Y-94376285D02*
X120069571Y-94376285D01*
X120355285Y-94376285D02*
X120212428Y-94304857D01*
X120141000Y-94233428D01*
X120069571Y-94090571D01*
X120069571Y-93947714D01*
X120283857Y-91804857D02*
X120355285Y-91590571D01*
X120426714Y-91519142D01*
X120569571Y-91447714D01*
X120783857Y-91447714D01*
X120926714Y-91519142D01*
X120998142Y-91590571D01*
X121069571Y-91733428D01*
X121069571Y-92304857D01*
X119569571Y-92304857D01*
X119569571Y-91804857D01*
X119641000Y-91662000D01*
X119712428Y-91590571D01*
X119855285Y-91519142D01*
X119998142Y-91519142D01*
X120141000Y-91590571D01*
X120212428Y-91662000D01*
X120283857Y-91804857D01*
X120283857Y-92304857D01*
X121069571Y-90590571D02*
X120998142Y-90733428D01*
X120926714Y-90804857D01*
X120783857Y-90876285D01*
X120355285Y-90876285D01*
X120212428Y-90804857D01*
X120141000Y-90733428D01*
X120069571Y-90590571D01*
X120069571Y-90376285D01*
X120141000Y-90233428D01*
X120212428Y-90162000D01*
X120355285Y-90090571D01*
X120783857Y-90090571D01*
X120926714Y-90162000D01*
X120998142Y-90233428D01*
X121069571Y-90376285D01*
X121069571Y-90590571D01*
X121069571Y-88804857D02*
X120283857Y-88804857D01*
X120141000Y-88876285D01*
X120069571Y-89019142D01*
X120069571Y-89304857D01*
X120141000Y-89447714D01*
X120998142Y-88804857D02*
X121069571Y-88947714D01*
X121069571Y-89304857D01*
X120998142Y-89447714D01*
X120855285Y-89519142D01*
X120712428Y-89519142D01*
X120569571Y-89447714D01*
X120498142Y-89304857D01*
X120498142Y-88947714D01*
X120426714Y-88804857D01*
X121069571Y-88090571D02*
X120069571Y-88090571D01*
X120355285Y-88090571D02*
X120212428Y-88019142D01*
X120141000Y-87947714D01*
X120069571Y-87804857D01*
X120069571Y-87662000D01*
X121069571Y-86519142D02*
X119569571Y-86519142D01*
X120998142Y-86519142D02*
X121069571Y-86662000D01*
X121069571Y-86947714D01*
X120998142Y-87090571D01*
X120926714Y-87162000D01*
X120783857Y-87233428D01*
X120355285Y-87233428D01*
X120212428Y-87162000D01*
X120141000Y-87090571D01*
X120069571Y-86947714D01*
X120069571Y-86662000D01*
X120141000Y-86519142D01*
X120641000Y-84733428D02*
X120641000Y-84019142D01*
X121069571Y-84876285D02*
X119569571Y-84376285D01*
X121069571Y-83876285D01*
X121069571Y-82733428D02*
X119569571Y-82733428D01*
X120998142Y-82733428D02*
X121069571Y-82876285D01*
X121069571Y-83162000D01*
X120998142Y-83304857D01*
X120926714Y-83376285D01*
X120783857Y-83447714D01*
X120355285Y-83447714D01*
X120212428Y-83376285D01*
X120141000Y-83304857D01*
X120069571Y-83162000D01*
X120069571Y-82876285D01*
X120141000Y-82733428D01*
X121069571Y-81376285D02*
X120283857Y-81376285D01*
X120141000Y-81447714D01*
X120069571Y-81590571D01*
X120069571Y-81876285D01*
X120141000Y-82019142D01*
X120998142Y-81376285D02*
X121069571Y-81519142D01*
X121069571Y-81876285D01*
X120998142Y-82019142D01*
X120855285Y-82090571D01*
X120712428Y-82090571D01*
X120569571Y-82019142D01*
X120498142Y-81876285D01*
X120498142Y-81519142D01*
X120426714Y-81376285D01*
X120069571Y-80662000D02*
X121569571Y-80662000D01*
X120141000Y-80662000D02*
X120069571Y-80519142D01*
X120069571Y-80233428D01*
X120141000Y-80090571D01*
X120212428Y-80019142D01*
X120355285Y-79947714D01*
X120783857Y-79947714D01*
X120926714Y-80019142D01*
X120998142Y-80090571D01*
X121069571Y-80233428D01*
X121069571Y-80519142D01*
X120998142Y-80662000D01*
X120069571Y-79519142D02*
X120069571Y-78947714D01*
X119569571Y-79304857D02*
X120855285Y-79304857D01*
X120998142Y-79233428D01*
X121069571Y-79090571D01*
X121069571Y-78947714D01*
X120998142Y-77876285D02*
X121069571Y-78019142D01*
X121069571Y-78304857D01*
X120998142Y-78447714D01*
X120855285Y-78519142D01*
X120283857Y-78519142D01*
X120141000Y-78447714D01*
X120069571Y-78304857D01*
X120069571Y-78019142D01*
X120141000Y-77876285D01*
X120283857Y-77804857D01*
X120426714Y-77804857D01*
X120569571Y-78519142D01*
X121069571Y-77162000D02*
X120069571Y-77162000D01*
X120355285Y-77162000D02*
X120212428Y-77090571D01*
X120141000Y-77019142D01*
X120069571Y-76876285D01*
X120069571Y-76733428D01*
X120069571Y-75304857D02*
X120069571Y-74733428D01*
X121069571Y-75090571D02*
X119783857Y-75090571D01*
X119641000Y-75019142D01*
X119569571Y-74876285D01*
X119569571Y-74733428D01*
X121069571Y-74019142D02*
X120998142Y-74162000D01*
X120926714Y-74233428D01*
X120783857Y-74304857D01*
X120355285Y-74304857D01*
X120212428Y-74233428D01*
X120141000Y-74162000D01*
X120069571Y-74019142D01*
X120069571Y-73804857D01*
X120141000Y-73662000D01*
X120212428Y-73590571D01*
X120355285Y-73519142D01*
X120783857Y-73519142D01*
X120926714Y-73590571D01*
X120998142Y-73662000D01*
X121069571Y-73804857D01*
X121069571Y-74019142D01*
X121069571Y-72876285D02*
X120069571Y-72876285D01*
X120355285Y-72876285D02*
X120212428Y-72804857D01*
X120141000Y-72733428D01*
X120069571Y-72590571D01*
X120069571Y-72447714D01*
X121069571Y-70804857D02*
X119569571Y-70804857D01*
X121069571Y-69947714D02*
X120212428Y-70590571D01*
X119569571Y-69947714D02*
X120426714Y-70804857D01*
X119569571Y-68662000D02*
X119569571Y-68947714D01*
X119641000Y-69090571D01*
X119712428Y-69162000D01*
X119926714Y-69304857D01*
X120212428Y-69376285D01*
X120783857Y-69376285D01*
X120926714Y-69304857D01*
X120998142Y-69233428D01*
X121069571Y-69090571D01*
X121069571Y-68804857D01*
X120998142Y-68662000D01*
X120926714Y-68590571D01*
X120783857Y-68519142D01*
X120426714Y-68519142D01*
X120283857Y-68590571D01*
X120212428Y-68662000D01*
X120141000Y-68804857D01*
X120141000Y-69090571D01*
X120212428Y-69233428D01*
X120283857Y-69304857D01*
X120426714Y-69376285D01*
X120069571Y-67233428D02*
X121069571Y-67233428D01*
X119498142Y-67590571D02*
X120569571Y-67947714D01*
X120569571Y-67019142D01*
X123619571Y-105197714D02*
X122619571Y-105197714D01*
X122762428Y-105197714D02*
X122691000Y-105126285D01*
X122619571Y-104983428D01*
X122619571Y-104769142D01*
X122691000Y-104626285D01*
X122833857Y-104554857D01*
X123619571Y-104554857D01*
X122833857Y-104554857D02*
X122691000Y-104483428D01*
X122619571Y-104340571D01*
X122619571Y-104126285D01*
X122691000Y-103983428D01*
X122833857Y-103912000D01*
X123619571Y-103912000D01*
X123476714Y-103197714D02*
X123548142Y-103126285D01*
X123619571Y-103197714D01*
X123548142Y-103269142D01*
X123476714Y-103197714D01*
X123619571Y-103197714D01*
X123619571Y-101340571D02*
X122119571Y-101340571D01*
X122691000Y-101340571D02*
X122619571Y-101197714D01*
X122619571Y-100912000D01*
X122691000Y-100769142D01*
X122762428Y-100697714D01*
X122905285Y-100626285D01*
X123333857Y-100626285D01*
X123476714Y-100697714D01*
X123548142Y-100769142D01*
X123619571Y-100912000D01*
X123619571Y-101197714D01*
X123548142Y-101340571D01*
X123619571Y-99340571D02*
X122833857Y-99340571D01*
X122691000Y-99412000D01*
X122619571Y-99554857D01*
X122619571Y-99840571D01*
X122691000Y-99983428D01*
X123548142Y-99340571D02*
X123619571Y-99483428D01*
X123619571Y-99840571D01*
X123548142Y-99983428D01*
X123405285Y-100054857D01*
X123262428Y-100054857D01*
X123119571Y-99983428D01*
X123048142Y-99840571D01*
X123048142Y-99483428D01*
X122976714Y-99340571D01*
X122619571Y-97983428D02*
X123619571Y-97983428D01*
X122619571Y-98626285D02*
X123405285Y-98626285D01*
X123548142Y-98554857D01*
X123619571Y-98412000D01*
X123619571Y-98197714D01*
X123548142Y-98054857D01*
X123476714Y-97983428D01*
X123619571Y-97269142D02*
X122619571Y-97269142D01*
X122762428Y-97269142D02*
X122691000Y-97197714D01*
X122619571Y-97054857D01*
X122619571Y-96840571D01*
X122691000Y-96697714D01*
X122833857Y-96626285D01*
X123619571Y-96626285D01*
X122833857Y-96626285D02*
X122691000Y-96554857D01*
X122619571Y-96412000D01*
X122619571Y-96197714D01*
X122691000Y-96054857D01*
X122833857Y-95983428D01*
X123619571Y-95983428D01*
X122619571Y-94626285D02*
X123833857Y-94626285D01*
X123976714Y-94697714D01*
X124048142Y-94769142D01*
X124119571Y-94912000D01*
X124119571Y-95126285D01*
X124048142Y-95269142D01*
X123548142Y-94626285D02*
X123619571Y-94769142D01*
X123619571Y-95054857D01*
X123548142Y-95197714D01*
X123476714Y-95269142D01*
X123333857Y-95340571D01*
X122905285Y-95340571D01*
X122762428Y-95269142D01*
X122691000Y-95197714D01*
X122619571Y-95054857D01*
X122619571Y-94769142D01*
X122691000Y-94626285D01*
X123619571Y-93269142D02*
X122833857Y-93269142D01*
X122691000Y-93340571D01*
X122619571Y-93483428D01*
X122619571Y-93769142D01*
X122691000Y-93912000D01*
X123548142Y-93269142D02*
X123619571Y-93412000D01*
X123619571Y-93769142D01*
X123548142Y-93912000D01*
X123405285Y-93983428D01*
X123262428Y-93983428D01*
X123119571Y-93912000D01*
X123048142Y-93769142D01*
X123048142Y-93412000D01*
X122976714Y-93269142D01*
X123619571Y-92554857D02*
X122619571Y-92554857D01*
X122905285Y-92554857D02*
X122762428Y-92483428D01*
X122691000Y-92412000D01*
X122619571Y-92269142D01*
X122619571Y-92126285D01*
X122619571Y-91840571D02*
X122619571Y-91269142D01*
X122119571Y-91626285D02*
X123405285Y-91626285D01*
X123548142Y-91554857D01*
X123619571Y-91412000D01*
X123619571Y-91269142D01*
X123548142Y-90197714D02*
X123619571Y-90340571D01*
X123619571Y-90626285D01*
X123548142Y-90769142D01*
X123405285Y-90840571D01*
X122833857Y-90840571D01*
X122691000Y-90769142D01*
X122619571Y-90626285D01*
X122619571Y-90340571D01*
X122691000Y-90197714D01*
X122833857Y-90126285D01*
X122976714Y-90126285D01*
X123119571Y-90840571D01*
X122619571Y-89483428D02*
X123619571Y-89483428D01*
X122762428Y-89483428D02*
X122691000Y-89412000D01*
X122619571Y-89269142D01*
X122619571Y-89054857D01*
X122691000Y-88912000D01*
X122833857Y-88840571D01*
X123619571Y-88840571D01*
X123619571Y-86340571D02*
X122833857Y-86340571D01*
X122691000Y-86412000D01*
X122619571Y-86554857D01*
X122619571Y-86840571D01*
X122691000Y-86983428D01*
X123548142Y-86340571D02*
X123619571Y-86483428D01*
X123619571Y-86840571D01*
X123548142Y-86983428D01*
X123405285Y-87054857D01*
X123262428Y-87054857D01*
X123119571Y-86983428D01*
X123048142Y-86840571D01*
X123048142Y-86483428D01*
X122976714Y-86340571D01*
X122619571Y-85626285D02*
X123619571Y-85626285D01*
X122762428Y-85626285D02*
X122691000Y-85554857D01*
X122619571Y-85412000D01*
X122619571Y-85197714D01*
X122691000Y-85054857D01*
X122833857Y-84983428D01*
X123619571Y-84983428D01*
X123619571Y-83626285D02*
X122119571Y-83626285D01*
X123548142Y-83626285D02*
X123619571Y-83769142D01*
X123619571Y-84054857D01*
X123548142Y-84197714D01*
X123476714Y-84269142D01*
X123333857Y-84340571D01*
X122905285Y-84340571D01*
X122762428Y-84269142D01*
X122691000Y-84197714D01*
X122619571Y-84054857D01*
X122619571Y-83769142D01*
X122691000Y-83626285D01*
X123619571Y-81769142D02*
X122619571Y-81769142D01*
X122762428Y-81769142D02*
X122691000Y-81697714D01*
X122619571Y-81554857D01*
X122619571Y-81340571D01*
X122691000Y-81197714D01*
X122833857Y-81126285D01*
X123619571Y-81126285D01*
X122833857Y-81126285D02*
X122691000Y-81054857D01*
X122619571Y-80912000D01*
X122619571Y-80697714D01*
X122691000Y-80554857D01*
X122833857Y-80483428D01*
X123619571Y-80483428D01*
X123476714Y-79769142D02*
X123548142Y-79697714D01*
X123619571Y-79769142D01*
X123548142Y-79840571D01*
X123476714Y-79769142D01*
X123619571Y-79769142D01*
X122619571Y-78126285D02*
X122619571Y-77554857D01*
X122119571Y-77912000D02*
X123405285Y-77912000D01*
X123548142Y-77840571D01*
X123619571Y-77697714D01*
X123619571Y-77554857D01*
X123619571Y-76840571D02*
X123548142Y-76983428D01*
X123476714Y-77054857D01*
X123333857Y-77126285D01*
X122905285Y-77126285D01*
X122762428Y-77054857D01*
X122691000Y-76983428D01*
X122619571Y-76840571D01*
X122619571Y-76626285D01*
X122691000Y-76483428D01*
X122762428Y-76412000D01*
X122905285Y-76340571D01*
X123333857Y-76340571D01*
X123476714Y-76412000D01*
X123548142Y-76483428D01*
X123619571Y-76626285D01*
X123619571Y-76840571D01*
X123619571Y-75697714D02*
X122619571Y-75697714D01*
X122905285Y-75697714D02*
X122762428Y-75626285D01*
X122691000Y-75554857D01*
X122619571Y-75412000D01*
X122619571Y-75269142D01*
X123619571Y-74554857D02*
X123548142Y-74697714D01*
X123476714Y-74769142D01*
X123333857Y-74840571D01*
X122905285Y-74840571D01*
X122762428Y-74769142D01*
X122691000Y-74697714D01*
X122619571Y-74554857D01*
X122619571Y-74340571D01*
X122691000Y-74197714D01*
X122762428Y-74126285D01*
X122905285Y-74054857D01*
X123333857Y-74054857D01*
X123476714Y-74126285D01*
X123548142Y-74197714D01*
X123619571Y-74340571D01*
X123619571Y-74554857D01*
D11*
G04 #@! TO.C,J3*
X146364000Y-123250000D02*
X146364000Y-118050000D01*
X98044000Y-123250000D02*
X146364000Y-123250000D01*
X95444000Y-118050000D02*
X146364000Y-118050000D01*
X98044000Y-123250000D02*
X98044000Y-120650000D01*
X98044000Y-120650000D02*
X95444000Y-120650000D01*
X95444000Y-120650000D02*
X95444000Y-118050000D01*
X96774000Y-123250000D02*
X95444000Y-123250000D01*
X95444000Y-123250000D02*
X95444000Y-121920000D01*
G04 #@! TO.C,J1*
X95444000Y-95310000D02*
X100644000Y-95310000D01*
X95444000Y-77470000D02*
X95444000Y-95310000D01*
X100644000Y-74870000D02*
X100644000Y-95310000D01*
X95444000Y-77470000D02*
X98044000Y-77470000D01*
X98044000Y-77470000D02*
X98044000Y-74870000D01*
X98044000Y-74870000D02*
X100644000Y-74870000D01*
X95444000Y-76200000D02*
X95444000Y-74870000D01*
X95444000Y-74870000D02*
X96774000Y-74870000D01*
G04 #@! TO.C,J2*
X95444000Y-113090000D02*
X100644000Y-113090000D01*
X95444000Y-100330000D02*
X95444000Y-113090000D01*
X100644000Y-97730000D02*
X100644000Y-113090000D01*
X95444000Y-100330000D02*
X98044000Y-100330000D01*
X98044000Y-100330000D02*
X98044000Y-97730000D01*
X98044000Y-97730000D02*
X100644000Y-97730000D01*
X95444000Y-99060000D02*
X95444000Y-97730000D01*
X95444000Y-97730000D02*
X96774000Y-97730000D01*
G04 #@! TO.C,J4*
X141164000Y-91246000D02*
X146364000Y-91246000D01*
X141164000Y-68326000D02*
X141164000Y-91246000D01*
X146364000Y-65726000D02*
X146364000Y-91246000D01*
X141164000Y-68326000D02*
X143764000Y-68326000D01*
X143764000Y-68326000D02*
X143764000Y-65726000D01*
X143764000Y-65726000D02*
X146364000Y-65726000D01*
X141164000Y-67056000D02*
X141164000Y-65726000D01*
X141164000Y-65726000D02*
X142494000Y-65726000D01*
G04 #@! TO.C,J5*
X141164000Y-113090000D02*
X146364000Y-113090000D01*
X141164000Y-95250000D02*
X141164000Y-113090000D01*
X146364000Y-92650000D02*
X146364000Y-113090000D01*
X141164000Y-95250000D02*
X143764000Y-95250000D01*
X143764000Y-95250000D02*
X143764000Y-92650000D01*
X143764000Y-92650000D02*
X146364000Y-92650000D01*
X141164000Y-93980000D02*
X141164000Y-92650000D01*
X141164000Y-92650000D02*
X142494000Y-92650000D01*
G04 #@! TO.C,J6*
X107128000Y-56582000D02*
X107128000Y-59242000D01*
X117348000Y-56582000D02*
X107128000Y-56582000D01*
X117348000Y-59242000D02*
X107128000Y-59242000D01*
X117348000Y-56582000D02*
X117348000Y-59242000D01*
X118618000Y-56582000D02*
X119948000Y-56582000D01*
X119948000Y-56582000D02*
X119948000Y-57912000D01*
G04 #@! TO.C,J7*
X103438000Y-59242000D02*
X103438000Y-56582000D01*
X98298000Y-59242000D02*
X103438000Y-59242000D01*
X98298000Y-56582000D02*
X103438000Y-56582000D01*
X98298000Y-59242000D02*
X98298000Y-56582000D01*
X97028000Y-59242000D02*
X95698000Y-59242000D01*
X95698000Y-59242000D02*
X95698000Y-57912000D01*
G04 #@! TO.C,J8*
X123892000Y-61782000D02*
X123892000Y-60452000D01*
X125222000Y-61782000D02*
X123892000Y-61782000D01*
X123892000Y-59182000D02*
X123892000Y-56582000D01*
X126492000Y-59182000D02*
X123892000Y-59182000D01*
X126492000Y-61782000D02*
X126492000Y-59182000D01*
X123892000Y-56582000D02*
X134172000Y-56582000D01*
X126492000Y-61782000D02*
X134172000Y-61782000D01*
X134172000Y-61782000D02*
X134172000Y-56582000D01*
G04 #@! TO.C,J3*
D12*
X93896380Y-120983333D02*
X94610666Y-120983333D01*
X94753523Y-121030952D01*
X94848761Y-121126190D01*
X94896380Y-121269047D01*
X94896380Y-121364285D01*
X93896380Y-120602380D02*
X93896380Y-119983333D01*
X94277333Y-120316666D01*
X94277333Y-120173809D01*
X94324952Y-120078571D01*
X94372571Y-120030952D01*
X94467809Y-119983333D01*
X94705904Y-119983333D01*
X94801142Y-120030952D01*
X94848761Y-120078571D01*
X94896380Y-120173809D01*
X94896380Y-120459523D01*
X94848761Y-120554761D01*
X94801142Y-120602380D01*
G04 #@! TO.C,REF\002A\002A*
X148614666Y-68402380D02*
X148281333Y-67926190D01*
X148043238Y-68402380D02*
X148043238Y-67402380D01*
X148424190Y-67402380D01*
X148519428Y-67450000D01*
X148567047Y-67497619D01*
X148614666Y-67592857D01*
X148614666Y-67735714D01*
X148567047Y-67830952D01*
X148519428Y-67878571D01*
X148424190Y-67926190D01*
X148043238Y-67926190D01*
X149043238Y-67878571D02*
X149376571Y-67878571D01*
X149519428Y-68402380D02*
X149043238Y-68402380D01*
X149043238Y-67402380D01*
X149519428Y-67402380D01*
X150281333Y-67878571D02*
X149948000Y-67878571D01*
X149948000Y-68402380D02*
X149948000Y-67402380D01*
X150424190Y-67402380D01*
X150948000Y-67402380D02*
X150948000Y-67640476D01*
X150709904Y-67545238D02*
X150948000Y-67640476D01*
X151186095Y-67545238D01*
X150805142Y-67830952D02*
X150948000Y-67640476D01*
X151090857Y-67830952D01*
X151709904Y-67402380D02*
X151709904Y-67640476D01*
X151471809Y-67545238D02*
X151709904Y-67640476D01*
X151948000Y-67545238D01*
X151567047Y-67830952D02*
X151709904Y-67640476D01*
X151852761Y-67830952D01*
G04 #@! TO.C,J1*
X97710666Y-73322380D02*
X97710666Y-74036666D01*
X97663047Y-74179523D01*
X97567809Y-74274761D01*
X97424952Y-74322380D01*
X97329714Y-74322380D01*
X98710666Y-74322380D02*
X98139238Y-74322380D01*
X98424952Y-74322380D02*
X98424952Y-73322380D01*
X98329714Y-73465238D01*
X98234476Y-73560476D01*
X98139238Y-73608095D01*
G04 #@! TO.C,J2*
X97710666Y-96182380D02*
X97710666Y-96896666D01*
X97663047Y-97039523D01*
X97567809Y-97134761D01*
X97424952Y-97182380D01*
X97329714Y-97182380D01*
X98139238Y-96277619D02*
X98186857Y-96230000D01*
X98282095Y-96182380D01*
X98520190Y-96182380D01*
X98615428Y-96230000D01*
X98663047Y-96277619D01*
X98710666Y-96372857D01*
X98710666Y-96468095D01*
X98663047Y-96610952D01*
X98091619Y-97182380D01*
X98710666Y-97182380D01*
G04 #@! TO.C,J4*
X143430666Y-64178380D02*
X143430666Y-64892666D01*
X143383047Y-65035523D01*
X143287809Y-65130761D01*
X143144952Y-65178380D01*
X143049714Y-65178380D01*
X144335428Y-64511714D02*
X144335428Y-65178380D01*
X144097333Y-64130761D02*
X143859238Y-64845047D01*
X144478285Y-64845047D01*
G04 #@! TO.C,J5*
X143430666Y-91102380D02*
X143430666Y-91816666D01*
X143383047Y-91959523D01*
X143287809Y-92054761D01*
X143144952Y-92102380D01*
X143049714Y-92102380D01*
X144383047Y-91102380D02*
X143906857Y-91102380D01*
X143859238Y-91578571D01*
X143906857Y-91530952D01*
X144002095Y-91483333D01*
X144240190Y-91483333D01*
X144335428Y-91530952D01*
X144383047Y-91578571D01*
X144430666Y-91673809D01*
X144430666Y-91911904D01*
X144383047Y-92007142D01*
X144335428Y-92054761D01*
X144240190Y-92102380D01*
X144002095Y-92102380D01*
X143906857Y-92054761D01*
X143859238Y-92007142D01*
G04 #@! TO.C,J6*
X120400380Y-58245333D02*
X121114666Y-58245333D01*
X121257523Y-58292952D01*
X121352761Y-58388190D01*
X121400380Y-58531047D01*
X121400380Y-58626285D01*
X120400380Y-57340571D02*
X120400380Y-57531047D01*
X120448000Y-57626285D01*
X120495619Y-57673904D01*
X120638476Y-57769142D01*
X120828952Y-57816761D01*
X121209904Y-57816761D01*
X121305142Y-57769142D01*
X121352761Y-57721523D01*
X121400380Y-57626285D01*
X121400380Y-57435809D01*
X121352761Y-57340571D01*
X121305142Y-57292952D01*
X121209904Y-57245333D01*
X120971809Y-57245333D01*
X120876571Y-57292952D01*
X120828952Y-57340571D01*
X120781333Y-57435809D01*
X120781333Y-57626285D01*
X120828952Y-57721523D01*
X120876571Y-57769142D01*
X120971809Y-57816761D01*
G04 #@! TO.C,J7*
X94150380Y-58245333D02*
X94864666Y-58245333D01*
X95007523Y-58292952D01*
X95102761Y-58388190D01*
X95150380Y-58531047D01*
X95150380Y-58626285D01*
X94150380Y-57864380D02*
X94150380Y-57197714D01*
X95150380Y-57626285D01*
G04 #@! TO.C,REF\002A\002A*
X90614666Y-68402380D02*
X90281333Y-67926190D01*
X90043238Y-68402380D02*
X90043238Y-67402380D01*
X90424190Y-67402380D01*
X90519428Y-67450000D01*
X90567047Y-67497619D01*
X90614666Y-67592857D01*
X90614666Y-67735714D01*
X90567047Y-67830952D01*
X90519428Y-67878571D01*
X90424190Y-67926190D01*
X90043238Y-67926190D01*
X91043238Y-67878571D02*
X91376571Y-67878571D01*
X91519428Y-68402380D02*
X91043238Y-68402380D01*
X91043238Y-67402380D01*
X91519428Y-67402380D01*
X92281333Y-67878571D02*
X91948000Y-67878571D01*
X91948000Y-68402380D02*
X91948000Y-67402380D01*
X92424190Y-67402380D01*
X92948000Y-67402380D02*
X92948000Y-67640476D01*
X92709904Y-67545238D02*
X92948000Y-67640476D01*
X93186095Y-67545238D01*
X92805142Y-67830952D02*
X92948000Y-67640476D01*
X93090857Y-67830952D01*
X93709904Y-67402380D02*
X93709904Y-67640476D01*
X93471809Y-67545238D02*
X93709904Y-67640476D01*
X93948000Y-67545238D01*
X93567047Y-67830952D02*
X93709904Y-67640476D01*
X93852761Y-67830952D01*
G04 #@! TO.C,J8*
X122344380Y-59515333D02*
X123058666Y-59515333D01*
X123201523Y-59562952D01*
X123296761Y-59658190D01*
X123344380Y-59801047D01*
X123344380Y-59896285D01*
X122772952Y-58896285D02*
X122725333Y-58991523D01*
X122677714Y-59039142D01*
X122582476Y-59086761D01*
X122534857Y-59086761D01*
X122439619Y-59039142D01*
X122392000Y-58991523D01*
X122344380Y-58896285D01*
X122344380Y-58705809D01*
X122392000Y-58610571D01*
X122439619Y-58562952D01*
X122534857Y-58515333D01*
X122582476Y-58515333D01*
X122677714Y-58562952D01*
X122725333Y-58610571D01*
X122772952Y-58705809D01*
X122772952Y-58896285D01*
X122820571Y-58991523D01*
X122868190Y-59039142D01*
X122963428Y-59086761D01*
X123153904Y-59086761D01*
X123249142Y-59039142D01*
X123296761Y-58991523D01*
X123344380Y-58896285D01*
X123344380Y-58705809D01*
X123296761Y-58610571D01*
X123249142Y-58562952D01*
X123153904Y-58515333D01*
X122963428Y-58515333D01*
X122868190Y-58562952D01*
X122820571Y-58610571D01*
X122772952Y-58705809D01*
G04 #@! TD*
M02*
