G04 #@! TF.GenerationSoftware,KiCad,Pcbnew,(5.0.1)-4*
G04 #@! TF.CreationDate,2018-11-19T00:54:06-05:00*
G04 #@! TF.ProjectId,k64shield,6B3634736869656C642E6B696361645F,rev?*
G04 #@! TF.SameCoordinates,Original*
G04 #@! TF.FileFunction,Legend,Top*
G04 #@! TF.FilePolarity,Positive*
%FSLAX46Y46*%
G04 Gerber Fmt 4.6, Leading zero omitted, Abs format (unit mm)*
G04 Created by KiCad (PCBNEW (5.0.1)-4) date 11/19/2018 12:54:06 AM*
%MOMM*%
%LPD*%
G01*
G04 APERTURE LIST*
%ADD10C,0.120000*%
%ADD11C,0.150000*%
G04 APERTURE END LIST*
D10*
G04 #@! TO.C,J3*
X146364000Y-123250000D02*
X146364000Y-118050000D01*
X98044000Y-123250000D02*
X146364000Y-123250000D01*
X95444000Y-118050000D02*
X146364000Y-118050000D01*
X98044000Y-123250000D02*
X98044000Y-120650000D01*
X98044000Y-120650000D02*
X95444000Y-120650000D01*
X95444000Y-120650000D02*
X95444000Y-118050000D01*
X96774000Y-123250000D02*
X95444000Y-123250000D01*
X95444000Y-123250000D02*
X95444000Y-121920000D01*
G04 #@! TO.C,J1*
X95444000Y-95310000D02*
X100644000Y-95310000D01*
X95444000Y-77470000D02*
X95444000Y-95310000D01*
X100644000Y-74870000D02*
X100644000Y-95310000D01*
X95444000Y-77470000D02*
X98044000Y-77470000D01*
X98044000Y-77470000D02*
X98044000Y-74870000D01*
X98044000Y-74870000D02*
X100644000Y-74870000D01*
X95444000Y-76200000D02*
X95444000Y-74870000D01*
X95444000Y-74870000D02*
X96774000Y-74870000D01*
G04 #@! TO.C,J2*
X95444000Y-113090000D02*
X100644000Y-113090000D01*
X95444000Y-100330000D02*
X95444000Y-113090000D01*
X100644000Y-97730000D02*
X100644000Y-113090000D01*
X95444000Y-100330000D02*
X98044000Y-100330000D01*
X98044000Y-100330000D02*
X98044000Y-97730000D01*
X98044000Y-97730000D02*
X100644000Y-97730000D01*
X95444000Y-99060000D02*
X95444000Y-97730000D01*
X95444000Y-97730000D02*
X96774000Y-97730000D01*
G04 #@! TO.C,J4*
X141164000Y-91246000D02*
X146364000Y-91246000D01*
X141164000Y-68326000D02*
X141164000Y-91246000D01*
X146364000Y-65726000D02*
X146364000Y-91246000D01*
X141164000Y-68326000D02*
X143764000Y-68326000D01*
X143764000Y-68326000D02*
X143764000Y-65726000D01*
X143764000Y-65726000D02*
X146364000Y-65726000D01*
X141164000Y-67056000D02*
X141164000Y-65726000D01*
X141164000Y-65726000D02*
X142494000Y-65726000D01*
G04 #@! TO.C,J5*
X141164000Y-113090000D02*
X146364000Y-113090000D01*
X141164000Y-95250000D02*
X141164000Y-113090000D01*
X146364000Y-92650000D02*
X146364000Y-113090000D01*
X141164000Y-95250000D02*
X143764000Y-95250000D01*
X143764000Y-95250000D02*
X143764000Y-92650000D01*
X143764000Y-92650000D02*
X146364000Y-92650000D01*
X141164000Y-93980000D02*
X141164000Y-92650000D01*
X141164000Y-92650000D02*
X142494000Y-92650000D01*
G04 #@! TO.C,J6*
X107128000Y-56582000D02*
X107128000Y-59242000D01*
X117348000Y-56582000D02*
X107128000Y-56582000D01*
X117348000Y-59242000D02*
X107128000Y-59242000D01*
X117348000Y-56582000D02*
X117348000Y-59242000D01*
X118618000Y-56582000D02*
X119948000Y-56582000D01*
X119948000Y-56582000D02*
X119948000Y-57912000D01*
G04 #@! TO.C,J7*
X103438000Y-59242000D02*
X103438000Y-56582000D01*
X98298000Y-59242000D02*
X103438000Y-59242000D01*
X98298000Y-56582000D02*
X103438000Y-56582000D01*
X98298000Y-59242000D02*
X98298000Y-56582000D01*
X97028000Y-59242000D02*
X95698000Y-59242000D01*
X95698000Y-59242000D02*
X95698000Y-57912000D01*
G04 #@! TO.C,J3*
D11*
X93896380Y-120983333D02*
X94610666Y-120983333D01*
X94753523Y-121030952D01*
X94848761Y-121126190D01*
X94896380Y-121269047D01*
X94896380Y-121364285D01*
X93896380Y-120602380D02*
X93896380Y-119983333D01*
X94277333Y-120316666D01*
X94277333Y-120173809D01*
X94324952Y-120078571D01*
X94372571Y-120030952D01*
X94467809Y-119983333D01*
X94705904Y-119983333D01*
X94801142Y-120030952D01*
X94848761Y-120078571D01*
X94896380Y-120173809D01*
X94896380Y-120459523D01*
X94848761Y-120554761D01*
X94801142Y-120602380D01*
G04 #@! TO.C,REF\002A\002A*
X148614666Y-68402380D02*
X148281333Y-67926190D01*
X148043238Y-68402380D02*
X148043238Y-67402380D01*
X148424190Y-67402380D01*
X148519428Y-67450000D01*
X148567047Y-67497619D01*
X148614666Y-67592857D01*
X148614666Y-67735714D01*
X148567047Y-67830952D01*
X148519428Y-67878571D01*
X148424190Y-67926190D01*
X148043238Y-67926190D01*
X149043238Y-67878571D02*
X149376571Y-67878571D01*
X149519428Y-68402380D02*
X149043238Y-68402380D01*
X149043238Y-67402380D01*
X149519428Y-67402380D01*
X150281333Y-67878571D02*
X149948000Y-67878571D01*
X149948000Y-68402380D02*
X149948000Y-67402380D01*
X150424190Y-67402380D01*
X150948000Y-67402380D02*
X150948000Y-67640476D01*
X150709904Y-67545238D02*
X150948000Y-67640476D01*
X151186095Y-67545238D01*
X150805142Y-67830952D02*
X150948000Y-67640476D01*
X151090857Y-67830952D01*
X151709904Y-67402380D02*
X151709904Y-67640476D01*
X151471809Y-67545238D02*
X151709904Y-67640476D01*
X151948000Y-67545238D01*
X151567047Y-67830952D02*
X151709904Y-67640476D01*
X151852761Y-67830952D01*
G04 #@! TO.C,J1*
X97710666Y-73322380D02*
X97710666Y-74036666D01*
X97663047Y-74179523D01*
X97567809Y-74274761D01*
X97424952Y-74322380D01*
X97329714Y-74322380D01*
X98710666Y-74322380D02*
X98139238Y-74322380D01*
X98424952Y-74322380D02*
X98424952Y-73322380D01*
X98329714Y-73465238D01*
X98234476Y-73560476D01*
X98139238Y-73608095D01*
G04 #@! TO.C,J2*
X97710666Y-96182380D02*
X97710666Y-96896666D01*
X97663047Y-97039523D01*
X97567809Y-97134761D01*
X97424952Y-97182380D01*
X97329714Y-97182380D01*
X98139238Y-96277619D02*
X98186857Y-96230000D01*
X98282095Y-96182380D01*
X98520190Y-96182380D01*
X98615428Y-96230000D01*
X98663047Y-96277619D01*
X98710666Y-96372857D01*
X98710666Y-96468095D01*
X98663047Y-96610952D01*
X98091619Y-97182380D01*
X98710666Y-97182380D01*
G04 #@! TO.C,J4*
X143430666Y-64178380D02*
X143430666Y-64892666D01*
X143383047Y-65035523D01*
X143287809Y-65130761D01*
X143144952Y-65178380D01*
X143049714Y-65178380D01*
X144335428Y-64511714D02*
X144335428Y-65178380D01*
X144097333Y-64130761D02*
X143859238Y-64845047D01*
X144478285Y-64845047D01*
G04 #@! TO.C,J5*
X143430666Y-91102380D02*
X143430666Y-91816666D01*
X143383047Y-91959523D01*
X143287809Y-92054761D01*
X143144952Y-92102380D01*
X143049714Y-92102380D01*
X144383047Y-91102380D02*
X143906857Y-91102380D01*
X143859238Y-91578571D01*
X143906857Y-91530952D01*
X144002095Y-91483333D01*
X144240190Y-91483333D01*
X144335428Y-91530952D01*
X144383047Y-91578571D01*
X144430666Y-91673809D01*
X144430666Y-91911904D01*
X144383047Y-92007142D01*
X144335428Y-92054761D01*
X144240190Y-92102380D01*
X144002095Y-92102380D01*
X143906857Y-92054761D01*
X143859238Y-92007142D01*
G04 #@! TO.C,J6*
X120400380Y-58245333D02*
X121114666Y-58245333D01*
X121257523Y-58292952D01*
X121352761Y-58388190D01*
X121400380Y-58531047D01*
X121400380Y-58626285D01*
X120400380Y-57340571D02*
X120400380Y-57531047D01*
X120448000Y-57626285D01*
X120495619Y-57673904D01*
X120638476Y-57769142D01*
X120828952Y-57816761D01*
X121209904Y-57816761D01*
X121305142Y-57769142D01*
X121352761Y-57721523D01*
X121400380Y-57626285D01*
X121400380Y-57435809D01*
X121352761Y-57340571D01*
X121305142Y-57292952D01*
X121209904Y-57245333D01*
X120971809Y-57245333D01*
X120876571Y-57292952D01*
X120828952Y-57340571D01*
X120781333Y-57435809D01*
X120781333Y-57626285D01*
X120828952Y-57721523D01*
X120876571Y-57769142D01*
X120971809Y-57816761D01*
G04 #@! TO.C,J7*
X94150380Y-58245333D02*
X94864666Y-58245333D01*
X95007523Y-58292952D01*
X95102761Y-58388190D01*
X95150380Y-58531047D01*
X95150380Y-58626285D01*
X94150380Y-57864380D02*
X94150380Y-57197714D01*
X95150380Y-57626285D01*
G04 #@! TO.C,REF\002A\002A*
X90614666Y-68402380D02*
X90281333Y-67926190D01*
X90043238Y-68402380D02*
X90043238Y-67402380D01*
X90424190Y-67402380D01*
X90519428Y-67450000D01*
X90567047Y-67497619D01*
X90614666Y-67592857D01*
X90614666Y-67735714D01*
X90567047Y-67830952D01*
X90519428Y-67878571D01*
X90424190Y-67926190D01*
X90043238Y-67926190D01*
X91043238Y-67878571D02*
X91376571Y-67878571D01*
X91519428Y-68402380D02*
X91043238Y-68402380D01*
X91043238Y-67402380D01*
X91519428Y-67402380D01*
X92281333Y-67878571D02*
X91948000Y-67878571D01*
X91948000Y-68402380D02*
X91948000Y-67402380D01*
X92424190Y-67402380D01*
X92948000Y-67402380D02*
X92948000Y-67640476D01*
X92709904Y-67545238D02*
X92948000Y-67640476D01*
X93186095Y-67545238D01*
X92805142Y-67830952D02*
X92948000Y-67640476D01*
X93090857Y-67830952D01*
X93709904Y-67402380D02*
X93709904Y-67640476D01*
X93471809Y-67545238D02*
X93709904Y-67640476D01*
X93948000Y-67545238D01*
X93567047Y-67830952D02*
X93709904Y-67640476D01*
X93852761Y-67830952D01*
G04 #@! TD*
M02*
