G04 #@! TF.GenerationSoftware,KiCad,Pcbnew,(5.0.1)-4*
G04 #@! TF.CreationDate,2018-11-19T01:03:16-05:00*
G04 #@! TF.ProjectId,k64shield,6B3634736869656C642E6B696361645F,rev?*
G04 #@! TF.SameCoordinates,Original*
G04 #@! TF.FileFunction,Copper,L1,Top,Signal*
G04 #@! TF.FilePolarity,Positive*
%FSLAX46Y46*%
G04 Gerber Fmt 4.6, Leading zero omitted, Abs format (unit mm)*
G04 Created by KiCad (PCBNEW (5.0.1)-4) date 11/19/2018 1:03:16 AM*
%MOMM*%
%LPD*%
G01*
G04 APERTURE LIST*
G04 #@! TA.AperFunction,ComponentPad*
%ADD10R,1.700000X1.700000*%
G04 #@! TD*
G04 #@! TA.AperFunction,ComponentPad*
%ADD11O,1.700000X1.700000*%
G04 #@! TD*
G04 #@! TA.AperFunction,ViaPad*
%ADD12C,0.600000*%
G04 #@! TD*
G04 #@! TA.AperFunction,Conductor*
%ADD13C,0.250000*%
G04 #@! TD*
G04 #@! TA.AperFunction,Conductor*
%ADD14C,0.254000*%
G04 #@! TD*
G04 APERTURE END LIST*
D10*
G04 #@! TO.P,J3,1*
G04 #@! TO.N,/B2*
X96774000Y-121920000D03*
D11*
G04 #@! TO.P,J3,2*
G04 #@! TO.N,/GND*
X96774000Y-119380000D03*
G04 #@! TO.P,J3,3*
G04 #@! TO.N,/B1*
X99314000Y-121920000D03*
G04 #@! TO.P,J3,4*
G04 #@! TO.N,/PTB2*
X99314000Y-119380000D03*
G04 #@! TO.P,J3,5*
G04 #@! TO.N,/RST*
X101854000Y-121920000D03*
G04 #@! TO.P,J3,6*
G04 #@! TO.N,/PTB3*
X101854000Y-119380000D03*
G04 #@! TO.P,J3,7*
G04 #@! TO.N,/GND*
X104394000Y-121920000D03*
G04 #@! TO.P,J3,8*
G04 #@! TO.N,/A2*
X104394000Y-119380000D03*
G04 #@! TO.P,J3,9*
G04 #@! TO.N,/ADC1_DP0*
X106934000Y-121920000D03*
G04 #@! TO.P,J3,10*
G04 #@! TO.N,/A1*
X106934000Y-119380000D03*
G04 #@! TO.P,J3,11*
G04 #@! TO.N,/GND*
X109474000Y-121920000D03*
G04 #@! TO.P,J3,12*
G04 #@! TO.N,/PTC10*
X109474000Y-119380000D03*
G04 #@! TO.P,J3,13*
G04 #@! TO.N,/DAC0_OUT*
X112014000Y-121920000D03*
G04 #@! TO.P,J3,14*
G04 #@! TO.N,/PTC11*
X112014000Y-119380000D03*
G04 #@! TO.P,J3,15*
G04 #@! TO.N,/ADC1_DP1*
X114554000Y-121920000D03*
G04 #@! TO.P,J3,16*
G04 #@! TO.N,/GND*
X114554000Y-119380000D03*
G04 #@! TO.P,J3,17*
G04 #@! TO.N,/PTB20*
X117094000Y-121920000D03*
G04 #@! TO.P,J3,18*
G04 #@! TO.N,/PTD3*
X117094000Y-119380000D03*
G04 #@! TO.P,J3,19*
G04 #@! TO.N,/PTB10*
X119634000Y-121920000D03*
G04 #@! TO.P,J3,20*
G04 #@! TO.N,/PTD2*
X119634000Y-119380000D03*
G04 #@! TO.P,J3,21*
G04 #@! TO.N,/GND*
X122174000Y-121920000D03*
G04 #@! TO.P,J3,22*
G04 #@! TO.N,/PTD1*
X122174000Y-119380000D03*
G04 #@! TO.P,J3,23*
G04 #@! TO.N,/PTB11*
X124714000Y-121920000D03*
G04 #@! TO.P,J3,24*
G04 #@! TO.N,/3v3*
X124714000Y-119380000D03*
G04 #@! TO.P,J3,25*
G04 #@! TO.N,/PTE25*
X127254000Y-121920000D03*
G04 #@! TO.P,J3,26*
G04 #@! TO.N,/PTD0*
X127254000Y-119380000D03*
G04 #@! TO.P,J3,27*
G04 #@! TO.N,/GND*
X129794000Y-121920000D03*
G04 #@! TO.P,J3,28*
G04 #@! TO.N,/PTC9*
X129794000Y-119380000D03*
G04 #@! TO.P,J3,29*
G04 #@! TO.N,/PTE24*
X132334000Y-121920000D03*
G04 #@! TO.P,J3,30*
G04 #@! TO.N,/PTB18*
X132334000Y-119380000D03*
G04 #@! TO.P,J3,31*
G04 #@! TO.N,/Rx3*
X134874000Y-121920000D03*
G04 #@! TO.P,J3,32*
G04 #@! TO.N,/GND*
X134874000Y-119380000D03*
G04 #@! TO.P,J3,33*
G04 #@! TO.N,/Tx3*
X137414000Y-121920000D03*
G04 #@! TO.P,J3,34*
G04 #@! TO.N,/PTB19*
X137414000Y-119380000D03*
G04 #@! TO.P,J3,35*
G04 #@! TO.N,/GND*
X139954000Y-121920000D03*
G04 #@! TO.P,J3,36*
G04 #@! TO.N,/PTA2*
X139954000Y-119380000D03*
G04 #@! TO.P,J3,37*
G04 #@! TO.N,/5V*
X142494000Y-121920000D03*
G04 #@! TO.P,J3,38*
G04 #@! TO.N,/PTA1*
X142494000Y-119380000D03*
G04 #@! TO.P,J3,39*
G04 #@! TO.N,/5V*
X145034000Y-121920000D03*
G04 #@! TO.P,J3,40*
G04 #@! TO.N,/3v3*
X145034000Y-119380000D03*
G04 #@! TD*
D10*
G04 #@! TO.P,J1,1*
G04 #@! TO.N,Net-(J1-Pad1)*
X96774000Y-76200000D03*
D11*
G04 #@! TO.P,J1,2*
G04 #@! TO.N,Net-(J1-Pad2)*
X99314000Y-76200000D03*
G04 #@! TO.P,J1,3*
G04 #@! TO.N,/3v3*
X96774000Y-78740000D03*
G04 #@! TO.P,J1,4*
G04 #@! TO.N,Net-(J1-Pad4)*
X99314000Y-78740000D03*
G04 #@! TO.P,J1,5*
G04 #@! TO.N,/RST*
X96774000Y-81280000D03*
G04 #@! TO.P,J1,6*
G04 #@! TO.N,Net-(J1-Pad6)*
X99314000Y-81280000D03*
G04 #@! TO.P,J1,7*
G04 #@! TO.N,/3v3*
X96774000Y-83820000D03*
G04 #@! TO.P,J1,8*
G04 #@! TO.N,Net-(J1-Pad8)*
X99314000Y-83820000D03*
G04 #@! TO.P,J1,9*
G04 #@! TO.N,Net-(J1-Pad9)*
X96774000Y-86360000D03*
G04 #@! TO.P,J1,10*
G04 #@! TO.N,Net-(J1-Pad10)*
X99314000Y-86360000D03*
G04 #@! TO.P,J1,11*
G04 #@! TO.N,/GND*
X96774000Y-88900000D03*
G04 #@! TO.P,J1,12*
G04 #@! TO.N,Net-(J1-Pad12)*
X99314000Y-88900000D03*
G04 #@! TO.P,J1,13*
G04 #@! TO.N,/GND*
X96774000Y-91440000D03*
G04 #@! TO.P,J1,14*
G04 #@! TO.N,Net-(J1-Pad14)*
X99314000Y-91440000D03*
G04 #@! TO.P,J1,15*
G04 #@! TO.N,/5V*
X96774000Y-93980000D03*
G04 #@! TO.P,J1,16*
G04 #@! TO.N,Net-(J1-Pad16)*
X99314000Y-93980000D03*
G04 #@! TD*
D10*
G04 #@! TO.P,J2,1*
G04 #@! TO.N,/PTB2*
X96774000Y-99060000D03*
D11*
G04 #@! TO.P,J2,2*
G04 #@! TO.N,Net-(J2-Pad2)*
X99314000Y-99060000D03*
G04 #@! TO.P,J2,3*
G04 #@! TO.N,/PTB3*
X96774000Y-101600000D03*
G04 #@! TO.P,J2,4*
G04 #@! TO.N,Net-(J2-Pad4)*
X99314000Y-101600000D03*
G04 #@! TO.P,J2,5*
G04 #@! TO.N,/PTB10*
X96774000Y-104140000D03*
G04 #@! TO.P,J2,6*
G04 #@! TO.N,/ADC1_DP1*
X99314000Y-104140000D03*
G04 #@! TO.P,J2,7*
G04 #@! TO.N,/PTB11*
X96774000Y-106680000D03*
G04 #@! TO.P,J2,8*
G04 #@! TO.N,Net-(J2-Pad8)*
X99314000Y-106680000D03*
G04 #@! TO.P,J2,9*
G04 #@! TO.N,/PTC11*
X96774000Y-109220000D03*
G04 #@! TO.P,J2,10*
G04 #@! TO.N,/PTB20*
X99314000Y-109220000D03*
G04 #@! TO.P,J2,11*
G04 #@! TO.N,/PTC10*
X96774000Y-111760000D03*
G04 #@! TO.P,J2,12*
G04 #@! TO.N,/DAC0_OUT*
X99314000Y-111760000D03*
G04 #@! TD*
D10*
G04 #@! TO.P,J4,1*
G04 #@! TO.N,Net-(J4-Pad1)*
X142494000Y-67056000D03*
D11*
G04 #@! TO.P,J4,2*
G04 #@! TO.N,/PTE24*
X145034000Y-67056000D03*
G04 #@! TO.P,J4,3*
G04 #@! TO.N,Net-(J4-Pad3)*
X142494000Y-69596000D03*
G04 #@! TO.P,J4,4*
G04 #@! TO.N,/PTE25*
X145034000Y-69596000D03*
G04 #@! TO.P,J4,5*
G04 #@! TO.N,Net-(J4-Pad5)*
X142494000Y-72136000D03*
G04 #@! TO.P,J4,6*
G04 #@! TO.N,Net-(J4-Pad6)*
X145034000Y-72136000D03*
G04 #@! TO.P,J4,7*
G04 #@! TO.N,Net-(J4-Pad7)*
X142494000Y-74676000D03*
G04 #@! TO.P,J4,8*
G04 #@! TO.N,/GND*
X145034000Y-74676000D03*
G04 #@! TO.P,J4,9*
G04 #@! TO.N,/ADC1_DP0*
X142494000Y-77216000D03*
G04 #@! TO.P,J4,10*
G04 #@! TO.N,/PTD1*
X145034000Y-77216000D03*
G04 #@! TO.P,J4,11*
G04 #@! TO.N,Net-(J4-Pad11)*
X142494000Y-79756000D03*
G04 #@! TO.P,J4,12*
G04 #@! TO.N,/PTD3*
X145034000Y-79756000D03*
G04 #@! TO.P,J4,13*
G04 #@! TO.N,Net-(J4-Pad13)*
X142494000Y-82296000D03*
G04 #@! TO.P,J4,14*
G04 #@! TO.N,/PTD2*
X145034000Y-82296000D03*
G04 #@! TO.P,J4,15*
G04 #@! TO.N,/AO*
X142494000Y-84836000D03*
G04 #@! TO.P,J4,16*
G04 #@! TO.N,/PTD0*
X145034000Y-84836000D03*
G04 #@! TO.P,J4,17*
G04 #@! TO.N,/GND*
X142494000Y-87376000D03*
G04 #@! TO.P,J4,18*
G04 #@! TO.N,/B2*
X145034000Y-87376000D03*
G04 #@! TO.P,J4,19*
G04 #@! TO.N,Net-(J4-Pad19)*
X142494000Y-89916000D03*
G04 #@! TO.P,J4,20*
G04 #@! TO.N,Net-(J4-Pad20)*
X145034000Y-89916000D03*
G04 #@! TD*
D10*
G04 #@! TO.P,J5,1*
G04 #@! TO.N,Net-(J5-Pad1)*
X142494000Y-93980000D03*
D11*
G04 #@! TO.P,J5,2*
G04 #@! TO.N,/B1*
X145034000Y-93980000D03*
G04 #@! TO.P,J5,3*
G04 #@! TO.N,Net-(J5-Pad3)*
X142494000Y-96520000D03*
G04 #@! TO.P,J5,4*
G04 #@! TO.N,/A2*
X145034000Y-96520000D03*
G04 #@! TO.P,J5,5*
G04 #@! TO.N,Net-(J5-Pad5)*
X142494000Y-99060000D03*
G04 #@! TO.P,J5,6*
G04 #@! TO.N,/PTA2*
X145034000Y-99060000D03*
G04 #@! TO.P,J5,7*
G04 #@! TO.N,/PTC9*
X142494000Y-101600000D03*
G04 #@! TO.P,J5,8*
G04 #@! TO.N,/SI*
X145034000Y-101600000D03*
G04 #@! TO.P,J5,9*
G04 #@! TO.N,/SIG*
X142494000Y-104140000D03*
G04 #@! TO.P,J5,10*
G04 #@! TO.N,/PTA1*
X145034000Y-104140000D03*
G04 #@! TO.P,J5,11*
G04 #@! TO.N,/A1*
X142494000Y-106680000D03*
G04 #@! TO.P,J5,12*
G04 #@! TO.N,/CLK*
X145034000Y-106680000D03*
G04 #@! TO.P,J5,13*
G04 #@! TO.N,/PTB19*
X142494000Y-109220000D03*
G04 #@! TO.P,J5,14*
G04 #@! TO.N,/Tx3*
X145034000Y-109220000D03*
G04 #@! TO.P,J5,15*
G04 #@! TO.N,/PTB18*
X142494000Y-111760000D03*
G04 #@! TO.P,J5,16*
G04 #@! TO.N,/Rx3*
X145034000Y-111760000D03*
G04 #@! TD*
D10*
G04 #@! TO.P,J6,1*
G04 #@! TO.N,/GND*
X118618000Y-57912000D03*
D11*
G04 #@! TO.P,J6,2*
G04 #@! TO.N,/5V*
X116078000Y-57912000D03*
G04 #@! TO.P,J6,3*
G04 #@! TO.N,/CLK*
X113538000Y-57912000D03*
G04 #@! TO.P,J6,4*
G04 #@! TO.N,/SI*
X110998000Y-57912000D03*
G04 #@! TO.P,J6,5*
G04 #@! TO.N,/AO*
X108458000Y-57912000D03*
G04 #@! TD*
D10*
G04 #@! TO.P,J7,1*
G04 #@! TO.N,/GND*
X97028000Y-57912000D03*
D11*
G04 #@! TO.P,J7,2*
G04 #@! TO.N,/5V*
X99568000Y-57912000D03*
G04 #@! TO.P,J7,3*
G04 #@! TO.N,/SIG*
X102108000Y-57912000D03*
G04 #@! TD*
D12*
G04 #@! TO.N,/5V*
X149352000Y-119126000D03*
X146558000Y-117856000D03*
G04 #@! TO.N,/GND*
X106934000Y-116078000D03*
X104902000Y-116078000D03*
X133604000Y-109474000D03*
X111760000Y-115383919D03*
X113284000Y-112776000D03*
X115062000Y-110998000D03*
X115361999Y-107233999D03*
X102870000Y-98044000D03*
X104902000Y-95758000D03*
X105664000Y-108966000D03*
X141318999Y-117442999D03*
X141986000Y-114554000D03*
G04 #@! TO.N,/5V*
X151213736Y-121412000D03*
G04 #@! TO.N,/A1*
X148336000Y-110236000D03*
G04 #@! TO.N,/AO*
X137160000Y-76454000D03*
X137922000Y-80772000D03*
G04 #@! TO.N,/CLK*
X134112000Y-103124000D03*
X131064000Y-100076000D03*
X130764001Y-83820000D03*
X128016000Y-81071999D03*
X113538000Y-70612000D03*
G04 #@! TO.N,/SIG*
X125730000Y-86868000D03*
X131064000Y-104140000D03*
X138176000Y-104140000D03*
G04 #@! TO.N,/SI*
X131064000Y-82042000D03*
X128016000Y-78994000D03*
X110998000Y-65278000D03*
G04 #@! TO.N,/3v3*
X136144000Y-120650000D03*
G04 #@! TO.N,/PTB10*
X108966000Y-106934000D03*
G04 #@! TO.N,/ADC1_DP1*
X106680000Y-104648000D03*
G04 #@! TO.N,/ADC1_DP0*
X105664000Y-117856000D03*
G04 #@! TO.N,/PTD3*
X117094000Y-105918000D03*
X117094000Y-113792000D03*
G04 #@! TO.N,/PTD2*
X119634000Y-105956998D03*
G04 #@! TO.N,/PTD1*
X122212998Y-98298000D03*
G04 #@! TO.N,/PTE25*
X127000000Y-91440000D03*
X124206000Y-94234000D03*
X123906001Y-114254001D03*
G04 #@! TO.N,/PTE24*
X132842000Y-75184000D03*
X132542001Y-83520001D03*
X131064000Y-117602000D03*
G04 #@! TO.N,/PTA2*
X149606000Y-116332000D03*
G04 #@! TD*
D13*
G04 #@! TO.N,/GND*
X106934000Y-116078000D02*
X104902000Y-116078000D01*
X128429001Y-120555001D02*
X128429001Y-114394999D01*
X129794000Y-121920000D02*
X128429001Y-120555001D01*
X128429001Y-114394999D02*
X133604000Y-109474000D01*
X141224000Y-117856000D02*
X141318999Y-117442999D01*
X113284000Y-112776000D02*
X113583999Y-112476001D01*
X113583999Y-112476001D02*
X115062000Y-110998000D01*
X115062000Y-110998000D02*
X115062000Y-110998000D01*
X120809001Y-116581999D02*
X116749002Y-112522000D01*
X122174000Y-121920000D02*
X120809001Y-120555001D01*
X120809001Y-120555001D02*
X120809001Y-116581999D01*
G04 #@! TO.N,/5V*
X99568000Y-57912000D02*
X99568000Y-59114081D01*
X149352000Y-119550264D02*
X151213736Y-121412000D01*
X149352000Y-119126000D02*
X149352000Y-119550264D01*
X151213736Y-121412000D02*
X151384000Y-121412000D01*
X151213736Y-121412000D02*
X151213736Y-121412000D01*
G04 #@! TO.N,/A1*
X108109001Y-120555001D02*
X108109001Y-122333001D01*
X106934000Y-119380000D02*
X108109001Y-120555001D01*
X108871001Y-123095001D02*
X146652999Y-123095001D01*
X108109001Y-122333001D02*
X108871001Y-123095001D01*
X146652999Y-123095001D02*
X147516010Y-122231990D01*
X147516010Y-122231990D02*
X147516010Y-114611990D01*
X147516010Y-114611990D02*
X148336000Y-113792000D01*
X148336000Y-113792000D02*
X148336000Y-110236000D01*
X148336000Y-110236000D02*
X148336000Y-110236000D01*
G04 #@! TO.N,/B1*
X145034000Y-93980000D02*
X150368000Y-99314000D01*
X150368000Y-116495002D02*
X148082000Y-118781002D01*
X150368000Y-99314000D02*
X150368000Y-116495002D01*
X148082000Y-122302410D02*
X146686410Y-123698000D01*
X148082000Y-118781002D02*
X148082000Y-122302410D01*
X101092000Y-123698000D02*
X99314000Y-121920000D01*
X146686410Y-123698000D02*
X101092000Y-123698000D01*
G04 #@! TO.N,/AO*
X137160000Y-76454000D02*
X137160000Y-80010000D01*
X137160000Y-80010000D02*
X137922000Y-80772000D01*
X137922000Y-80772000D02*
X137922000Y-80772000D01*
G04 #@! TO.N,/CLK*
X134112000Y-103124000D02*
X133812001Y-102824001D01*
X133812001Y-102824001D02*
X131064000Y-100076000D01*
X131064000Y-100076000D02*
X131064000Y-100076000D01*
X128016000Y-81071999D02*
X128016000Y-81071999D01*
X128016000Y-81071999D02*
X130764001Y-83820000D01*
X113538000Y-70612000D02*
X113538000Y-57912000D01*
G04 #@! TO.N,/SIG*
X102108000Y-57912000D02*
X102108000Y-60960000D01*
X102108000Y-60960000D02*
X125730000Y-84582000D01*
X125730000Y-84582000D02*
X125730000Y-86868000D01*
X125730000Y-86868000D02*
X125730000Y-86868000D01*
X131064000Y-104140000D02*
X138176000Y-104140000D01*
X138176000Y-104140000D02*
X138176000Y-104140000D01*
G04 #@! TO.N,/SI*
X131064000Y-82042000D02*
X128016000Y-78994000D01*
X128016000Y-78994000D02*
X128016000Y-78994000D01*
X110998000Y-65278000D02*
X110998000Y-57912000D01*
G04 #@! TO.N,/3v3*
X137414000Y-120650000D02*
X137414000Y-120650000D01*
X124714000Y-118177919D02*
X101600000Y-95063919D01*
X124714000Y-119380000D02*
X124714000Y-118177919D01*
X97623999Y-84669999D02*
X96774000Y-83820000D01*
X97949001Y-84995001D02*
X97623999Y-84669999D01*
X99688003Y-84995001D02*
X97949001Y-84995001D01*
X101600000Y-86906998D02*
X99688003Y-84995001D01*
X101600000Y-95063919D02*
X101600000Y-86906998D01*
X137414000Y-120650000D02*
X136144000Y-120650000D01*
X145034000Y-119380000D02*
X143764000Y-120650000D01*
X143764000Y-120650000D02*
X137414000Y-120650000D01*
G04 #@! TO.N,/RST*
X100489001Y-120555001D02*
X93885001Y-120555001D01*
X101854000Y-121920000D02*
X100489001Y-120555001D01*
X93885001Y-120555001D02*
X92456000Y-119126000D01*
X92456000Y-85598000D02*
X96774000Y-81280000D01*
X92456000Y-119126000D02*
X92456000Y-85598000D01*
G04 #@! TO.N,/PTB2*
X95674000Y-99060000D02*
X93472000Y-101262000D01*
X96774000Y-99060000D02*
X95674000Y-99060000D01*
X93472000Y-113538000D02*
X99314000Y-119380000D01*
X93472000Y-101262000D02*
X93472000Y-113538000D01*
G04 #@! TO.N,/PTB10*
X98138999Y-105504999D02*
X107536999Y-105504999D01*
X96774000Y-104140000D02*
X98138999Y-105504999D01*
X107536999Y-105504999D02*
X108966000Y-106934000D01*
X108966000Y-106934000D02*
X108966000Y-106934000D01*
G04 #@! TO.N,/ADC1_DP1*
X106172000Y-104140000D02*
X106680000Y-104648000D01*
X99314000Y-104140000D02*
X106172000Y-104140000D01*
G04 #@! TO.N,/PTB11*
X96774000Y-106680000D02*
X98044000Y-107950000D01*
X98044000Y-107950000D02*
X113538000Y-107950000D01*
X123864001Y-121070001D02*
X124714000Y-121920000D01*
X123538999Y-120744999D02*
X123864001Y-121070001D01*
X123538999Y-117950999D02*
X123538999Y-120744999D01*
X113538000Y-107950000D02*
X123538999Y-117950999D01*
G04 #@! TO.N,/PTC11*
X98074008Y-110520008D02*
X99852008Y-110520008D01*
X96774000Y-109220000D02*
X98074008Y-110520008D01*
X99852008Y-110520008D02*
X100838000Y-111506000D01*
X100838000Y-111506000D02*
X106426000Y-111506000D01*
X112014000Y-117094000D02*
X112014000Y-119380000D01*
X106426000Y-111506000D02*
X112014000Y-117094000D01*
G04 #@! TO.N,/PTB20*
X100163999Y-110069999D02*
X107529999Y-110069999D01*
X99314000Y-109220000D02*
X100163999Y-110069999D01*
X116244001Y-121070001D02*
X117094000Y-121920000D01*
X115918999Y-120744999D02*
X116244001Y-121070001D01*
X115918999Y-118458999D02*
X115918999Y-120744999D01*
X107529999Y-110069999D02*
X115918999Y-118458999D01*
G04 #@! TO.N,/PTC10*
X108624001Y-118530001D02*
X109474000Y-119380000D01*
X106934000Y-116840000D02*
X108624001Y-118530001D01*
X101854000Y-116840000D02*
X106934000Y-116840000D01*
X96774000Y-111760000D02*
X101854000Y-116840000D01*
G04 #@! TO.N,/DAC0_OUT*
X100163999Y-112609999D02*
X104481999Y-112609999D01*
X99314000Y-111760000D02*
X100163999Y-112609999D01*
X111164001Y-121070001D02*
X112014000Y-121920000D01*
X110838999Y-120744999D02*
X111164001Y-121070001D01*
X110838999Y-118966999D02*
X110838999Y-120744999D01*
X104481999Y-112609999D02*
X110838999Y-118966999D01*
G04 #@! TO.N,/ADC1_DP0*
X106934000Y-121920000D02*
X105664000Y-120650000D01*
X105664000Y-120650000D02*
X105664000Y-117856000D01*
X105664000Y-117856000D02*
X105664000Y-117856000D01*
G04 #@! TO.N,/PTD3*
X143858999Y-80931001D02*
X142080999Y-80931001D01*
X145034000Y-79756000D02*
X143858999Y-80931001D01*
X142080999Y-80931001D02*
X117094000Y-105918000D01*
X117094000Y-105918000D02*
X117094000Y-105918000D01*
X117094000Y-113792000D02*
X117094000Y-119380000D01*
G04 #@! TO.N,/PTD2*
X145034000Y-83498081D02*
X144966081Y-83566000D01*
X145034000Y-82296000D02*
X145034000Y-83498081D01*
X142024998Y-83566000D02*
X119634000Y-105956998D01*
X144966081Y-83566000D02*
X142024998Y-83566000D01*
X119634000Y-105956998D02*
X119634000Y-105956998D01*
G04 #@! TO.N,/PTD1*
X145034000Y-77216000D02*
X143764000Y-78486000D01*
X142024998Y-78486000D02*
X122212998Y-98298000D01*
X143764000Y-78486000D02*
X142024998Y-78486000D01*
X122212998Y-98298000D02*
X122174000Y-98298000D01*
X122212998Y-98298000D02*
X122212998Y-98298000D01*
G04 #@! TO.N,/PTE25*
X143669001Y-70960999D02*
X132493001Y-70960999D01*
X145034000Y-69596000D02*
X143669001Y-70960999D01*
X132493001Y-70960999D02*
X127000000Y-76454000D01*
X127000000Y-76454000D02*
X127000000Y-91440000D01*
X127000000Y-91440000D02*
X127000000Y-91440000D01*
X127000000Y-91440000D02*
X124206000Y-94234000D01*
X124206000Y-94234000D02*
X124206000Y-94234000D01*
X126404001Y-121070001D02*
X127254000Y-121920000D01*
X125889001Y-120555001D02*
X126404001Y-121070001D01*
X125889001Y-116237001D02*
X125889001Y-120555001D01*
X123906001Y-114254001D02*
X125889001Y-116237001D01*
G04 #@! TO.N,/PTD0*
X145034000Y-84836000D02*
X143764000Y-86106000D01*
X127254000Y-118177919D02*
X127254000Y-119380000D01*
X127254000Y-100876998D02*
X127254000Y-118177919D01*
X142024998Y-86106000D02*
X127254000Y-100876998D01*
X143764000Y-86106000D02*
X142024998Y-86106000D01*
G04 #@! TO.N,/PTC9*
X129794000Y-114300000D02*
X129794000Y-119380000D01*
X142494000Y-101600000D02*
X129794000Y-114300000D01*
G04 #@! TO.N,/PTE24*
X132542001Y-75483999D02*
X132542001Y-83520001D01*
X132842000Y-75184000D02*
X132542001Y-75483999D01*
X132542001Y-83520001D02*
X132588000Y-83566000D01*
X132542001Y-83520001D02*
X132542001Y-83520001D01*
X131064000Y-120650000D02*
X132334000Y-121920000D01*
X131064000Y-117602000D02*
X131064000Y-120650000D01*
G04 #@! TO.N,/PTB18*
X139954000Y-111760000D02*
X132334000Y-119380000D01*
X142494000Y-111760000D02*
X139954000Y-111760000D01*
G04 #@! TO.N,/Rx3*
X143858999Y-112935001D02*
X141572999Y-112935001D01*
X145034000Y-111760000D02*
X143858999Y-112935001D01*
X134874000Y-121920000D02*
X133604000Y-120650000D01*
X134494410Y-117856000D02*
X136652000Y-117856000D01*
X133604000Y-118746410D02*
X134494410Y-117856000D01*
X133604000Y-120650000D02*
X133604000Y-118746410D01*
X141572999Y-112935001D02*
X136652000Y-117856000D01*
G04 #@! TO.N,/PTA2*
X149606000Y-103632000D02*
X149606000Y-116332000D01*
X145034000Y-99060000D02*
X149606000Y-103632000D01*
X149606000Y-116332000D02*
X149606000Y-116332000D01*
G04 #@! TO.N,/PTA1*
X145034000Y-104140000D02*
X147066000Y-106172000D01*
X147066000Y-106172000D02*
X147066000Y-113284000D01*
X142494000Y-117856000D02*
X142494000Y-119380000D01*
X147066000Y-113284000D02*
X142494000Y-117856000D01*
G04 #@! TD*
D14*
G04 #@! TO.N,/GND*
G36*
X151949687Y-54866839D02*
X152233819Y-55003277D01*
X152465273Y-55217232D01*
X152623583Y-55489782D01*
X152703701Y-55835435D01*
X152706001Y-55893978D01*
X152706000Y-122628930D01*
X152651161Y-122993687D01*
X152514722Y-123277820D01*
X152300768Y-123509273D01*
X152028219Y-123667583D01*
X151682566Y-123747701D01*
X151624047Y-123750000D01*
X147709212Y-123750000D01*
X148566476Y-122892737D01*
X148629929Y-122850339D01*
X148672327Y-122786886D01*
X148672329Y-122786884D01*
X148797903Y-122598948D01*
X148797904Y-122598947D01*
X148842000Y-122377262D01*
X148842000Y-122377258D01*
X148856888Y-122302411D01*
X148842000Y-122227564D01*
X148842000Y-120123536D01*
X148867528Y-120140593D01*
X150278736Y-121551803D01*
X150278736Y-121597983D01*
X150421081Y-121941635D01*
X150684101Y-122204655D01*
X151027753Y-122347000D01*
X151399719Y-122347000D01*
X151743371Y-122204655D01*
X152006391Y-121941635D01*
X152148736Y-121597983D01*
X152148736Y-121463042D01*
X152158889Y-121412000D01*
X152148736Y-121360958D01*
X152148736Y-121226017D01*
X152006391Y-120882365D01*
X151743371Y-120619345D01*
X151399719Y-120477000D01*
X151353539Y-120477000D01*
X150258156Y-119381619D01*
X150287000Y-119311983D01*
X150287000Y-118940017D01*
X150144655Y-118596365D01*
X149881635Y-118333345D01*
X149685641Y-118252162D01*
X150852473Y-117085331D01*
X150915929Y-117042931D01*
X151083904Y-116791539D01*
X151128000Y-116569854D01*
X151128000Y-116569850D01*
X151142888Y-116495003D01*
X151128000Y-116420156D01*
X151128000Y-99388846D01*
X151142888Y-99313999D01*
X151128000Y-99239152D01*
X151128000Y-99239148D01*
X151083904Y-99017463D01*
X150915929Y-98766071D01*
X150852473Y-98723671D01*
X146475209Y-94346408D01*
X146548092Y-93980000D01*
X146432839Y-93400582D01*
X146104625Y-92909375D01*
X145613418Y-92581161D01*
X145180256Y-92495000D01*
X144887744Y-92495000D01*
X144454582Y-92581161D01*
X143963375Y-92909375D01*
X143951184Y-92927619D01*
X143942157Y-92882235D01*
X143801809Y-92672191D01*
X143591765Y-92531843D01*
X143344000Y-92482560D01*
X141644000Y-92482560D01*
X141396235Y-92531843D01*
X141186191Y-92672191D01*
X141045843Y-92882235D01*
X140996560Y-93130000D01*
X140996560Y-94830000D01*
X141045843Y-95077765D01*
X141186191Y-95287809D01*
X141396235Y-95428157D01*
X141441619Y-95437184D01*
X141423375Y-95449375D01*
X141095161Y-95940582D01*
X140979908Y-96520000D01*
X141095161Y-97099418D01*
X141423375Y-97590625D01*
X141721761Y-97790000D01*
X141423375Y-97989375D01*
X141095161Y-98480582D01*
X140979908Y-99060000D01*
X141095161Y-99639418D01*
X141423375Y-100130625D01*
X141721761Y-100330000D01*
X141423375Y-100529375D01*
X141095161Y-101020582D01*
X140979908Y-101600000D01*
X141052791Y-101966407D01*
X139097580Y-103921618D01*
X138968655Y-103610365D01*
X138705635Y-103347345D01*
X138361983Y-103205000D01*
X137990017Y-103205000D01*
X137646365Y-103347345D01*
X137613710Y-103380000D01*
X135017998Y-103380000D01*
X135047000Y-103309983D01*
X135047000Y-102938017D01*
X134904655Y-102594365D01*
X134641635Y-102331345D01*
X134297983Y-102189000D01*
X134251802Y-102189000D01*
X131999000Y-99936199D01*
X131999000Y-99890017D01*
X131856655Y-99546365D01*
X131593635Y-99283345D01*
X131249983Y-99141000D01*
X130878017Y-99141000D01*
X130534365Y-99283345D01*
X130271345Y-99546365D01*
X130129000Y-99890017D01*
X130129000Y-100261983D01*
X130271345Y-100605635D01*
X130534365Y-100868655D01*
X130878017Y-101011000D01*
X130924199Y-101011000D01*
X133177000Y-103263802D01*
X133177000Y-103309983D01*
X133206002Y-103380000D01*
X131626290Y-103380000D01*
X131593635Y-103347345D01*
X131249983Y-103205000D01*
X130878017Y-103205000D01*
X130534365Y-103347345D01*
X130271345Y-103610365D01*
X130129000Y-103954017D01*
X130129000Y-104325983D01*
X130271345Y-104669635D01*
X130534365Y-104932655D01*
X130878017Y-105075000D01*
X131249983Y-105075000D01*
X131593635Y-104932655D01*
X131626290Y-104900000D01*
X137613710Y-104900000D01*
X137646365Y-104932655D01*
X137957618Y-105061580D01*
X129309530Y-113709669D01*
X129246071Y-113752071D01*
X129078096Y-114003464D01*
X129034000Y-114225149D01*
X129034000Y-114225153D01*
X129019112Y-114300000D01*
X129034000Y-114374847D01*
X129034001Y-118101822D01*
X128723375Y-118309375D01*
X128524000Y-118607761D01*
X128324625Y-118309375D01*
X128014000Y-118101822D01*
X128014000Y-101191799D01*
X141175647Y-88030153D01*
X141222355Y-88142924D01*
X141612642Y-88571183D01*
X141742478Y-88632157D01*
X141423375Y-88845375D01*
X141095161Y-89336582D01*
X140979908Y-89916000D01*
X141095161Y-90495418D01*
X141423375Y-90986625D01*
X141914582Y-91314839D01*
X142347744Y-91401000D01*
X142640256Y-91401000D01*
X143073418Y-91314839D01*
X143564625Y-90986625D01*
X143764000Y-90688239D01*
X143963375Y-90986625D01*
X144454582Y-91314839D01*
X144887744Y-91401000D01*
X145180256Y-91401000D01*
X145613418Y-91314839D01*
X146104625Y-90986625D01*
X146432839Y-90495418D01*
X146548092Y-89916000D01*
X146432839Y-89336582D01*
X146104625Y-88845375D01*
X145806239Y-88646000D01*
X146104625Y-88446625D01*
X146432839Y-87955418D01*
X146548092Y-87376000D01*
X146432839Y-86796582D01*
X146104625Y-86305375D01*
X145806239Y-86106000D01*
X146104625Y-85906625D01*
X146432839Y-85415418D01*
X146548092Y-84836000D01*
X146432839Y-84256582D01*
X146104625Y-83765375D01*
X145806239Y-83566000D01*
X146104625Y-83366625D01*
X146432839Y-82875418D01*
X146548092Y-82296000D01*
X146432839Y-81716582D01*
X146104625Y-81225375D01*
X145806239Y-81026000D01*
X146104625Y-80826625D01*
X146432839Y-80335418D01*
X146548092Y-79756000D01*
X146432839Y-79176582D01*
X146104625Y-78685375D01*
X145806239Y-78486000D01*
X146104625Y-78286625D01*
X146432839Y-77795418D01*
X146548092Y-77216000D01*
X146432839Y-76636582D01*
X146104625Y-76145375D01*
X145785522Y-75932157D01*
X145915358Y-75871183D01*
X146305645Y-75442924D01*
X146475476Y-75032890D01*
X146354155Y-74803000D01*
X145161000Y-74803000D01*
X145161000Y-74823000D01*
X144907000Y-74823000D01*
X144907000Y-74803000D01*
X144887000Y-74803000D01*
X144887000Y-74549000D01*
X144907000Y-74549000D01*
X144907000Y-74529000D01*
X145161000Y-74529000D01*
X145161000Y-74549000D01*
X146354155Y-74549000D01*
X146475476Y-74319110D01*
X146305645Y-73909076D01*
X145915358Y-73480817D01*
X145785522Y-73419843D01*
X146104625Y-73206625D01*
X146432839Y-72715418D01*
X146548092Y-72136000D01*
X146432839Y-71556582D01*
X146231435Y-71255159D01*
X147963000Y-71255159D01*
X147963000Y-72044841D01*
X148265199Y-72774412D01*
X148823588Y-73332801D01*
X149553159Y-73635000D01*
X150342841Y-73635000D01*
X151072412Y-73332801D01*
X151630801Y-72774412D01*
X151933000Y-72044841D01*
X151933000Y-71255159D01*
X151630801Y-70525588D01*
X151072412Y-69967199D01*
X150342841Y-69665000D01*
X149553159Y-69665000D01*
X148823588Y-69967199D01*
X148265199Y-70525588D01*
X147963000Y-71255159D01*
X146231435Y-71255159D01*
X146104625Y-71065375D01*
X145806239Y-70866000D01*
X146104625Y-70666625D01*
X146432839Y-70175418D01*
X146548092Y-69596000D01*
X146432839Y-69016582D01*
X146104625Y-68525375D01*
X145806239Y-68326000D01*
X146104625Y-68126625D01*
X146432839Y-67635418D01*
X146548092Y-67056000D01*
X146432839Y-66476582D01*
X146104625Y-65985375D01*
X145613418Y-65657161D01*
X145180256Y-65571000D01*
X144887744Y-65571000D01*
X144454582Y-65657161D01*
X143963375Y-65985375D01*
X143951184Y-66003619D01*
X143942157Y-65958235D01*
X143801809Y-65748191D01*
X143591765Y-65607843D01*
X143344000Y-65558560D01*
X141644000Y-65558560D01*
X141396235Y-65607843D01*
X141186191Y-65748191D01*
X141045843Y-65958235D01*
X140996560Y-66206000D01*
X140996560Y-67906000D01*
X141045843Y-68153765D01*
X141186191Y-68363809D01*
X141396235Y-68504157D01*
X141441619Y-68513184D01*
X141423375Y-68525375D01*
X141095161Y-69016582D01*
X140979908Y-69596000D01*
X141095161Y-70175418D01*
X141112254Y-70200999D01*
X132567849Y-70200999D01*
X132493001Y-70186111D01*
X132418153Y-70200999D01*
X132418149Y-70200999D01*
X132196464Y-70245095D01*
X131945072Y-70413070D01*
X131902672Y-70476526D01*
X126515530Y-75863669D01*
X126452071Y-75906071D01*
X126284096Y-76157464D01*
X126240000Y-76379149D01*
X126240000Y-76379153D01*
X126225112Y-76454000D01*
X126240000Y-76528847D01*
X126240001Y-84008728D01*
X126214473Y-83991671D01*
X113756382Y-71533580D01*
X114067635Y-71404655D01*
X114330655Y-71141635D01*
X114473000Y-70797983D01*
X114473000Y-70426017D01*
X114330655Y-70082365D01*
X114298000Y-70049710D01*
X114298000Y-59190178D01*
X114608625Y-58982625D01*
X114808000Y-58684239D01*
X115007375Y-58982625D01*
X115498582Y-59310839D01*
X115931744Y-59397000D01*
X116224256Y-59397000D01*
X116657418Y-59310839D01*
X117148625Y-58982625D01*
X117163096Y-58960967D01*
X117229673Y-59121698D01*
X117408301Y-59300327D01*
X117641690Y-59397000D01*
X118332250Y-59397000D01*
X118491000Y-59238250D01*
X118491000Y-58039000D01*
X118745000Y-58039000D01*
X118745000Y-59238250D01*
X118903750Y-59397000D01*
X119594310Y-59397000D01*
X119827699Y-59300327D01*
X120006327Y-59121698D01*
X120103000Y-58888309D01*
X120103000Y-58197750D01*
X119944250Y-58039000D01*
X118745000Y-58039000D01*
X118491000Y-58039000D01*
X118471000Y-58039000D01*
X118471000Y-57785000D01*
X118491000Y-57785000D01*
X118491000Y-56585750D01*
X118745000Y-56585750D01*
X118745000Y-57785000D01*
X119944250Y-57785000D01*
X120103000Y-57626250D01*
X120103000Y-56935691D01*
X120006327Y-56702302D01*
X119827699Y-56523673D01*
X119594310Y-56427000D01*
X118903750Y-56427000D01*
X118745000Y-56585750D01*
X118491000Y-56585750D01*
X118332250Y-56427000D01*
X117641690Y-56427000D01*
X117408301Y-56523673D01*
X117229673Y-56702302D01*
X117163096Y-56863033D01*
X117148625Y-56841375D01*
X116657418Y-56513161D01*
X116224256Y-56427000D01*
X115931744Y-56427000D01*
X115498582Y-56513161D01*
X115007375Y-56841375D01*
X114808000Y-57139761D01*
X114608625Y-56841375D01*
X114117418Y-56513161D01*
X113684256Y-56427000D01*
X113391744Y-56427000D01*
X112958582Y-56513161D01*
X112467375Y-56841375D01*
X112268000Y-57139761D01*
X112068625Y-56841375D01*
X111577418Y-56513161D01*
X111144256Y-56427000D01*
X110851744Y-56427000D01*
X110418582Y-56513161D01*
X109927375Y-56841375D01*
X109728000Y-57139761D01*
X109528625Y-56841375D01*
X109037418Y-56513161D01*
X108604256Y-56427000D01*
X108311744Y-56427000D01*
X107878582Y-56513161D01*
X107387375Y-56841375D01*
X107059161Y-57332582D01*
X106943908Y-57912000D01*
X107059161Y-58491418D01*
X107387375Y-58982625D01*
X107878582Y-59310839D01*
X108311744Y-59397000D01*
X108604256Y-59397000D01*
X109037418Y-59310839D01*
X109528625Y-58982625D01*
X109728000Y-58684239D01*
X109927375Y-58982625D01*
X110238001Y-59190179D01*
X110238000Y-64715710D01*
X110205345Y-64748365D01*
X110063000Y-65092017D01*
X110063000Y-65463983D01*
X110205345Y-65807635D01*
X110468365Y-66070655D01*
X110812017Y-66213000D01*
X111183983Y-66213000D01*
X111527635Y-66070655D01*
X111790655Y-65807635D01*
X111933000Y-65463983D01*
X111933000Y-65092017D01*
X111790655Y-64748365D01*
X111758000Y-64715710D01*
X111758000Y-59190178D01*
X112068625Y-58982625D01*
X112268000Y-58684239D01*
X112467375Y-58982625D01*
X112778001Y-59190179D01*
X112778000Y-70049710D01*
X112745345Y-70082365D01*
X112616420Y-70393618D01*
X102868000Y-60645199D01*
X102868000Y-59190178D01*
X103178625Y-58982625D01*
X103506839Y-58491418D01*
X103622092Y-57912000D01*
X103506839Y-57332582D01*
X103178625Y-56841375D01*
X102687418Y-56513161D01*
X102254256Y-56427000D01*
X101961744Y-56427000D01*
X101528582Y-56513161D01*
X101037375Y-56841375D01*
X100838000Y-57139761D01*
X100638625Y-56841375D01*
X100147418Y-56513161D01*
X99714256Y-56427000D01*
X99421744Y-56427000D01*
X98988582Y-56513161D01*
X98497375Y-56841375D01*
X98482904Y-56863033D01*
X98416327Y-56702302D01*
X98237699Y-56523673D01*
X98004310Y-56427000D01*
X97313750Y-56427000D01*
X97155000Y-56585750D01*
X97155000Y-57785000D01*
X97175000Y-57785000D01*
X97175000Y-58039000D01*
X97155000Y-58039000D01*
X97155000Y-59238250D01*
X97313750Y-59397000D01*
X98004310Y-59397000D01*
X98237699Y-59300327D01*
X98416327Y-59121698D01*
X98482904Y-58960967D01*
X98497375Y-58982625D01*
X98808287Y-59190370D01*
X98852097Y-59410618D01*
X99020072Y-59662010D01*
X99271464Y-59829985D01*
X99568000Y-59888970D01*
X99864537Y-59829985D01*
X100115929Y-59662010D01*
X100283904Y-59410618D01*
X100327714Y-59190369D01*
X100638625Y-58982625D01*
X100838000Y-58684239D01*
X101037375Y-58982625D01*
X101348000Y-59190178D01*
X101348001Y-60885148D01*
X101333112Y-60960000D01*
X101348001Y-61034852D01*
X101392097Y-61256537D01*
X101560072Y-61507929D01*
X101623528Y-61550329D01*
X124970000Y-84896802D01*
X124970001Y-86305709D01*
X124937345Y-86338365D01*
X124795000Y-86682017D01*
X124795000Y-87053983D01*
X124937345Y-87397635D01*
X125200365Y-87660655D01*
X125544017Y-87803000D01*
X125915983Y-87803000D01*
X126240001Y-87668788D01*
X126240001Y-90877709D01*
X126207345Y-90910365D01*
X126065000Y-91254017D01*
X126065000Y-91300198D01*
X124066199Y-93299000D01*
X124020017Y-93299000D01*
X123676365Y-93441345D01*
X123413345Y-93704365D01*
X123271000Y-94048017D01*
X123271000Y-94419983D01*
X123413345Y-94763635D01*
X123676365Y-95026655D01*
X124020017Y-95169000D01*
X124267197Y-95169000D01*
X122073197Y-97363000D01*
X122027015Y-97363000D01*
X121683363Y-97505345D01*
X121420343Y-97768365D01*
X121277998Y-98112017D01*
X121277998Y-98483983D01*
X121420343Y-98827635D01*
X121683363Y-99090655D01*
X122027015Y-99233000D01*
X122398981Y-99233000D01*
X122742633Y-99090655D01*
X123005653Y-98827635D01*
X123147998Y-98483983D01*
X123147998Y-98437801D01*
X141157334Y-80428466D01*
X141298084Y-80639114D01*
X116954199Y-104983000D01*
X116908017Y-104983000D01*
X116564365Y-105125345D01*
X116301345Y-105388365D01*
X116159000Y-105732017D01*
X116159000Y-106103983D01*
X116301345Y-106447635D01*
X116564365Y-106710655D01*
X116908017Y-106853000D01*
X117279983Y-106853000D01*
X117623635Y-106710655D01*
X117886655Y-106447635D01*
X118029000Y-106103983D01*
X118029000Y-106057801D01*
X141141713Y-82945089D01*
X141313705Y-83202492D01*
X119494199Y-105021998D01*
X119448017Y-105021998D01*
X119104365Y-105164343D01*
X118841345Y-105427363D01*
X118699000Y-105771015D01*
X118699000Y-106142981D01*
X118841345Y-106486633D01*
X119104365Y-106749653D01*
X119448017Y-106891998D01*
X119819983Y-106891998D01*
X120163635Y-106749653D01*
X120426655Y-106486633D01*
X120569000Y-106142981D01*
X120569000Y-106096799D01*
X141157334Y-85508466D01*
X141313705Y-85742492D01*
X126769530Y-100286667D01*
X126706071Y-100329069D01*
X126538096Y-100580462D01*
X126494000Y-100802147D01*
X126494000Y-100802151D01*
X126479112Y-100876998D01*
X126494000Y-100951845D01*
X126494001Y-115774484D01*
X126479330Y-115752527D01*
X126479328Y-115752525D01*
X126436930Y-115689072D01*
X126373477Y-115646674D01*
X124841001Y-114114200D01*
X124841001Y-114068018D01*
X124698656Y-113724366D01*
X124435636Y-113461346D01*
X124091984Y-113319001D01*
X123720018Y-113319001D01*
X123376366Y-113461346D01*
X123113346Y-113724366D01*
X122971001Y-114068018D01*
X122971001Y-114439984D01*
X123113346Y-114783636D01*
X123376366Y-115046656D01*
X123720018Y-115189001D01*
X123766200Y-115189001D01*
X125129001Y-116551804D01*
X125129001Y-117518118D01*
X102360000Y-94749118D01*
X102360000Y-86981844D01*
X102374888Y-86906997D01*
X102360000Y-86832150D01*
X102360000Y-86832146D01*
X102315904Y-86610461D01*
X102147929Y-86359069D01*
X102084473Y-86316669D01*
X100494295Y-84726492D01*
X100712839Y-84399418D01*
X100828092Y-83820000D01*
X100712839Y-83240582D01*
X100384625Y-82749375D01*
X100086239Y-82550000D01*
X100384625Y-82350625D01*
X100712839Y-81859418D01*
X100828092Y-81280000D01*
X100712839Y-80700582D01*
X100384625Y-80209375D01*
X100086239Y-80010000D01*
X100384625Y-79810625D01*
X100712839Y-79319418D01*
X100828092Y-78740000D01*
X100712839Y-78160582D01*
X100384625Y-77669375D01*
X100086239Y-77470000D01*
X100384625Y-77270625D01*
X100712839Y-76779418D01*
X100828092Y-76200000D01*
X100712839Y-75620582D01*
X100384625Y-75129375D01*
X99893418Y-74801161D01*
X99460256Y-74715000D01*
X99167744Y-74715000D01*
X98734582Y-74801161D01*
X98243375Y-75129375D01*
X98231184Y-75147619D01*
X98222157Y-75102235D01*
X98081809Y-74892191D01*
X97871765Y-74751843D01*
X97624000Y-74702560D01*
X95924000Y-74702560D01*
X95676235Y-74751843D01*
X95466191Y-74892191D01*
X95325843Y-75102235D01*
X95276560Y-75350000D01*
X95276560Y-77050000D01*
X95325843Y-77297765D01*
X95466191Y-77507809D01*
X95676235Y-77648157D01*
X95721619Y-77657184D01*
X95703375Y-77669375D01*
X95375161Y-78160582D01*
X95259908Y-78740000D01*
X95375161Y-79319418D01*
X95703375Y-79810625D01*
X96001761Y-80010000D01*
X95703375Y-80209375D01*
X95375161Y-80700582D01*
X95259908Y-81280000D01*
X95332791Y-81646407D01*
X91971528Y-85007671D01*
X91908072Y-85050071D01*
X91865672Y-85113527D01*
X91865671Y-85113528D01*
X91740097Y-85301463D01*
X91681112Y-85598000D01*
X91696001Y-85672852D01*
X91696000Y-119051153D01*
X91681112Y-119126000D01*
X91696000Y-119200847D01*
X91696000Y-119200851D01*
X91740096Y-119422536D01*
X91908071Y-119673929D01*
X91971530Y-119716331D01*
X93294671Y-121039473D01*
X93337072Y-121102930D01*
X93588464Y-121270905D01*
X93810149Y-121315001D01*
X93810153Y-121315001D01*
X93885001Y-121329889D01*
X93959849Y-121315001D01*
X95276560Y-121315001D01*
X95276560Y-122770000D01*
X95325843Y-123017765D01*
X95466191Y-123227809D01*
X95676235Y-123368157D01*
X95924000Y-123417440D01*
X97624000Y-123417440D01*
X97871765Y-123368157D01*
X98081809Y-123227809D01*
X98222157Y-123017765D01*
X98231184Y-122972381D01*
X98243375Y-122990625D01*
X98734582Y-123318839D01*
X99167744Y-123405000D01*
X99460256Y-123405000D01*
X99680408Y-123361209D01*
X100069198Y-123750000D01*
X90223070Y-123750000D01*
X89858313Y-123695161D01*
X89574180Y-123558722D01*
X89342727Y-123344768D01*
X89184417Y-123072219D01*
X89104299Y-122726566D01*
X89102000Y-122668047D01*
X89102000Y-71255159D01*
X89963000Y-71255159D01*
X89963000Y-72044841D01*
X90265199Y-72774412D01*
X90823588Y-73332801D01*
X91553159Y-73635000D01*
X92342841Y-73635000D01*
X93072412Y-73332801D01*
X93630801Y-72774412D01*
X93933000Y-72044841D01*
X93933000Y-71255159D01*
X93630801Y-70525588D01*
X93072412Y-69967199D01*
X92342841Y-69665000D01*
X91553159Y-69665000D01*
X90823588Y-69967199D01*
X90265199Y-70525588D01*
X89963000Y-71255159D01*
X89102000Y-71255159D01*
X89102000Y-58197750D01*
X95543000Y-58197750D01*
X95543000Y-58888309D01*
X95639673Y-59121698D01*
X95818301Y-59300327D01*
X96051690Y-59397000D01*
X96742250Y-59397000D01*
X96901000Y-59238250D01*
X96901000Y-58039000D01*
X95701750Y-58039000D01*
X95543000Y-58197750D01*
X89102000Y-58197750D01*
X89102000Y-56935691D01*
X95543000Y-56935691D01*
X95543000Y-57626250D01*
X95701750Y-57785000D01*
X96901000Y-57785000D01*
X96901000Y-56585750D01*
X96742250Y-56427000D01*
X96051690Y-56427000D01*
X95818301Y-56523673D01*
X95639673Y-56702302D01*
X95543000Y-56935691D01*
X89102000Y-56935691D01*
X89102000Y-55933071D01*
X89156839Y-55568313D01*
X89293277Y-55284181D01*
X89507232Y-55052727D01*
X89779782Y-54894417D01*
X90125435Y-54814299D01*
X90183953Y-54812000D01*
X151584929Y-54812000D01*
X151949687Y-54866839D01*
X151949687Y-54866839D01*
G37*
X151949687Y-54866839D02*
X152233819Y-55003277D01*
X152465273Y-55217232D01*
X152623583Y-55489782D01*
X152703701Y-55835435D01*
X152706001Y-55893978D01*
X152706000Y-122628930D01*
X152651161Y-122993687D01*
X152514722Y-123277820D01*
X152300768Y-123509273D01*
X152028219Y-123667583D01*
X151682566Y-123747701D01*
X151624047Y-123750000D01*
X147709212Y-123750000D01*
X148566476Y-122892737D01*
X148629929Y-122850339D01*
X148672327Y-122786886D01*
X148672329Y-122786884D01*
X148797903Y-122598948D01*
X148797904Y-122598947D01*
X148842000Y-122377262D01*
X148842000Y-122377258D01*
X148856888Y-122302411D01*
X148842000Y-122227564D01*
X148842000Y-120123536D01*
X148867528Y-120140593D01*
X150278736Y-121551803D01*
X150278736Y-121597983D01*
X150421081Y-121941635D01*
X150684101Y-122204655D01*
X151027753Y-122347000D01*
X151399719Y-122347000D01*
X151743371Y-122204655D01*
X152006391Y-121941635D01*
X152148736Y-121597983D01*
X152148736Y-121463042D01*
X152158889Y-121412000D01*
X152148736Y-121360958D01*
X152148736Y-121226017D01*
X152006391Y-120882365D01*
X151743371Y-120619345D01*
X151399719Y-120477000D01*
X151353539Y-120477000D01*
X150258156Y-119381619D01*
X150287000Y-119311983D01*
X150287000Y-118940017D01*
X150144655Y-118596365D01*
X149881635Y-118333345D01*
X149685641Y-118252162D01*
X150852473Y-117085331D01*
X150915929Y-117042931D01*
X151083904Y-116791539D01*
X151128000Y-116569854D01*
X151128000Y-116569850D01*
X151142888Y-116495003D01*
X151128000Y-116420156D01*
X151128000Y-99388846D01*
X151142888Y-99313999D01*
X151128000Y-99239152D01*
X151128000Y-99239148D01*
X151083904Y-99017463D01*
X150915929Y-98766071D01*
X150852473Y-98723671D01*
X146475209Y-94346408D01*
X146548092Y-93980000D01*
X146432839Y-93400582D01*
X146104625Y-92909375D01*
X145613418Y-92581161D01*
X145180256Y-92495000D01*
X144887744Y-92495000D01*
X144454582Y-92581161D01*
X143963375Y-92909375D01*
X143951184Y-92927619D01*
X143942157Y-92882235D01*
X143801809Y-92672191D01*
X143591765Y-92531843D01*
X143344000Y-92482560D01*
X141644000Y-92482560D01*
X141396235Y-92531843D01*
X141186191Y-92672191D01*
X141045843Y-92882235D01*
X140996560Y-93130000D01*
X140996560Y-94830000D01*
X141045843Y-95077765D01*
X141186191Y-95287809D01*
X141396235Y-95428157D01*
X141441619Y-95437184D01*
X141423375Y-95449375D01*
X141095161Y-95940582D01*
X140979908Y-96520000D01*
X141095161Y-97099418D01*
X141423375Y-97590625D01*
X141721761Y-97790000D01*
X141423375Y-97989375D01*
X141095161Y-98480582D01*
X140979908Y-99060000D01*
X141095161Y-99639418D01*
X141423375Y-100130625D01*
X141721761Y-100330000D01*
X141423375Y-100529375D01*
X141095161Y-101020582D01*
X140979908Y-101600000D01*
X141052791Y-101966407D01*
X139097580Y-103921618D01*
X138968655Y-103610365D01*
X138705635Y-103347345D01*
X138361983Y-103205000D01*
X137990017Y-103205000D01*
X137646365Y-103347345D01*
X137613710Y-103380000D01*
X135017998Y-103380000D01*
X135047000Y-103309983D01*
X135047000Y-102938017D01*
X134904655Y-102594365D01*
X134641635Y-102331345D01*
X134297983Y-102189000D01*
X134251802Y-102189000D01*
X131999000Y-99936199D01*
X131999000Y-99890017D01*
X131856655Y-99546365D01*
X131593635Y-99283345D01*
X131249983Y-99141000D01*
X130878017Y-99141000D01*
X130534365Y-99283345D01*
X130271345Y-99546365D01*
X130129000Y-99890017D01*
X130129000Y-100261983D01*
X130271345Y-100605635D01*
X130534365Y-100868655D01*
X130878017Y-101011000D01*
X130924199Y-101011000D01*
X133177000Y-103263802D01*
X133177000Y-103309983D01*
X133206002Y-103380000D01*
X131626290Y-103380000D01*
X131593635Y-103347345D01*
X131249983Y-103205000D01*
X130878017Y-103205000D01*
X130534365Y-103347345D01*
X130271345Y-103610365D01*
X130129000Y-103954017D01*
X130129000Y-104325983D01*
X130271345Y-104669635D01*
X130534365Y-104932655D01*
X130878017Y-105075000D01*
X131249983Y-105075000D01*
X131593635Y-104932655D01*
X131626290Y-104900000D01*
X137613710Y-104900000D01*
X137646365Y-104932655D01*
X137957618Y-105061580D01*
X129309530Y-113709669D01*
X129246071Y-113752071D01*
X129078096Y-114003464D01*
X129034000Y-114225149D01*
X129034000Y-114225153D01*
X129019112Y-114300000D01*
X129034000Y-114374847D01*
X129034001Y-118101822D01*
X128723375Y-118309375D01*
X128524000Y-118607761D01*
X128324625Y-118309375D01*
X128014000Y-118101822D01*
X128014000Y-101191799D01*
X141175647Y-88030153D01*
X141222355Y-88142924D01*
X141612642Y-88571183D01*
X141742478Y-88632157D01*
X141423375Y-88845375D01*
X141095161Y-89336582D01*
X140979908Y-89916000D01*
X141095161Y-90495418D01*
X141423375Y-90986625D01*
X141914582Y-91314839D01*
X142347744Y-91401000D01*
X142640256Y-91401000D01*
X143073418Y-91314839D01*
X143564625Y-90986625D01*
X143764000Y-90688239D01*
X143963375Y-90986625D01*
X144454582Y-91314839D01*
X144887744Y-91401000D01*
X145180256Y-91401000D01*
X145613418Y-91314839D01*
X146104625Y-90986625D01*
X146432839Y-90495418D01*
X146548092Y-89916000D01*
X146432839Y-89336582D01*
X146104625Y-88845375D01*
X145806239Y-88646000D01*
X146104625Y-88446625D01*
X146432839Y-87955418D01*
X146548092Y-87376000D01*
X146432839Y-86796582D01*
X146104625Y-86305375D01*
X145806239Y-86106000D01*
X146104625Y-85906625D01*
X146432839Y-85415418D01*
X146548092Y-84836000D01*
X146432839Y-84256582D01*
X146104625Y-83765375D01*
X145806239Y-83566000D01*
X146104625Y-83366625D01*
X146432839Y-82875418D01*
X146548092Y-82296000D01*
X146432839Y-81716582D01*
X146104625Y-81225375D01*
X145806239Y-81026000D01*
X146104625Y-80826625D01*
X146432839Y-80335418D01*
X146548092Y-79756000D01*
X146432839Y-79176582D01*
X146104625Y-78685375D01*
X145806239Y-78486000D01*
X146104625Y-78286625D01*
X146432839Y-77795418D01*
X146548092Y-77216000D01*
X146432839Y-76636582D01*
X146104625Y-76145375D01*
X145785522Y-75932157D01*
X145915358Y-75871183D01*
X146305645Y-75442924D01*
X146475476Y-75032890D01*
X146354155Y-74803000D01*
X145161000Y-74803000D01*
X145161000Y-74823000D01*
X144907000Y-74823000D01*
X144907000Y-74803000D01*
X144887000Y-74803000D01*
X144887000Y-74549000D01*
X144907000Y-74549000D01*
X144907000Y-74529000D01*
X145161000Y-74529000D01*
X145161000Y-74549000D01*
X146354155Y-74549000D01*
X146475476Y-74319110D01*
X146305645Y-73909076D01*
X145915358Y-73480817D01*
X145785522Y-73419843D01*
X146104625Y-73206625D01*
X146432839Y-72715418D01*
X146548092Y-72136000D01*
X146432839Y-71556582D01*
X146231435Y-71255159D01*
X147963000Y-71255159D01*
X147963000Y-72044841D01*
X148265199Y-72774412D01*
X148823588Y-73332801D01*
X149553159Y-73635000D01*
X150342841Y-73635000D01*
X151072412Y-73332801D01*
X151630801Y-72774412D01*
X151933000Y-72044841D01*
X151933000Y-71255159D01*
X151630801Y-70525588D01*
X151072412Y-69967199D01*
X150342841Y-69665000D01*
X149553159Y-69665000D01*
X148823588Y-69967199D01*
X148265199Y-70525588D01*
X147963000Y-71255159D01*
X146231435Y-71255159D01*
X146104625Y-71065375D01*
X145806239Y-70866000D01*
X146104625Y-70666625D01*
X146432839Y-70175418D01*
X146548092Y-69596000D01*
X146432839Y-69016582D01*
X146104625Y-68525375D01*
X145806239Y-68326000D01*
X146104625Y-68126625D01*
X146432839Y-67635418D01*
X146548092Y-67056000D01*
X146432839Y-66476582D01*
X146104625Y-65985375D01*
X145613418Y-65657161D01*
X145180256Y-65571000D01*
X144887744Y-65571000D01*
X144454582Y-65657161D01*
X143963375Y-65985375D01*
X143951184Y-66003619D01*
X143942157Y-65958235D01*
X143801809Y-65748191D01*
X143591765Y-65607843D01*
X143344000Y-65558560D01*
X141644000Y-65558560D01*
X141396235Y-65607843D01*
X141186191Y-65748191D01*
X141045843Y-65958235D01*
X140996560Y-66206000D01*
X140996560Y-67906000D01*
X141045843Y-68153765D01*
X141186191Y-68363809D01*
X141396235Y-68504157D01*
X141441619Y-68513184D01*
X141423375Y-68525375D01*
X141095161Y-69016582D01*
X140979908Y-69596000D01*
X141095161Y-70175418D01*
X141112254Y-70200999D01*
X132567849Y-70200999D01*
X132493001Y-70186111D01*
X132418153Y-70200999D01*
X132418149Y-70200999D01*
X132196464Y-70245095D01*
X131945072Y-70413070D01*
X131902672Y-70476526D01*
X126515530Y-75863669D01*
X126452071Y-75906071D01*
X126284096Y-76157464D01*
X126240000Y-76379149D01*
X126240000Y-76379153D01*
X126225112Y-76454000D01*
X126240000Y-76528847D01*
X126240001Y-84008728D01*
X126214473Y-83991671D01*
X113756382Y-71533580D01*
X114067635Y-71404655D01*
X114330655Y-71141635D01*
X114473000Y-70797983D01*
X114473000Y-70426017D01*
X114330655Y-70082365D01*
X114298000Y-70049710D01*
X114298000Y-59190178D01*
X114608625Y-58982625D01*
X114808000Y-58684239D01*
X115007375Y-58982625D01*
X115498582Y-59310839D01*
X115931744Y-59397000D01*
X116224256Y-59397000D01*
X116657418Y-59310839D01*
X117148625Y-58982625D01*
X117163096Y-58960967D01*
X117229673Y-59121698D01*
X117408301Y-59300327D01*
X117641690Y-59397000D01*
X118332250Y-59397000D01*
X118491000Y-59238250D01*
X118491000Y-58039000D01*
X118745000Y-58039000D01*
X118745000Y-59238250D01*
X118903750Y-59397000D01*
X119594310Y-59397000D01*
X119827699Y-59300327D01*
X120006327Y-59121698D01*
X120103000Y-58888309D01*
X120103000Y-58197750D01*
X119944250Y-58039000D01*
X118745000Y-58039000D01*
X118491000Y-58039000D01*
X118471000Y-58039000D01*
X118471000Y-57785000D01*
X118491000Y-57785000D01*
X118491000Y-56585750D01*
X118745000Y-56585750D01*
X118745000Y-57785000D01*
X119944250Y-57785000D01*
X120103000Y-57626250D01*
X120103000Y-56935691D01*
X120006327Y-56702302D01*
X119827699Y-56523673D01*
X119594310Y-56427000D01*
X118903750Y-56427000D01*
X118745000Y-56585750D01*
X118491000Y-56585750D01*
X118332250Y-56427000D01*
X117641690Y-56427000D01*
X117408301Y-56523673D01*
X117229673Y-56702302D01*
X117163096Y-56863033D01*
X117148625Y-56841375D01*
X116657418Y-56513161D01*
X116224256Y-56427000D01*
X115931744Y-56427000D01*
X115498582Y-56513161D01*
X115007375Y-56841375D01*
X114808000Y-57139761D01*
X114608625Y-56841375D01*
X114117418Y-56513161D01*
X113684256Y-56427000D01*
X113391744Y-56427000D01*
X112958582Y-56513161D01*
X112467375Y-56841375D01*
X112268000Y-57139761D01*
X112068625Y-56841375D01*
X111577418Y-56513161D01*
X111144256Y-56427000D01*
X110851744Y-56427000D01*
X110418582Y-56513161D01*
X109927375Y-56841375D01*
X109728000Y-57139761D01*
X109528625Y-56841375D01*
X109037418Y-56513161D01*
X108604256Y-56427000D01*
X108311744Y-56427000D01*
X107878582Y-56513161D01*
X107387375Y-56841375D01*
X107059161Y-57332582D01*
X106943908Y-57912000D01*
X107059161Y-58491418D01*
X107387375Y-58982625D01*
X107878582Y-59310839D01*
X108311744Y-59397000D01*
X108604256Y-59397000D01*
X109037418Y-59310839D01*
X109528625Y-58982625D01*
X109728000Y-58684239D01*
X109927375Y-58982625D01*
X110238001Y-59190179D01*
X110238000Y-64715710D01*
X110205345Y-64748365D01*
X110063000Y-65092017D01*
X110063000Y-65463983D01*
X110205345Y-65807635D01*
X110468365Y-66070655D01*
X110812017Y-66213000D01*
X111183983Y-66213000D01*
X111527635Y-66070655D01*
X111790655Y-65807635D01*
X111933000Y-65463983D01*
X111933000Y-65092017D01*
X111790655Y-64748365D01*
X111758000Y-64715710D01*
X111758000Y-59190178D01*
X112068625Y-58982625D01*
X112268000Y-58684239D01*
X112467375Y-58982625D01*
X112778001Y-59190179D01*
X112778000Y-70049710D01*
X112745345Y-70082365D01*
X112616420Y-70393618D01*
X102868000Y-60645199D01*
X102868000Y-59190178D01*
X103178625Y-58982625D01*
X103506839Y-58491418D01*
X103622092Y-57912000D01*
X103506839Y-57332582D01*
X103178625Y-56841375D01*
X102687418Y-56513161D01*
X102254256Y-56427000D01*
X101961744Y-56427000D01*
X101528582Y-56513161D01*
X101037375Y-56841375D01*
X100838000Y-57139761D01*
X100638625Y-56841375D01*
X100147418Y-56513161D01*
X99714256Y-56427000D01*
X99421744Y-56427000D01*
X98988582Y-56513161D01*
X98497375Y-56841375D01*
X98482904Y-56863033D01*
X98416327Y-56702302D01*
X98237699Y-56523673D01*
X98004310Y-56427000D01*
X97313750Y-56427000D01*
X97155000Y-56585750D01*
X97155000Y-57785000D01*
X97175000Y-57785000D01*
X97175000Y-58039000D01*
X97155000Y-58039000D01*
X97155000Y-59238250D01*
X97313750Y-59397000D01*
X98004310Y-59397000D01*
X98237699Y-59300327D01*
X98416327Y-59121698D01*
X98482904Y-58960967D01*
X98497375Y-58982625D01*
X98808287Y-59190370D01*
X98852097Y-59410618D01*
X99020072Y-59662010D01*
X99271464Y-59829985D01*
X99568000Y-59888970D01*
X99864537Y-59829985D01*
X100115929Y-59662010D01*
X100283904Y-59410618D01*
X100327714Y-59190369D01*
X100638625Y-58982625D01*
X100838000Y-58684239D01*
X101037375Y-58982625D01*
X101348000Y-59190178D01*
X101348001Y-60885148D01*
X101333112Y-60960000D01*
X101348001Y-61034852D01*
X101392097Y-61256537D01*
X101560072Y-61507929D01*
X101623528Y-61550329D01*
X124970000Y-84896802D01*
X124970001Y-86305709D01*
X124937345Y-86338365D01*
X124795000Y-86682017D01*
X124795000Y-87053983D01*
X124937345Y-87397635D01*
X125200365Y-87660655D01*
X125544017Y-87803000D01*
X125915983Y-87803000D01*
X126240001Y-87668788D01*
X126240001Y-90877709D01*
X126207345Y-90910365D01*
X126065000Y-91254017D01*
X126065000Y-91300198D01*
X124066199Y-93299000D01*
X124020017Y-93299000D01*
X123676365Y-93441345D01*
X123413345Y-93704365D01*
X123271000Y-94048017D01*
X123271000Y-94419983D01*
X123413345Y-94763635D01*
X123676365Y-95026655D01*
X124020017Y-95169000D01*
X124267197Y-95169000D01*
X122073197Y-97363000D01*
X122027015Y-97363000D01*
X121683363Y-97505345D01*
X121420343Y-97768365D01*
X121277998Y-98112017D01*
X121277998Y-98483983D01*
X121420343Y-98827635D01*
X121683363Y-99090655D01*
X122027015Y-99233000D01*
X122398981Y-99233000D01*
X122742633Y-99090655D01*
X123005653Y-98827635D01*
X123147998Y-98483983D01*
X123147998Y-98437801D01*
X141157334Y-80428466D01*
X141298084Y-80639114D01*
X116954199Y-104983000D01*
X116908017Y-104983000D01*
X116564365Y-105125345D01*
X116301345Y-105388365D01*
X116159000Y-105732017D01*
X116159000Y-106103983D01*
X116301345Y-106447635D01*
X116564365Y-106710655D01*
X116908017Y-106853000D01*
X117279983Y-106853000D01*
X117623635Y-106710655D01*
X117886655Y-106447635D01*
X118029000Y-106103983D01*
X118029000Y-106057801D01*
X141141713Y-82945089D01*
X141313705Y-83202492D01*
X119494199Y-105021998D01*
X119448017Y-105021998D01*
X119104365Y-105164343D01*
X118841345Y-105427363D01*
X118699000Y-105771015D01*
X118699000Y-106142981D01*
X118841345Y-106486633D01*
X119104365Y-106749653D01*
X119448017Y-106891998D01*
X119819983Y-106891998D01*
X120163635Y-106749653D01*
X120426655Y-106486633D01*
X120569000Y-106142981D01*
X120569000Y-106096799D01*
X141157334Y-85508466D01*
X141313705Y-85742492D01*
X126769530Y-100286667D01*
X126706071Y-100329069D01*
X126538096Y-100580462D01*
X126494000Y-100802147D01*
X126494000Y-100802151D01*
X126479112Y-100876998D01*
X126494000Y-100951845D01*
X126494001Y-115774484D01*
X126479330Y-115752527D01*
X126479328Y-115752525D01*
X126436930Y-115689072D01*
X126373477Y-115646674D01*
X124841001Y-114114200D01*
X124841001Y-114068018D01*
X124698656Y-113724366D01*
X124435636Y-113461346D01*
X124091984Y-113319001D01*
X123720018Y-113319001D01*
X123376366Y-113461346D01*
X123113346Y-113724366D01*
X122971001Y-114068018D01*
X122971001Y-114439984D01*
X123113346Y-114783636D01*
X123376366Y-115046656D01*
X123720018Y-115189001D01*
X123766200Y-115189001D01*
X125129001Y-116551804D01*
X125129001Y-117518118D01*
X102360000Y-94749118D01*
X102360000Y-86981844D01*
X102374888Y-86906997D01*
X102360000Y-86832150D01*
X102360000Y-86832146D01*
X102315904Y-86610461D01*
X102147929Y-86359069D01*
X102084473Y-86316669D01*
X100494295Y-84726492D01*
X100712839Y-84399418D01*
X100828092Y-83820000D01*
X100712839Y-83240582D01*
X100384625Y-82749375D01*
X100086239Y-82550000D01*
X100384625Y-82350625D01*
X100712839Y-81859418D01*
X100828092Y-81280000D01*
X100712839Y-80700582D01*
X100384625Y-80209375D01*
X100086239Y-80010000D01*
X100384625Y-79810625D01*
X100712839Y-79319418D01*
X100828092Y-78740000D01*
X100712839Y-78160582D01*
X100384625Y-77669375D01*
X100086239Y-77470000D01*
X100384625Y-77270625D01*
X100712839Y-76779418D01*
X100828092Y-76200000D01*
X100712839Y-75620582D01*
X100384625Y-75129375D01*
X99893418Y-74801161D01*
X99460256Y-74715000D01*
X99167744Y-74715000D01*
X98734582Y-74801161D01*
X98243375Y-75129375D01*
X98231184Y-75147619D01*
X98222157Y-75102235D01*
X98081809Y-74892191D01*
X97871765Y-74751843D01*
X97624000Y-74702560D01*
X95924000Y-74702560D01*
X95676235Y-74751843D01*
X95466191Y-74892191D01*
X95325843Y-75102235D01*
X95276560Y-75350000D01*
X95276560Y-77050000D01*
X95325843Y-77297765D01*
X95466191Y-77507809D01*
X95676235Y-77648157D01*
X95721619Y-77657184D01*
X95703375Y-77669375D01*
X95375161Y-78160582D01*
X95259908Y-78740000D01*
X95375161Y-79319418D01*
X95703375Y-79810625D01*
X96001761Y-80010000D01*
X95703375Y-80209375D01*
X95375161Y-80700582D01*
X95259908Y-81280000D01*
X95332791Y-81646407D01*
X91971528Y-85007671D01*
X91908072Y-85050071D01*
X91865672Y-85113527D01*
X91865671Y-85113528D01*
X91740097Y-85301463D01*
X91681112Y-85598000D01*
X91696001Y-85672852D01*
X91696000Y-119051153D01*
X91681112Y-119126000D01*
X91696000Y-119200847D01*
X91696000Y-119200851D01*
X91740096Y-119422536D01*
X91908071Y-119673929D01*
X91971530Y-119716331D01*
X93294671Y-121039473D01*
X93337072Y-121102930D01*
X93588464Y-121270905D01*
X93810149Y-121315001D01*
X93810153Y-121315001D01*
X93885001Y-121329889D01*
X93959849Y-121315001D01*
X95276560Y-121315001D01*
X95276560Y-122770000D01*
X95325843Y-123017765D01*
X95466191Y-123227809D01*
X95676235Y-123368157D01*
X95924000Y-123417440D01*
X97624000Y-123417440D01*
X97871765Y-123368157D01*
X98081809Y-123227809D01*
X98222157Y-123017765D01*
X98231184Y-122972381D01*
X98243375Y-122990625D01*
X98734582Y-123318839D01*
X99167744Y-123405000D01*
X99460256Y-123405000D01*
X99680408Y-123361209D01*
X100069198Y-123750000D01*
X90223070Y-123750000D01*
X89858313Y-123695161D01*
X89574180Y-123558722D01*
X89342727Y-123344768D01*
X89184417Y-123072219D01*
X89104299Y-122726566D01*
X89102000Y-122668047D01*
X89102000Y-71255159D01*
X89963000Y-71255159D01*
X89963000Y-72044841D01*
X90265199Y-72774412D01*
X90823588Y-73332801D01*
X91553159Y-73635000D01*
X92342841Y-73635000D01*
X93072412Y-73332801D01*
X93630801Y-72774412D01*
X93933000Y-72044841D01*
X93933000Y-71255159D01*
X93630801Y-70525588D01*
X93072412Y-69967199D01*
X92342841Y-69665000D01*
X91553159Y-69665000D01*
X90823588Y-69967199D01*
X90265199Y-70525588D01*
X89963000Y-71255159D01*
X89102000Y-71255159D01*
X89102000Y-58197750D01*
X95543000Y-58197750D01*
X95543000Y-58888309D01*
X95639673Y-59121698D01*
X95818301Y-59300327D01*
X96051690Y-59397000D01*
X96742250Y-59397000D01*
X96901000Y-59238250D01*
X96901000Y-58039000D01*
X95701750Y-58039000D01*
X95543000Y-58197750D01*
X89102000Y-58197750D01*
X89102000Y-56935691D01*
X95543000Y-56935691D01*
X95543000Y-57626250D01*
X95701750Y-57785000D01*
X96901000Y-57785000D01*
X96901000Y-56585750D01*
X96742250Y-56427000D01*
X96051690Y-56427000D01*
X95818301Y-56523673D01*
X95639673Y-56702302D01*
X95543000Y-56935691D01*
X89102000Y-56935691D01*
X89102000Y-55933071D01*
X89156839Y-55568313D01*
X89293277Y-55284181D01*
X89507232Y-55052727D01*
X89779782Y-54894417D01*
X90125435Y-54814299D01*
X90183953Y-54812000D01*
X151584929Y-54812000D01*
X151949687Y-54866839D01*
G36*
X140081000Y-121793000D02*
X140101000Y-121793000D01*
X140101000Y-122047000D01*
X140081000Y-122047000D01*
X140081000Y-122067000D01*
X139827000Y-122067000D01*
X139827000Y-122047000D01*
X139807000Y-122047000D01*
X139807000Y-121793000D01*
X139827000Y-121793000D01*
X139827000Y-121773000D01*
X140081000Y-121773000D01*
X140081000Y-121793000D01*
X140081000Y-121793000D01*
G37*
X140081000Y-121793000D02*
X140101000Y-121793000D01*
X140101000Y-122047000D01*
X140081000Y-122047000D01*
X140081000Y-122067000D01*
X139827000Y-122067000D01*
X139827000Y-122047000D01*
X139807000Y-122047000D01*
X139807000Y-121793000D01*
X139827000Y-121793000D01*
X139827000Y-121773000D01*
X140081000Y-121773000D01*
X140081000Y-121793000D01*
G36*
X129921000Y-121793000D02*
X129941000Y-121793000D01*
X129941000Y-122047000D01*
X129921000Y-122047000D01*
X129921000Y-122067000D01*
X129667000Y-122067000D01*
X129667000Y-122047000D01*
X129647000Y-122047000D01*
X129647000Y-121793000D01*
X129667000Y-121793000D01*
X129667000Y-121773000D01*
X129921000Y-121773000D01*
X129921000Y-121793000D01*
X129921000Y-121793000D01*
G37*
X129921000Y-121793000D02*
X129941000Y-121793000D01*
X129941000Y-122047000D01*
X129921000Y-122047000D01*
X129921000Y-122067000D01*
X129667000Y-122067000D01*
X129667000Y-122047000D01*
X129647000Y-122047000D01*
X129647000Y-121793000D01*
X129667000Y-121793000D01*
X129667000Y-121773000D01*
X129921000Y-121773000D01*
X129921000Y-121793000D01*
G36*
X122301000Y-121793000D02*
X122321000Y-121793000D01*
X122321000Y-122047000D01*
X122301000Y-122047000D01*
X122301000Y-122067000D01*
X122047000Y-122067000D01*
X122047000Y-122047000D01*
X122027000Y-122047000D01*
X122027000Y-121793000D01*
X122047000Y-121793000D01*
X122047000Y-121773000D01*
X122301000Y-121773000D01*
X122301000Y-121793000D01*
X122301000Y-121793000D01*
G37*
X122301000Y-121793000D02*
X122321000Y-121793000D01*
X122321000Y-122047000D01*
X122301000Y-122047000D01*
X122301000Y-122067000D01*
X122047000Y-122067000D01*
X122047000Y-122047000D01*
X122027000Y-122047000D01*
X122027000Y-121793000D01*
X122047000Y-121793000D01*
X122047000Y-121773000D01*
X122301000Y-121773000D01*
X122301000Y-121793000D01*
G36*
X109601000Y-121793000D02*
X109621000Y-121793000D01*
X109621000Y-122047000D01*
X109601000Y-122047000D01*
X109601000Y-122067000D01*
X109347000Y-122067000D01*
X109347000Y-122047000D01*
X109327000Y-122047000D01*
X109327000Y-121793000D01*
X109347000Y-121793000D01*
X109347000Y-121773000D01*
X109601000Y-121773000D01*
X109601000Y-121793000D01*
X109601000Y-121793000D01*
G37*
X109601000Y-121793000D02*
X109621000Y-121793000D01*
X109621000Y-122047000D01*
X109601000Y-122047000D01*
X109601000Y-122067000D01*
X109347000Y-122067000D01*
X109347000Y-122047000D01*
X109327000Y-122047000D01*
X109327000Y-121793000D01*
X109347000Y-121793000D01*
X109347000Y-121773000D01*
X109601000Y-121773000D01*
X109601000Y-121793000D01*
G36*
X104521000Y-121793000D02*
X104541000Y-121793000D01*
X104541000Y-122047000D01*
X104521000Y-122047000D01*
X104521000Y-122067000D01*
X104267000Y-122067000D01*
X104267000Y-122047000D01*
X104247000Y-122047000D01*
X104247000Y-121793000D01*
X104267000Y-121793000D01*
X104267000Y-121773000D01*
X104521000Y-121773000D01*
X104521000Y-121793000D01*
X104521000Y-121793000D01*
G37*
X104521000Y-121793000D02*
X104541000Y-121793000D01*
X104541000Y-122047000D01*
X104521000Y-122047000D01*
X104521000Y-122067000D01*
X104267000Y-122067000D01*
X104267000Y-122047000D01*
X104247000Y-122047000D01*
X104247000Y-121793000D01*
X104267000Y-121793000D01*
X104267000Y-121773000D01*
X104521000Y-121773000D01*
X104521000Y-121793000D01*
G36*
X121103375Y-120450625D02*
X121403786Y-120651353D01*
X120978817Y-121038642D01*
X120917843Y-121168478D01*
X120704625Y-120849375D01*
X120406239Y-120650000D01*
X120704625Y-120450625D01*
X120904000Y-120152239D01*
X121103375Y-120450625D01*
X121103375Y-120450625D01*
G37*
X121103375Y-120450625D02*
X121403786Y-120651353D01*
X120978817Y-121038642D01*
X120917843Y-121168478D01*
X120704625Y-120849375D01*
X120406239Y-120650000D01*
X120704625Y-120450625D01*
X120904000Y-120152239D01*
X121103375Y-120450625D01*
G36*
X128723375Y-120450625D02*
X129023786Y-120651353D01*
X128598817Y-121038642D01*
X128537843Y-121168478D01*
X128324625Y-120849375D01*
X128026239Y-120650000D01*
X128324625Y-120450625D01*
X128524000Y-120152239D01*
X128723375Y-120450625D01*
X128723375Y-120450625D01*
G37*
X128723375Y-120450625D02*
X129023786Y-120651353D01*
X128598817Y-121038642D01*
X128537843Y-121168478D01*
X128324625Y-120849375D01*
X128026239Y-120650000D01*
X128324625Y-120450625D01*
X128524000Y-120152239D01*
X128723375Y-120450625D01*
G36*
X96754199Y-117895000D02*
X96646998Y-117895000D01*
X96646998Y-118059844D01*
X96417110Y-117938524D01*
X96007076Y-118108355D01*
X95578817Y-118498642D01*
X95332514Y-119023108D01*
X95453181Y-119253000D01*
X96647000Y-119253000D01*
X96647000Y-119233000D01*
X96901000Y-119233000D01*
X96901000Y-119253000D01*
X96921000Y-119253000D01*
X96921000Y-119507000D01*
X96901000Y-119507000D01*
X96901000Y-119527000D01*
X96647000Y-119527000D01*
X96647000Y-119507000D01*
X95453181Y-119507000D01*
X95332514Y-119736892D01*
X95359804Y-119795001D01*
X94199803Y-119795001D01*
X93216000Y-118811199D01*
X93216000Y-114356801D01*
X96754199Y-117895000D01*
X96754199Y-117895000D01*
G37*
X96754199Y-117895000D02*
X96646998Y-117895000D01*
X96646998Y-118059844D01*
X96417110Y-117938524D01*
X96007076Y-118108355D01*
X95578817Y-118498642D01*
X95332514Y-119023108D01*
X95453181Y-119253000D01*
X96647000Y-119253000D01*
X96647000Y-119233000D01*
X96901000Y-119233000D01*
X96901000Y-119253000D01*
X96921000Y-119253000D01*
X96921000Y-119507000D01*
X96901000Y-119507000D01*
X96901000Y-119527000D01*
X96647000Y-119527000D01*
X96647000Y-119507000D01*
X95453181Y-119507000D01*
X95332514Y-119736892D01*
X95359804Y-119795001D01*
X94199803Y-119795001D01*
X93216000Y-118811199D01*
X93216000Y-114356801D01*
X96754199Y-117895000D01*
G36*
X135001000Y-119253000D02*
X135021000Y-119253000D01*
X135021000Y-119507000D01*
X135001000Y-119507000D01*
X135001000Y-119527000D01*
X134747000Y-119527000D01*
X134747000Y-119507000D01*
X134727000Y-119507000D01*
X134727000Y-119253000D01*
X134747000Y-119253000D01*
X134747000Y-119233000D01*
X135001000Y-119233000D01*
X135001000Y-119253000D01*
X135001000Y-119253000D01*
G37*
X135001000Y-119253000D02*
X135021000Y-119253000D01*
X135021000Y-119507000D01*
X135001000Y-119507000D01*
X135001000Y-119527000D01*
X134747000Y-119527000D01*
X134747000Y-119507000D01*
X134727000Y-119507000D01*
X134727000Y-119253000D01*
X134747000Y-119253000D01*
X134747000Y-119233000D01*
X135001000Y-119233000D01*
X135001000Y-119253000D01*
G36*
X114681000Y-119253000D02*
X114701000Y-119253000D01*
X114701000Y-119507000D01*
X114681000Y-119507000D01*
X114681000Y-119527000D01*
X114427000Y-119527000D01*
X114427000Y-119507000D01*
X114407000Y-119507000D01*
X114407000Y-119253000D01*
X114427000Y-119253000D01*
X114427000Y-119233000D01*
X114681000Y-119233000D01*
X114681000Y-119253000D01*
X114681000Y-119253000D01*
G37*
X114681000Y-119253000D02*
X114701000Y-119253000D01*
X114701000Y-119507000D01*
X114681000Y-119507000D01*
X114681000Y-119527000D01*
X114427000Y-119527000D01*
X114427000Y-119507000D01*
X114407000Y-119507000D01*
X114407000Y-119253000D01*
X114427000Y-119253000D01*
X114427000Y-119233000D01*
X114681000Y-119233000D01*
X114681000Y-119253000D01*
G36*
X114426998Y-118041800D02*
X114426998Y-118059844D01*
X114197110Y-117938524D01*
X113787076Y-118108355D01*
X113358817Y-118498642D01*
X113297843Y-118628478D01*
X113084625Y-118309375D01*
X112774000Y-118101822D01*
X112774000Y-117168846D01*
X112788888Y-117093999D01*
X112774000Y-117019152D01*
X112774000Y-117019148D01*
X112729904Y-116797463D01*
X112688102Y-116734902D01*
X112604329Y-116609526D01*
X112604327Y-116609524D01*
X112561929Y-116546071D01*
X112498476Y-116503673D01*
X107016331Y-111021530D01*
X106973929Y-110958071D01*
X106782256Y-110829999D01*
X107215198Y-110829999D01*
X114426998Y-118041800D01*
X114426998Y-118041800D01*
G37*
X114426998Y-118041800D02*
X114426998Y-118059844D01*
X114197110Y-117938524D01*
X113787076Y-118108355D01*
X113358817Y-118498642D01*
X113297843Y-118628478D01*
X113084625Y-118309375D01*
X112774000Y-118101822D01*
X112774000Y-117168846D01*
X112788888Y-117093999D01*
X112774000Y-117019152D01*
X112774000Y-117019148D01*
X112729904Y-116797463D01*
X112688102Y-116734902D01*
X112604329Y-116609526D01*
X112604327Y-116609524D01*
X112561929Y-116546071D01*
X112498476Y-116503673D01*
X107016331Y-111021530D01*
X106973929Y-110958071D01*
X106782256Y-110829999D01*
X107215198Y-110829999D01*
X114426998Y-118041800D01*
G36*
X146306001Y-112969196D02*
X142009530Y-117265669D01*
X141946071Y-117308071D01*
X141778096Y-117559464D01*
X141734000Y-117781149D01*
X141734000Y-117781153D01*
X141719112Y-117856000D01*
X141734000Y-117930847D01*
X141734000Y-118101822D01*
X141423375Y-118309375D01*
X141224000Y-118607761D01*
X141024625Y-118309375D01*
X140533418Y-117981161D01*
X140100256Y-117895000D01*
X139807744Y-117895000D01*
X139374582Y-117981161D01*
X138883375Y-118309375D01*
X138684000Y-118607761D01*
X138484625Y-118309375D01*
X137993418Y-117981161D01*
X137666640Y-117916161D01*
X141887801Y-113695001D01*
X143784152Y-113695001D01*
X143858999Y-113709889D01*
X143933846Y-113695001D01*
X143933851Y-113695001D01*
X144155536Y-113650905D01*
X144406928Y-113482930D01*
X144449330Y-113419471D01*
X144667592Y-113201209D01*
X144887744Y-113245000D01*
X145180256Y-113245000D01*
X145613418Y-113158839D01*
X146104625Y-112830625D01*
X146306001Y-112529245D01*
X146306001Y-112969196D01*
X146306001Y-112969196D01*
G37*
X146306001Y-112969196D02*
X142009530Y-117265669D01*
X141946071Y-117308071D01*
X141778096Y-117559464D01*
X141734000Y-117781149D01*
X141734000Y-117781153D01*
X141719112Y-117856000D01*
X141734000Y-117930847D01*
X141734000Y-118101822D01*
X141423375Y-118309375D01*
X141224000Y-118607761D01*
X141024625Y-118309375D01*
X140533418Y-117981161D01*
X140100256Y-117895000D01*
X139807744Y-117895000D01*
X139374582Y-117981161D01*
X138883375Y-118309375D01*
X138684000Y-118607761D01*
X138484625Y-118309375D01*
X137993418Y-117981161D01*
X137666640Y-117916161D01*
X141887801Y-113695001D01*
X143784152Y-113695001D01*
X143858999Y-113709889D01*
X143933846Y-113695001D01*
X143933851Y-113695001D01*
X144155536Y-113650905D01*
X144406928Y-113482930D01*
X144449330Y-113419471D01*
X144667592Y-113201209D01*
X144887744Y-113245000D01*
X145180256Y-113245000D01*
X145613418Y-113158839D01*
X146104625Y-112830625D01*
X146306001Y-112529245D01*
X146306001Y-112969196D01*
G36*
X122430033Y-117916836D02*
X122320256Y-117895000D01*
X122027744Y-117895000D01*
X121594582Y-117981161D01*
X121103375Y-118309375D01*
X120904000Y-118607761D01*
X120704625Y-118309375D01*
X120213418Y-117981161D01*
X119780256Y-117895000D01*
X119487744Y-117895000D01*
X119054582Y-117981161D01*
X118563375Y-118309375D01*
X118364000Y-118607761D01*
X118164625Y-118309375D01*
X117854000Y-118101822D01*
X117854000Y-114354290D01*
X117886655Y-114321635D01*
X118029000Y-113977983D01*
X118029000Y-113606017D01*
X117965209Y-113452011D01*
X122430033Y-117916836D01*
X122430033Y-117916836D01*
G37*
X122430033Y-117916836D02*
X122320256Y-117895000D01*
X122027744Y-117895000D01*
X121594582Y-117981161D01*
X121103375Y-118309375D01*
X120904000Y-118607761D01*
X120704625Y-118309375D01*
X120213418Y-117981161D01*
X119780256Y-117895000D01*
X119487744Y-117895000D01*
X119054582Y-117981161D01*
X118563375Y-118309375D01*
X118364000Y-118607761D01*
X118164625Y-118309375D01*
X117854000Y-118101822D01*
X117854000Y-114354290D01*
X117886655Y-114321635D01*
X118029000Y-113977983D01*
X118029000Y-113606017D01*
X117965209Y-113452011D01*
X122430033Y-117916836D01*
G36*
X117433990Y-112920791D02*
X117279983Y-112857000D01*
X116908017Y-112857000D01*
X116564365Y-112999345D01*
X116301345Y-113262365D01*
X116159000Y-113606017D01*
X116159000Y-113977983D01*
X116301345Y-114321635D01*
X116334000Y-114354290D01*
X116334001Y-117799199D01*
X108120330Y-109585529D01*
X108077928Y-109522070D01*
X107826536Y-109354095D01*
X107604851Y-109309999D01*
X107604846Y-109309999D01*
X107529999Y-109295111D01*
X107455152Y-109309999D01*
X100810190Y-109309999D01*
X100828092Y-109220000D01*
X100726647Y-108710000D01*
X113223199Y-108710000D01*
X117433990Y-112920791D01*
X117433990Y-112920791D01*
G37*
X117433990Y-112920791D02*
X117279983Y-112857000D01*
X116908017Y-112857000D01*
X116564365Y-112999345D01*
X116301345Y-113262365D01*
X116159000Y-113606017D01*
X116159000Y-113977983D01*
X116301345Y-114321635D01*
X116334000Y-114354290D01*
X116334001Y-117799199D01*
X108120330Y-109585529D01*
X108077928Y-109522070D01*
X107826536Y-109354095D01*
X107604851Y-109309999D01*
X107604846Y-109309999D01*
X107529999Y-109295111D01*
X107455152Y-109309999D01*
X100810190Y-109309999D01*
X100828092Y-109220000D01*
X100726647Y-108710000D01*
X113223199Y-108710000D01*
X117433990Y-112920791D01*
G36*
X99867462Y-113325903D02*
X100089147Y-113369999D01*
X100089151Y-113369999D01*
X100163998Y-113384887D01*
X100238845Y-113369999D01*
X104167198Y-113369999D01*
X106874205Y-116077006D01*
X106859153Y-116080000D01*
X102168802Y-116080000D01*
X99333801Y-113245000D01*
X99460256Y-113245000D01*
X99680745Y-113201142D01*
X99867462Y-113325903D01*
X99867462Y-113325903D01*
G37*
X99867462Y-113325903D02*
X100089147Y-113369999D01*
X100089151Y-113369999D01*
X100163998Y-113384887D01*
X100238845Y-113369999D01*
X104167198Y-113369999D01*
X106874205Y-116077006D01*
X106859153Y-116080000D01*
X102168802Y-116080000D01*
X99333801Y-113245000D01*
X99460256Y-113245000D01*
X99680745Y-113201142D01*
X99867462Y-113325903D01*
G36*
X95375161Y-84399418D02*
X95703375Y-84890625D01*
X96001761Y-85090000D01*
X95703375Y-85289375D01*
X95375161Y-85780582D01*
X95259908Y-86360000D01*
X95375161Y-86939418D01*
X95703375Y-87430625D01*
X96022478Y-87643843D01*
X95892642Y-87704817D01*
X95502355Y-88133076D01*
X95332524Y-88543110D01*
X95453845Y-88773000D01*
X96647000Y-88773000D01*
X96647000Y-88753000D01*
X96901000Y-88753000D01*
X96901000Y-88773000D01*
X96921000Y-88773000D01*
X96921000Y-89027000D01*
X96901000Y-89027000D01*
X96901000Y-91313000D01*
X96921000Y-91313000D01*
X96921000Y-91567000D01*
X96901000Y-91567000D01*
X96901000Y-91587000D01*
X96647000Y-91587000D01*
X96647000Y-91567000D01*
X95453845Y-91567000D01*
X95332524Y-91796890D01*
X95502355Y-92206924D01*
X95892642Y-92635183D01*
X96022478Y-92696157D01*
X95703375Y-92909375D01*
X95375161Y-93400582D01*
X95259908Y-93980000D01*
X95375161Y-94559418D01*
X95703375Y-95050625D01*
X96194582Y-95378839D01*
X96627744Y-95465000D01*
X96920256Y-95465000D01*
X97353418Y-95378839D01*
X97844625Y-95050625D01*
X98044000Y-94752239D01*
X98243375Y-95050625D01*
X98734582Y-95378839D01*
X99167744Y-95465000D01*
X99460256Y-95465000D01*
X99893418Y-95378839D01*
X100384625Y-95050625D01*
X100712839Y-94559418D01*
X100828092Y-93980000D01*
X100712839Y-93400582D01*
X100384625Y-92909375D01*
X100086239Y-92710000D01*
X100384625Y-92510625D01*
X100712839Y-92019418D01*
X100828092Y-91440000D01*
X100712839Y-90860582D01*
X100384625Y-90369375D01*
X100086239Y-90170000D01*
X100384625Y-89970625D01*
X100712839Y-89479418D01*
X100828092Y-88900000D01*
X100712839Y-88320582D01*
X100384625Y-87829375D01*
X100086239Y-87630000D01*
X100384625Y-87430625D01*
X100650666Y-87032466D01*
X100840001Y-87221801D01*
X100840000Y-94989072D01*
X100825112Y-95063919D01*
X100840000Y-95138766D01*
X100840000Y-95138770D01*
X100884096Y-95360455D01*
X101052071Y-95611848D01*
X101115530Y-95654250D01*
X112651279Y-107190000D01*
X109871998Y-107190000D01*
X109901000Y-107119983D01*
X109901000Y-106748017D01*
X109758655Y-106404365D01*
X109495635Y-106141345D01*
X109151983Y-105999000D01*
X109105802Y-105999000D01*
X108127330Y-105020529D01*
X108084928Y-104957070D01*
X107833536Y-104789095D01*
X107615000Y-104745625D01*
X107615000Y-104462017D01*
X107472655Y-104118365D01*
X107209635Y-103855345D01*
X106865983Y-103713000D01*
X106819802Y-103713000D01*
X106762330Y-103655529D01*
X106719929Y-103592071D01*
X106468537Y-103424096D01*
X106246852Y-103380000D01*
X106246847Y-103380000D01*
X106172000Y-103365112D01*
X106097153Y-103380000D01*
X100592178Y-103380000D01*
X100384625Y-103069375D01*
X100086239Y-102870000D01*
X100384625Y-102670625D01*
X100712839Y-102179418D01*
X100828092Y-101600000D01*
X100712839Y-101020582D01*
X100384625Y-100529375D01*
X100086239Y-100330000D01*
X100384625Y-100130625D01*
X100712839Y-99639418D01*
X100828092Y-99060000D01*
X100712839Y-98480582D01*
X100384625Y-97989375D01*
X99893418Y-97661161D01*
X99460256Y-97575000D01*
X99167744Y-97575000D01*
X98734582Y-97661161D01*
X98243375Y-97989375D01*
X98231184Y-98007619D01*
X98222157Y-97962235D01*
X98081809Y-97752191D01*
X97871765Y-97611843D01*
X97624000Y-97562560D01*
X95924000Y-97562560D01*
X95676235Y-97611843D01*
X95466191Y-97752191D01*
X95325843Y-97962235D01*
X95276560Y-98210000D01*
X95276560Y-98411517D01*
X95126071Y-98512071D01*
X95083671Y-98575527D01*
X93216000Y-100443199D01*
X93216000Y-89256890D01*
X95332524Y-89256890D01*
X95502355Y-89666924D01*
X95892642Y-90095183D01*
X96051954Y-90170000D01*
X95892642Y-90244817D01*
X95502355Y-90673076D01*
X95332524Y-91083110D01*
X95453845Y-91313000D01*
X96647000Y-91313000D01*
X96647000Y-89027000D01*
X95453845Y-89027000D01*
X95332524Y-89256890D01*
X93216000Y-89256890D01*
X93216000Y-85912801D01*
X95268020Y-83860782D01*
X95375161Y-84399418D01*
X95375161Y-84399418D01*
G37*
X95375161Y-84399418D02*
X95703375Y-84890625D01*
X96001761Y-85090000D01*
X95703375Y-85289375D01*
X95375161Y-85780582D01*
X95259908Y-86360000D01*
X95375161Y-86939418D01*
X95703375Y-87430625D01*
X96022478Y-87643843D01*
X95892642Y-87704817D01*
X95502355Y-88133076D01*
X95332524Y-88543110D01*
X95453845Y-88773000D01*
X96647000Y-88773000D01*
X96647000Y-88753000D01*
X96901000Y-88753000D01*
X96901000Y-88773000D01*
X96921000Y-88773000D01*
X96921000Y-89027000D01*
X96901000Y-89027000D01*
X96901000Y-91313000D01*
X96921000Y-91313000D01*
X96921000Y-91567000D01*
X96901000Y-91567000D01*
X96901000Y-91587000D01*
X96647000Y-91587000D01*
X96647000Y-91567000D01*
X95453845Y-91567000D01*
X95332524Y-91796890D01*
X95502355Y-92206924D01*
X95892642Y-92635183D01*
X96022478Y-92696157D01*
X95703375Y-92909375D01*
X95375161Y-93400582D01*
X95259908Y-93980000D01*
X95375161Y-94559418D01*
X95703375Y-95050625D01*
X96194582Y-95378839D01*
X96627744Y-95465000D01*
X96920256Y-95465000D01*
X97353418Y-95378839D01*
X97844625Y-95050625D01*
X98044000Y-94752239D01*
X98243375Y-95050625D01*
X98734582Y-95378839D01*
X99167744Y-95465000D01*
X99460256Y-95465000D01*
X99893418Y-95378839D01*
X100384625Y-95050625D01*
X100712839Y-94559418D01*
X100828092Y-93980000D01*
X100712839Y-93400582D01*
X100384625Y-92909375D01*
X100086239Y-92710000D01*
X100384625Y-92510625D01*
X100712839Y-92019418D01*
X100828092Y-91440000D01*
X100712839Y-90860582D01*
X100384625Y-90369375D01*
X100086239Y-90170000D01*
X100384625Y-89970625D01*
X100712839Y-89479418D01*
X100828092Y-88900000D01*
X100712839Y-88320582D01*
X100384625Y-87829375D01*
X100086239Y-87630000D01*
X100384625Y-87430625D01*
X100650666Y-87032466D01*
X100840001Y-87221801D01*
X100840000Y-94989072D01*
X100825112Y-95063919D01*
X100840000Y-95138766D01*
X100840000Y-95138770D01*
X100884096Y-95360455D01*
X101052071Y-95611848D01*
X101115530Y-95654250D01*
X112651279Y-107190000D01*
X109871998Y-107190000D01*
X109901000Y-107119983D01*
X109901000Y-106748017D01*
X109758655Y-106404365D01*
X109495635Y-106141345D01*
X109151983Y-105999000D01*
X109105802Y-105999000D01*
X108127330Y-105020529D01*
X108084928Y-104957070D01*
X107833536Y-104789095D01*
X107615000Y-104745625D01*
X107615000Y-104462017D01*
X107472655Y-104118365D01*
X107209635Y-103855345D01*
X106865983Y-103713000D01*
X106819802Y-103713000D01*
X106762330Y-103655529D01*
X106719929Y-103592071D01*
X106468537Y-103424096D01*
X106246852Y-103380000D01*
X106246847Y-103380000D01*
X106172000Y-103365112D01*
X106097153Y-103380000D01*
X100592178Y-103380000D01*
X100384625Y-103069375D01*
X100086239Y-102870000D01*
X100384625Y-102670625D01*
X100712839Y-102179418D01*
X100828092Y-101600000D01*
X100712839Y-101020582D01*
X100384625Y-100529375D01*
X100086239Y-100330000D01*
X100384625Y-100130625D01*
X100712839Y-99639418D01*
X100828092Y-99060000D01*
X100712839Y-98480582D01*
X100384625Y-97989375D01*
X99893418Y-97661161D01*
X99460256Y-97575000D01*
X99167744Y-97575000D01*
X98734582Y-97661161D01*
X98243375Y-97989375D01*
X98231184Y-98007619D01*
X98222157Y-97962235D01*
X98081809Y-97752191D01*
X97871765Y-97611843D01*
X97624000Y-97562560D01*
X95924000Y-97562560D01*
X95676235Y-97611843D01*
X95466191Y-97752191D01*
X95325843Y-97962235D01*
X95276560Y-98210000D01*
X95276560Y-98411517D01*
X95126071Y-98512071D01*
X95083671Y-98575527D01*
X93216000Y-100443199D01*
X93216000Y-89256890D01*
X95332524Y-89256890D01*
X95502355Y-89666924D01*
X95892642Y-90095183D01*
X96051954Y-90170000D01*
X95892642Y-90244817D01*
X95502355Y-90673076D01*
X95332524Y-91083110D01*
X95453845Y-91313000D01*
X96647000Y-91313000D01*
X96647000Y-89027000D01*
X95453845Y-89027000D01*
X95332524Y-89256890D01*
X93216000Y-89256890D01*
X93216000Y-85912801D01*
X95268020Y-83860782D01*
X95375161Y-84399418D01*
G36*
X142621000Y-87249000D02*
X142641000Y-87249000D01*
X142641000Y-87503000D01*
X142621000Y-87503000D01*
X142621000Y-87523000D01*
X142367000Y-87523000D01*
X142367000Y-87503000D01*
X142347000Y-87503000D01*
X142347000Y-87249000D01*
X142367000Y-87249000D01*
X142367000Y-87229000D01*
X142621000Y-87229000D01*
X142621000Y-87249000D01*
X142621000Y-87249000D01*
G37*
X142621000Y-87249000D02*
X142641000Y-87249000D01*
X142641000Y-87503000D01*
X142621000Y-87503000D01*
X142621000Y-87523000D01*
X142367000Y-87523000D01*
X142367000Y-87503000D01*
X142347000Y-87503000D01*
X142347000Y-87249000D01*
X142367000Y-87249000D01*
X142367000Y-87229000D01*
X142621000Y-87229000D01*
X142621000Y-87249000D01*
G04 #@! TD*
M02*
